G04 #@! TF.GenerationSoftware,KiCad,Pcbnew,(5.1.6)-1*
G04 #@! TF.CreationDate,2020-11-02T00:41:24+04:00*
G04 #@! TF.ProjectId,RPi3-screw-terminal-shiel,52506933-2d73-4637-9265-772d7465726d,rev?*
G04 #@! TF.SameCoordinates,Original*
G04 #@! TF.FileFunction,Copper,L1,Top*
G04 #@! TF.FilePolarity,Positive*
%FSLAX46Y46*%
G04 Gerber Fmt 4.6, Leading zero omitted, Abs format (unit mm)*
G04 Created by KiCad (PCBNEW (5.1.6)-1) date 2020-11-02 00:41:24*
%MOMM*%
%LPD*%
G01*
G04 APERTURE LIST*
G04 #@! TA.AperFunction,ComponentPad*
%ADD10C,1.800000*%
G04 #@! TD*
G04 #@! TA.AperFunction,ComponentPad*
%ADD11R,1.800000X1.800000*%
G04 #@! TD*
G04 #@! TA.AperFunction,ComponentPad*
%ADD12O,1.700000X1.700000*%
G04 #@! TD*
G04 #@! TA.AperFunction,ComponentPad*
%ADD13R,1.700000X1.700000*%
G04 #@! TD*
G04 #@! TA.AperFunction,Conductor*
%ADD14C,0.250000*%
G04 #@! TD*
G04 #@! TA.AperFunction,NonConductor*
%ADD15C,0.254000*%
G04 #@! TD*
G04 APERTURE END LIST*
D10*
G04 #@! TO.P,J3,10*
G04 #@! TO.N,/39*
X109500000Y-43040000D03*
G04 #@! TO.P,J3,9*
G04 #@! TO.N,/37*
X109500000Y-45580000D03*
G04 #@! TO.P,J3,8*
G04 #@! TO.N,/35*
X109500000Y-48120000D03*
G04 #@! TO.P,J3,7*
G04 #@! TO.N,/33*
X109500000Y-50660000D03*
G04 #@! TO.P,J3,6*
G04 #@! TO.N,/31*
X109500000Y-53200000D03*
G04 #@! TO.P,J3,5*
G04 #@! TO.N,/29*
X109500000Y-55740000D03*
G04 #@! TO.P,J3,4*
G04 #@! TO.N,/27*
X109500000Y-58280000D03*
G04 #@! TO.P,J3,3*
G04 #@! TO.N,/25*
X109500000Y-60820000D03*
G04 #@! TO.P,J3,2*
G04 #@! TO.N,/23*
X109500000Y-63360000D03*
D11*
G04 #@! TO.P,J3,1*
G04 #@! TO.N,/21*
X109500000Y-65900000D03*
G04 #@! TD*
D10*
G04 #@! TO.P,J5,10*
G04 #@! TO.N,/40*
X102300000Y-43040000D03*
G04 #@! TO.P,J5,9*
G04 #@! TO.N,/38*
X102300000Y-45580000D03*
G04 #@! TO.P,J5,8*
G04 #@! TO.N,/36*
X102300000Y-48120000D03*
G04 #@! TO.P,J5,7*
G04 #@! TO.N,/34*
X102300000Y-50660000D03*
G04 #@! TO.P,J5,6*
G04 #@! TO.N,/32*
X102300000Y-53200000D03*
G04 #@! TO.P,J5,5*
G04 #@! TO.N,/30*
X102300000Y-55740000D03*
G04 #@! TO.P,J5,4*
G04 #@! TO.N,/28*
X102300000Y-58280000D03*
G04 #@! TO.P,J5,3*
G04 #@! TO.N,/26*
X102300000Y-60820000D03*
G04 #@! TO.P,J5,2*
G04 #@! TO.N,/24*
X102300000Y-63360000D03*
D11*
G04 #@! TO.P,J5,1*
G04 #@! TO.N,/22*
X102300000Y-65900000D03*
G04 #@! TD*
D10*
G04 #@! TO.P,J2,10*
G04 #@! TO.N,/19*
X109500000Y-69700000D03*
G04 #@! TO.P,J2,9*
G04 #@! TO.N,/17*
X109500000Y-72240000D03*
G04 #@! TO.P,J2,8*
G04 #@! TO.N,/15*
X109500000Y-74780000D03*
G04 #@! TO.P,J2,7*
G04 #@! TO.N,/13*
X109500000Y-77320000D03*
G04 #@! TO.P,J2,6*
G04 #@! TO.N,/11*
X109500000Y-79860000D03*
G04 #@! TO.P,J2,5*
G04 #@! TO.N,/9*
X109500000Y-82400000D03*
G04 #@! TO.P,J2,4*
G04 #@! TO.N,/7*
X109500000Y-84940000D03*
G04 #@! TO.P,J2,3*
G04 #@! TO.N,/5*
X109500000Y-87480000D03*
G04 #@! TO.P,J2,2*
G04 #@! TO.N,/3*
X109500000Y-90020000D03*
D11*
G04 #@! TO.P,J2,1*
G04 #@! TO.N,/1*
X109500000Y-92560000D03*
G04 #@! TD*
G04 #@! TO.P,J4,1*
G04 #@! TO.N,/2*
X102300000Y-92560000D03*
D10*
G04 #@! TO.P,J4,2*
G04 #@! TO.N,/4*
X102300000Y-90020000D03*
G04 #@! TO.P,J4,3*
G04 #@! TO.N,/6*
X102300000Y-87480000D03*
G04 #@! TO.P,J4,4*
G04 #@! TO.N,/8*
X102300000Y-84940000D03*
G04 #@! TO.P,J4,5*
G04 #@! TO.N,/10*
X102300000Y-82400000D03*
G04 #@! TO.P,J4,6*
G04 #@! TO.N,/12*
X102300000Y-79860000D03*
G04 #@! TO.P,J4,7*
G04 #@! TO.N,/14*
X102300000Y-77320000D03*
G04 #@! TO.P,J4,8*
G04 #@! TO.N,/16*
X102300000Y-74780000D03*
G04 #@! TO.P,J4,9*
G04 #@! TO.N,/18*
X102300000Y-72240000D03*
G04 #@! TO.P,J4,10*
G04 #@! TO.N,/20*
X102300000Y-69700000D03*
G04 #@! TD*
D12*
G04 #@! TO.P,J1,40*
G04 #@! TO.N,/40*
X90560000Y-43740000D03*
G04 #@! TO.P,J1,39*
G04 #@! TO.N,/39*
X93100000Y-43740000D03*
G04 #@! TO.P,J1,26*
G04 #@! TO.N,/26*
X90560000Y-61520000D03*
G04 #@! TO.P,J1,25*
G04 #@! TO.N,/25*
X93100000Y-61520000D03*
G04 #@! TO.P,J1,22*
G04 #@! TO.N,/22*
X90560000Y-66600000D03*
G04 #@! TO.P,J1,21*
G04 #@! TO.N,/21*
X93100000Y-66600000D03*
G04 #@! TO.P,J1,30*
G04 #@! TO.N,/30*
X90560000Y-56440000D03*
G04 #@! TO.P,J1,29*
G04 #@! TO.N,/29*
X93100000Y-56440000D03*
G04 #@! TO.P,J1,8*
G04 #@! TO.N,/8*
X90560000Y-84380000D03*
G04 #@! TO.P,J1,7*
G04 #@! TO.N,/7*
X93100000Y-84380000D03*
G04 #@! TO.P,J1,32*
G04 #@! TO.N,/32*
X90560000Y-53900000D03*
G04 #@! TO.P,J1,31*
G04 #@! TO.N,/31*
X93100000Y-53900000D03*
G04 #@! TO.P,J1,18*
G04 #@! TO.N,/18*
X90560000Y-71680000D03*
G04 #@! TO.P,J1,17*
G04 #@! TO.N,/17*
X93100000Y-71680000D03*
G04 #@! TO.P,J1,36*
G04 #@! TO.N,/36*
X90560000Y-48820000D03*
G04 #@! TO.P,J1,35*
G04 #@! TO.N,/35*
X93100000Y-48820000D03*
G04 #@! TO.P,J1,34*
G04 #@! TO.N,/34*
X90560000Y-51360000D03*
G04 #@! TO.P,J1,33*
G04 #@! TO.N,/33*
X93100000Y-51360000D03*
G04 #@! TO.P,J1,38*
G04 #@! TO.N,/38*
X90560000Y-46280000D03*
G04 #@! TO.P,J1,37*
G04 #@! TO.N,/37*
X93100000Y-46280000D03*
G04 #@! TO.P,J1,20*
G04 #@! TO.N,/20*
X90560000Y-69140000D03*
G04 #@! TO.P,J1,19*
G04 #@! TO.N,/19*
X93100000Y-69140000D03*
G04 #@! TO.P,J1,10*
G04 #@! TO.N,/10*
X90560000Y-81840000D03*
G04 #@! TO.P,J1,9*
G04 #@! TO.N,/9*
X93100000Y-81840000D03*
G04 #@! TO.P,J1,14*
G04 #@! TO.N,/14*
X90560000Y-76760000D03*
G04 #@! TO.P,J1,13*
G04 #@! TO.N,/13*
X93100000Y-76760000D03*
G04 #@! TO.P,J1,28*
G04 #@! TO.N,/28*
X90560000Y-58980000D03*
G04 #@! TO.P,J1,27*
G04 #@! TO.N,/27*
X93100000Y-58980000D03*
G04 #@! TO.P,J1,12*
G04 #@! TO.N,/12*
X90560000Y-79300000D03*
G04 #@! TO.P,J1,11*
G04 #@! TO.N,/11*
X93100000Y-79300000D03*
G04 #@! TO.P,J1,24*
G04 #@! TO.N,/24*
X90560000Y-64060000D03*
G04 #@! TO.P,J1,23*
G04 #@! TO.N,/23*
X93100000Y-64060000D03*
D13*
G04 #@! TO.P,J1,1*
G04 #@! TO.N,/1*
X93100000Y-92000000D03*
D12*
G04 #@! TO.P,J1,2*
G04 #@! TO.N,/2*
X90560000Y-92000000D03*
G04 #@! TO.P,J1,5*
G04 #@! TO.N,/5*
X93100000Y-86920000D03*
G04 #@! TO.P,J1,4*
G04 #@! TO.N,/4*
X90560000Y-89460000D03*
G04 #@! TO.P,J1,16*
G04 #@! TO.N,/16*
X90560000Y-74220000D03*
G04 #@! TO.P,J1,15*
G04 #@! TO.N,/15*
X93100000Y-74220000D03*
G04 #@! TO.P,J1,3*
G04 #@! TO.N,/3*
X93100000Y-89460000D03*
G04 #@! TO.P,J1,6*
G04 #@! TO.N,/6*
X90560000Y-86920000D03*
G04 #@! TD*
D14*
G04 #@! TO.N,/40*
X101660000Y-42400000D02*
X102300000Y-43040000D01*
X92500000Y-42400000D02*
X101660000Y-42400000D01*
X90560000Y-43740000D02*
X91700000Y-42600000D01*
X92300000Y-42600000D02*
X92500000Y-42400000D01*
X91700000Y-42600000D02*
X92300000Y-42600000D01*
G04 #@! TO.N,/39*
X101240000Y-43740000D02*
X101800000Y-44300000D01*
X93100000Y-43740000D02*
X101240000Y-43740000D01*
X108240000Y-44300000D02*
X109500000Y-43040000D01*
X101800000Y-44300000D02*
X108240000Y-44300000D01*
G04 #@! TO.N,/26*
X101824999Y-60344999D02*
X102300000Y-60820000D01*
X91735001Y-60344999D02*
X101824999Y-60344999D01*
X90560000Y-61520000D02*
X91735001Y-60344999D01*
G04 #@! TO.N,/25*
X101711999Y-62045001D02*
X108274999Y-62045001D01*
X108274999Y-62045001D02*
X109500000Y-60820000D01*
X101186998Y-61520000D02*
X101711999Y-62045001D01*
X93100000Y-61520000D02*
X101186998Y-61520000D01*
G04 #@! TO.N,/22*
X101824999Y-65424999D02*
X102300000Y-65900000D01*
X91360998Y-66600000D02*
X92535999Y-65424999D01*
X92535999Y-65424999D02*
X101824999Y-65424999D01*
X90560000Y-66600000D02*
X91360998Y-66600000D01*
G04 #@! TO.N,/21*
X107950001Y-67449999D02*
X109500000Y-65900000D01*
X93949999Y-67449999D02*
X107950001Y-67449999D01*
X93100000Y-66600000D02*
X93949999Y-67449999D01*
G04 #@! TO.N,/30*
X101824999Y-55264999D02*
X102300000Y-55740000D01*
X91360998Y-56440000D02*
X92535999Y-55264999D01*
X92535999Y-55264999D02*
X101824999Y-55264999D01*
X90560000Y-56440000D02*
X91360998Y-56440000D01*
G04 #@! TO.N,/29*
X108274999Y-56965001D02*
X109500000Y-55740000D01*
X101711999Y-56965001D02*
X108274999Y-56965001D01*
X101186998Y-56440000D02*
X101711999Y-56965001D01*
X93100000Y-56440000D02*
X101186998Y-56440000D01*
G04 #@! TO.N,/8*
X91735001Y-85555001D02*
X101684999Y-85555001D01*
X101684999Y-85555001D02*
X102300000Y-84940000D01*
X90560000Y-84380000D02*
X91735001Y-85555001D01*
G04 #@! TO.N,/7*
X108274999Y-83714999D02*
X109500000Y-84940000D01*
X93765001Y-83714999D02*
X108274999Y-83714999D01*
X93100000Y-84380000D02*
X93765001Y-83714999D01*
G04 #@! TO.N,/32*
X101824999Y-52724999D02*
X102300000Y-53200000D01*
X92535999Y-52724999D02*
X101824999Y-52724999D01*
X91360998Y-53900000D02*
X92535999Y-52724999D01*
X90560000Y-53900000D02*
X91360998Y-53900000D01*
G04 #@! TO.N,/31*
X108274999Y-54425001D02*
X109500000Y-53200000D01*
X93625001Y-54425001D02*
X108274999Y-54425001D01*
X93100000Y-53900000D02*
X93625001Y-54425001D01*
G04 #@! TO.N,/18*
X101684999Y-72855001D02*
X102300000Y-72240000D01*
X91735001Y-72855001D02*
X101684999Y-72855001D01*
X90560000Y-71680000D02*
X91735001Y-72855001D01*
G04 #@! TO.N,/17*
X108274999Y-71014999D02*
X109500000Y-72240000D01*
X93765001Y-71014999D02*
X108274999Y-71014999D01*
X93100000Y-71680000D02*
X93765001Y-71014999D01*
G04 #@! TO.N,/36*
X101824999Y-47644999D02*
X102300000Y-48120000D01*
X91735001Y-47644999D02*
X101824999Y-47644999D01*
X90560000Y-48820000D02*
X91735001Y-47644999D01*
G04 #@! TO.N,/35*
X108274999Y-49345001D02*
X109500000Y-48120000D01*
X101711999Y-49345001D02*
X108274999Y-49345001D01*
X101186998Y-48820000D02*
X101711999Y-49345001D01*
X93100000Y-48820000D02*
X101186998Y-48820000D01*
G04 #@! TO.N,/34*
X101824999Y-50184999D02*
X102300000Y-50660000D01*
X91735001Y-50184999D02*
X101824999Y-50184999D01*
X90560000Y-51360000D02*
X91735001Y-50184999D01*
G04 #@! TO.N,/33*
X108185001Y-51974999D02*
X109500000Y-50660000D01*
X93714999Y-51974999D02*
X108185001Y-51974999D01*
X93100000Y-51360000D02*
X93714999Y-51974999D01*
G04 #@! TO.N,/38*
X101824999Y-45104999D02*
X102300000Y-45580000D01*
X91735001Y-45104999D02*
X101824999Y-45104999D01*
X90560000Y-46280000D02*
X91735001Y-45104999D01*
G04 #@! TO.N,/37*
X108185001Y-46894999D02*
X109500000Y-45580000D01*
X93714999Y-46894999D02*
X108185001Y-46894999D01*
X93100000Y-46280000D02*
X93714999Y-46894999D01*
G04 #@! TO.N,/20*
X101684999Y-70315001D02*
X102300000Y-69700000D01*
X91735001Y-70315001D02*
X101684999Y-70315001D01*
X90560000Y-69140000D02*
X91735001Y-70315001D01*
G04 #@! TO.N,/19*
X108090001Y-68290001D02*
X109500000Y-69700000D01*
X93949999Y-68290001D02*
X108090001Y-68290001D01*
X93100000Y-69140000D02*
X93949999Y-68290001D01*
G04 #@! TO.N,/10*
X101684999Y-83015001D02*
X102300000Y-82400000D01*
X91735001Y-83015001D02*
X101684999Y-83015001D01*
X90560000Y-81840000D02*
X91735001Y-83015001D01*
G04 #@! TO.N,/9*
X93765001Y-81174999D02*
X108274999Y-81174999D01*
X108274999Y-81174999D02*
X109500000Y-82400000D01*
X93100000Y-81840000D02*
X93765001Y-81174999D01*
G04 #@! TO.N,/14*
X101684999Y-77935001D02*
X102300000Y-77320000D01*
X91735001Y-77935001D02*
X101684999Y-77935001D01*
X90560000Y-76760000D02*
X91735001Y-77935001D01*
G04 #@! TO.N,/13*
X108274999Y-76094999D02*
X109500000Y-77320000D01*
X93765001Y-76094999D02*
X108274999Y-76094999D01*
X93100000Y-76760000D02*
X93765001Y-76094999D01*
G04 #@! TO.N,/28*
X91735001Y-57804999D02*
X101824999Y-57804999D01*
X101824999Y-57804999D02*
X102300000Y-58280000D01*
X90560000Y-58980000D02*
X91735001Y-57804999D01*
G04 #@! TO.N,/27*
X108274999Y-59505001D02*
X109500000Y-58280000D01*
X101711999Y-59505001D02*
X108274999Y-59505001D01*
X101186998Y-58980000D02*
X101711999Y-59505001D01*
X93100000Y-58980000D02*
X101186998Y-58980000D01*
G04 #@! TO.N,/12*
X101684999Y-80475001D02*
X102300000Y-79860000D01*
X91735001Y-80475001D02*
X101684999Y-80475001D01*
X90560000Y-79300000D02*
X91735001Y-80475001D01*
G04 #@! TO.N,/11*
X93765001Y-78634999D02*
X108274999Y-78634999D01*
X108274999Y-78634999D02*
X109500000Y-79860000D01*
X93100000Y-79300000D02*
X93765001Y-78634999D01*
G04 #@! TO.N,/24*
X101824999Y-62884999D02*
X102300000Y-63360000D01*
X91735001Y-62884999D02*
X101824999Y-62884999D01*
X90560000Y-64060000D02*
X91735001Y-62884999D01*
G04 #@! TO.N,/23*
X108274999Y-64585001D02*
X109500000Y-63360000D01*
X101711999Y-64585001D02*
X108274999Y-64585001D01*
X101186998Y-64060000D02*
X101711999Y-64585001D01*
X93100000Y-64060000D02*
X101186998Y-64060000D01*
G04 #@! TO.N,/1*
X108274999Y-91334999D02*
X109500000Y-92560000D01*
X93765001Y-91334999D02*
X108274999Y-91334999D01*
X93100000Y-92000000D02*
X93765001Y-91334999D01*
G04 #@! TO.N,/2*
X101684999Y-93175001D02*
X102300000Y-92560000D01*
X91735001Y-93175001D02*
X101684999Y-93175001D01*
X90560000Y-92000000D02*
X91735001Y-93175001D01*
G04 #@! TO.N,/5*
X108274999Y-86254999D02*
X109500000Y-87480000D01*
X93765001Y-86254999D02*
X108274999Y-86254999D01*
X93100000Y-86920000D02*
X93765001Y-86254999D01*
G04 #@! TO.N,/4*
X101684999Y-90635001D02*
X102300000Y-90020000D01*
X91735001Y-90635001D02*
X101684999Y-90635001D01*
X90560000Y-89460000D02*
X91735001Y-90635001D01*
G04 #@! TO.N,/16*
X92535999Y-75395001D02*
X101684999Y-75395001D01*
X91360998Y-74220000D02*
X92535999Y-75395001D01*
X101684999Y-75395001D02*
X102300000Y-74780000D01*
X90560000Y-74220000D02*
X91360998Y-74220000D01*
G04 #@! TO.N,/15*
X108274999Y-73554999D02*
X109500000Y-74780000D01*
X93765001Y-73554999D02*
X108274999Y-73554999D01*
X93100000Y-74220000D02*
X93765001Y-73554999D01*
G04 #@! TO.N,/3*
X93765001Y-88794999D02*
X108274999Y-88794999D01*
X108274999Y-88794999D02*
X109500000Y-90020000D01*
X93100000Y-89460000D02*
X93765001Y-88794999D01*
G04 #@! TO.N,/6*
X101684999Y-88095001D02*
X102300000Y-87480000D01*
X91735001Y-88095001D02*
X101684999Y-88095001D01*
X90560000Y-86920000D02*
X91735001Y-88095001D01*
G04 #@! TD*
D15*
G36*
X115853893Y-36007670D02*
G01*
X116290498Y-36139489D01*
X116693185Y-36353600D01*
X117046612Y-36641848D01*
X117337327Y-36993261D01*
X117554242Y-37394439D01*
X117689106Y-37830113D01*
X117740001Y-38314353D01*
X117740000Y-97467722D01*
X117694235Y-97934468D01*
X117568056Y-98352391D01*
X117363105Y-98737849D01*
X117087193Y-99076149D01*
X116750820Y-99354421D01*
X116366809Y-99562055D01*
X115949775Y-99691149D01*
X115484985Y-99740000D01*
X91332279Y-99740000D01*
X90846106Y-99692330D01*
X90409503Y-99560512D01*
X90006814Y-99346399D01*
X89653387Y-99058150D01*
X89362673Y-98706739D01*
X89145760Y-98305564D01*
X89010894Y-97869886D01*
X88960000Y-97385664D01*
X88960000Y-96672032D01*
X89820000Y-96672032D01*
X89820000Y-97067968D01*
X89897243Y-97456296D01*
X90048761Y-97822092D01*
X90268731Y-98151301D01*
X90548699Y-98431269D01*
X90877908Y-98651239D01*
X91243704Y-98802757D01*
X91632032Y-98880000D01*
X92027968Y-98880000D01*
X92416296Y-98802757D01*
X92782092Y-98651239D01*
X93111301Y-98431269D01*
X93391269Y-98151301D01*
X93611239Y-97822092D01*
X93762757Y-97456296D01*
X93840000Y-97067968D01*
X93840000Y-96672032D01*
X112820000Y-96672032D01*
X112820000Y-97067968D01*
X112897243Y-97456296D01*
X113048761Y-97822092D01*
X113268731Y-98151301D01*
X113548699Y-98431269D01*
X113877908Y-98651239D01*
X114243704Y-98802757D01*
X114632032Y-98880000D01*
X115027968Y-98880000D01*
X115416296Y-98802757D01*
X115782092Y-98651239D01*
X116111301Y-98431269D01*
X116391269Y-98151301D01*
X116611239Y-97822092D01*
X116762757Y-97456296D01*
X116840000Y-97067968D01*
X116840000Y-96672032D01*
X116762757Y-96283704D01*
X116611239Y-95917908D01*
X116391269Y-95588699D01*
X116111301Y-95308731D01*
X115782092Y-95088761D01*
X115416296Y-94937243D01*
X115027968Y-94860000D01*
X114632032Y-94860000D01*
X114243704Y-94937243D01*
X113877908Y-95088761D01*
X113548699Y-95308731D01*
X113268731Y-95588699D01*
X113048761Y-95917908D01*
X112897243Y-96283704D01*
X112820000Y-96672032D01*
X93840000Y-96672032D01*
X93762757Y-96283704D01*
X93611239Y-95917908D01*
X93391269Y-95588699D01*
X93111301Y-95308731D01*
X92782092Y-95088761D01*
X92416296Y-94937243D01*
X92027968Y-94860000D01*
X91632032Y-94860000D01*
X91243704Y-94937243D01*
X90877908Y-95088761D01*
X90548699Y-95308731D01*
X90268731Y-95588699D01*
X90048761Y-95917908D01*
X89897243Y-96283704D01*
X89820000Y-96672032D01*
X88960000Y-96672032D01*
X88960000Y-43593740D01*
X89075000Y-43593740D01*
X89075000Y-43886260D01*
X89132068Y-44173158D01*
X89244010Y-44443411D01*
X89406525Y-44686632D01*
X89613368Y-44893475D01*
X89787760Y-45010000D01*
X89613368Y-45126525D01*
X89406525Y-45333368D01*
X89244010Y-45576589D01*
X89132068Y-45846842D01*
X89075000Y-46133740D01*
X89075000Y-46426260D01*
X89132068Y-46713158D01*
X89244010Y-46983411D01*
X89406525Y-47226632D01*
X89613368Y-47433475D01*
X89787760Y-47550000D01*
X89613368Y-47666525D01*
X89406525Y-47873368D01*
X89244010Y-48116589D01*
X89132068Y-48386842D01*
X89075000Y-48673740D01*
X89075000Y-48966260D01*
X89132068Y-49253158D01*
X89244010Y-49523411D01*
X89406525Y-49766632D01*
X89613368Y-49973475D01*
X89787760Y-50090000D01*
X89613368Y-50206525D01*
X89406525Y-50413368D01*
X89244010Y-50656589D01*
X89132068Y-50926842D01*
X89075000Y-51213740D01*
X89075000Y-51506260D01*
X89132068Y-51793158D01*
X89244010Y-52063411D01*
X89406525Y-52306632D01*
X89613368Y-52513475D01*
X89787760Y-52630000D01*
X89613368Y-52746525D01*
X89406525Y-52953368D01*
X89244010Y-53196589D01*
X89132068Y-53466842D01*
X89075000Y-53753740D01*
X89075000Y-54046260D01*
X89132068Y-54333158D01*
X89244010Y-54603411D01*
X89406525Y-54846632D01*
X89613368Y-55053475D01*
X89787760Y-55170000D01*
X89613368Y-55286525D01*
X89406525Y-55493368D01*
X89244010Y-55736589D01*
X89132068Y-56006842D01*
X89075000Y-56293740D01*
X89075000Y-56586260D01*
X89132068Y-56873158D01*
X89244010Y-57143411D01*
X89406525Y-57386632D01*
X89613368Y-57593475D01*
X89787760Y-57710000D01*
X89613368Y-57826525D01*
X89406525Y-58033368D01*
X89244010Y-58276589D01*
X89132068Y-58546842D01*
X89075000Y-58833740D01*
X89075000Y-59126260D01*
X89132068Y-59413158D01*
X89244010Y-59683411D01*
X89406525Y-59926632D01*
X89613368Y-60133475D01*
X89787760Y-60250000D01*
X89613368Y-60366525D01*
X89406525Y-60573368D01*
X89244010Y-60816589D01*
X89132068Y-61086842D01*
X89075000Y-61373740D01*
X89075000Y-61666260D01*
X89132068Y-61953158D01*
X89244010Y-62223411D01*
X89406525Y-62466632D01*
X89613368Y-62673475D01*
X89787760Y-62790000D01*
X89613368Y-62906525D01*
X89406525Y-63113368D01*
X89244010Y-63356589D01*
X89132068Y-63626842D01*
X89075000Y-63913740D01*
X89075000Y-64206260D01*
X89132068Y-64493158D01*
X89244010Y-64763411D01*
X89406525Y-65006632D01*
X89613368Y-65213475D01*
X89787760Y-65330000D01*
X89613368Y-65446525D01*
X89406525Y-65653368D01*
X89244010Y-65896589D01*
X89132068Y-66166842D01*
X89075000Y-66453740D01*
X89075000Y-66746260D01*
X89132068Y-67033158D01*
X89244010Y-67303411D01*
X89406525Y-67546632D01*
X89613368Y-67753475D01*
X89787760Y-67870000D01*
X89613368Y-67986525D01*
X89406525Y-68193368D01*
X89244010Y-68436589D01*
X89132068Y-68706842D01*
X89075000Y-68993740D01*
X89075000Y-69286260D01*
X89132068Y-69573158D01*
X89244010Y-69843411D01*
X89406525Y-70086632D01*
X89613368Y-70293475D01*
X89787760Y-70410000D01*
X89613368Y-70526525D01*
X89406525Y-70733368D01*
X89244010Y-70976589D01*
X89132068Y-71246842D01*
X89075000Y-71533740D01*
X89075000Y-71826260D01*
X89132068Y-72113158D01*
X89244010Y-72383411D01*
X89406525Y-72626632D01*
X89613368Y-72833475D01*
X89787760Y-72950000D01*
X89613368Y-73066525D01*
X89406525Y-73273368D01*
X89244010Y-73516589D01*
X89132068Y-73786842D01*
X89075000Y-74073740D01*
X89075000Y-74366260D01*
X89132068Y-74653158D01*
X89244010Y-74923411D01*
X89406525Y-75166632D01*
X89613368Y-75373475D01*
X89787760Y-75490000D01*
X89613368Y-75606525D01*
X89406525Y-75813368D01*
X89244010Y-76056589D01*
X89132068Y-76326842D01*
X89075000Y-76613740D01*
X89075000Y-76906260D01*
X89132068Y-77193158D01*
X89244010Y-77463411D01*
X89406525Y-77706632D01*
X89613368Y-77913475D01*
X89787760Y-78030000D01*
X89613368Y-78146525D01*
X89406525Y-78353368D01*
X89244010Y-78596589D01*
X89132068Y-78866842D01*
X89075000Y-79153740D01*
X89075000Y-79446260D01*
X89132068Y-79733158D01*
X89244010Y-80003411D01*
X89406525Y-80246632D01*
X89613368Y-80453475D01*
X89787760Y-80570000D01*
X89613368Y-80686525D01*
X89406525Y-80893368D01*
X89244010Y-81136589D01*
X89132068Y-81406842D01*
X89075000Y-81693740D01*
X89075000Y-81986260D01*
X89132068Y-82273158D01*
X89244010Y-82543411D01*
X89406525Y-82786632D01*
X89613368Y-82993475D01*
X89787760Y-83110000D01*
X89613368Y-83226525D01*
X89406525Y-83433368D01*
X89244010Y-83676589D01*
X89132068Y-83946842D01*
X89075000Y-84233740D01*
X89075000Y-84526260D01*
X89132068Y-84813158D01*
X89244010Y-85083411D01*
X89406525Y-85326632D01*
X89613368Y-85533475D01*
X89787760Y-85650000D01*
X89613368Y-85766525D01*
X89406525Y-85973368D01*
X89244010Y-86216589D01*
X89132068Y-86486842D01*
X89075000Y-86773740D01*
X89075000Y-87066260D01*
X89132068Y-87353158D01*
X89244010Y-87623411D01*
X89406525Y-87866632D01*
X89613368Y-88073475D01*
X89787760Y-88190000D01*
X89613368Y-88306525D01*
X89406525Y-88513368D01*
X89244010Y-88756589D01*
X89132068Y-89026842D01*
X89075000Y-89313740D01*
X89075000Y-89606260D01*
X89132068Y-89893158D01*
X89244010Y-90163411D01*
X89406525Y-90406632D01*
X89613368Y-90613475D01*
X89787760Y-90730000D01*
X89613368Y-90846525D01*
X89406525Y-91053368D01*
X89244010Y-91296589D01*
X89132068Y-91566842D01*
X89075000Y-91853740D01*
X89075000Y-92146260D01*
X89132068Y-92433158D01*
X89244010Y-92703411D01*
X89406525Y-92946632D01*
X89613368Y-93153475D01*
X89856589Y-93315990D01*
X90126842Y-93427932D01*
X90413740Y-93485000D01*
X90706260Y-93485000D01*
X90926408Y-93441210D01*
X91171202Y-93686004D01*
X91195000Y-93715002D01*
X91310725Y-93809975D01*
X91442754Y-93880547D01*
X91586015Y-93924004D01*
X91697668Y-93935001D01*
X91697677Y-93935001D01*
X91735000Y-93938677D01*
X91772323Y-93935001D01*
X100977835Y-93935001D01*
X101045506Y-93990537D01*
X101155820Y-94049502D01*
X101275518Y-94085812D01*
X101400000Y-94098072D01*
X103200000Y-94098072D01*
X103324482Y-94085812D01*
X103444180Y-94049502D01*
X103554494Y-93990537D01*
X103651185Y-93911185D01*
X103730537Y-93814494D01*
X103789502Y-93704180D01*
X103825812Y-93584482D01*
X103838072Y-93460000D01*
X103838072Y-92094999D01*
X107960198Y-92094999D01*
X107961928Y-92096729D01*
X107961928Y-93460000D01*
X107974188Y-93584482D01*
X108010498Y-93704180D01*
X108069463Y-93814494D01*
X108148815Y-93911185D01*
X108245506Y-93990537D01*
X108355820Y-94049502D01*
X108475518Y-94085812D01*
X108600000Y-94098072D01*
X110400000Y-94098072D01*
X110524482Y-94085812D01*
X110644180Y-94049502D01*
X110754494Y-93990537D01*
X110851185Y-93911185D01*
X110930537Y-93814494D01*
X110989502Y-93704180D01*
X111025812Y-93584482D01*
X111038072Y-93460000D01*
X111038072Y-91660000D01*
X111025812Y-91535518D01*
X110989502Y-91415820D01*
X110930537Y-91305506D01*
X110851185Y-91208815D01*
X110754494Y-91129463D01*
X110644180Y-91070498D01*
X110625873Y-91064944D01*
X110692312Y-90998505D01*
X110860299Y-90747095D01*
X110976011Y-90467743D01*
X111035000Y-90171184D01*
X111035000Y-89868816D01*
X110976011Y-89572257D01*
X110860299Y-89292905D01*
X110692312Y-89041495D01*
X110478505Y-88827688D01*
X110362237Y-88750000D01*
X110478505Y-88672312D01*
X110692312Y-88458505D01*
X110860299Y-88207095D01*
X110976011Y-87927743D01*
X111035000Y-87631184D01*
X111035000Y-87328816D01*
X110976011Y-87032257D01*
X110860299Y-86752905D01*
X110692312Y-86501495D01*
X110478505Y-86287688D01*
X110362237Y-86210000D01*
X110478505Y-86132312D01*
X110692312Y-85918505D01*
X110860299Y-85667095D01*
X110976011Y-85387743D01*
X111035000Y-85091184D01*
X111035000Y-84788816D01*
X110976011Y-84492257D01*
X110860299Y-84212905D01*
X110692312Y-83961495D01*
X110478505Y-83747688D01*
X110362237Y-83670000D01*
X110478505Y-83592312D01*
X110692312Y-83378505D01*
X110860299Y-83127095D01*
X110976011Y-82847743D01*
X111035000Y-82551184D01*
X111035000Y-82248816D01*
X110976011Y-81952257D01*
X110860299Y-81672905D01*
X110692312Y-81421495D01*
X110478505Y-81207688D01*
X110362237Y-81130000D01*
X110478505Y-81052312D01*
X110692312Y-80838505D01*
X110860299Y-80587095D01*
X110976011Y-80307743D01*
X111035000Y-80011184D01*
X111035000Y-79708816D01*
X110976011Y-79412257D01*
X110860299Y-79132905D01*
X110692312Y-78881495D01*
X110478505Y-78667688D01*
X110362237Y-78590000D01*
X110478505Y-78512312D01*
X110692312Y-78298505D01*
X110860299Y-78047095D01*
X110976011Y-77767743D01*
X111035000Y-77471184D01*
X111035000Y-77168816D01*
X110976011Y-76872257D01*
X110860299Y-76592905D01*
X110692312Y-76341495D01*
X110478505Y-76127688D01*
X110362237Y-76050000D01*
X110478505Y-75972312D01*
X110692312Y-75758505D01*
X110860299Y-75507095D01*
X110976011Y-75227743D01*
X111035000Y-74931184D01*
X111035000Y-74628816D01*
X110976011Y-74332257D01*
X110860299Y-74052905D01*
X110692312Y-73801495D01*
X110478505Y-73587688D01*
X110362237Y-73510000D01*
X110478505Y-73432312D01*
X110692312Y-73218505D01*
X110860299Y-72967095D01*
X110976011Y-72687743D01*
X111035000Y-72391184D01*
X111035000Y-72088816D01*
X110976011Y-71792257D01*
X110860299Y-71512905D01*
X110692312Y-71261495D01*
X110478505Y-71047688D01*
X110362237Y-70970000D01*
X110478505Y-70892312D01*
X110692312Y-70678505D01*
X110860299Y-70427095D01*
X110976011Y-70147743D01*
X111035000Y-69851184D01*
X111035000Y-69548816D01*
X110976011Y-69252257D01*
X110860299Y-68972905D01*
X110692312Y-68721495D01*
X110478505Y-68507688D01*
X110227095Y-68339701D01*
X109947743Y-68223989D01*
X109651184Y-68165000D01*
X109348816Y-68165000D01*
X109091070Y-68216269D01*
X108674801Y-67800000D01*
X109036729Y-67438072D01*
X110400000Y-67438072D01*
X110524482Y-67425812D01*
X110644180Y-67389502D01*
X110754494Y-67330537D01*
X110851185Y-67251185D01*
X110930537Y-67154494D01*
X110989502Y-67044180D01*
X111025812Y-66924482D01*
X111038072Y-66800000D01*
X111038072Y-65000000D01*
X111025812Y-64875518D01*
X110989502Y-64755820D01*
X110930537Y-64645506D01*
X110851185Y-64548815D01*
X110754494Y-64469463D01*
X110644180Y-64410498D01*
X110625873Y-64404944D01*
X110692312Y-64338505D01*
X110860299Y-64087095D01*
X110976011Y-63807743D01*
X111035000Y-63511184D01*
X111035000Y-63208816D01*
X110976011Y-62912257D01*
X110860299Y-62632905D01*
X110692312Y-62381495D01*
X110478505Y-62167688D01*
X110362237Y-62090000D01*
X110478505Y-62012312D01*
X110692312Y-61798505D01*
X110860299Y-61547095D01*
X110976011Y-61267743D01*
X111035000Y-60971184D01*
X111035000Y-60668816D01*
X110976011Y-60372257D01*
X110860299Y-60092905D01*
X110692312Y-59841495D01*
X110478505Y-59627688D01*
X110362237Y-59550000D01*
X110478505Y-59472312D01*
X110692312Y-59258505D01*
X110860299Y-59007095D01*
X110976011Y-58727743D01*
X111035000Y-58431184D01*
X111035000Y-58128816D01*
X110976011Y-57832257D01*
X110860299Y-57552905D01*
X110692312Y-57301495D01*
X110478505Y-57087688D01*
X110362237Y-57010000D01*
X110478505Y-56932312D01*
X110692312Y-56718505D01*
X110860299Y-56467095D01*
X110976011Y-56187743D01*
X111035000Y-55891184D01*
X111035000Y-55588816D01*
X110976011Y-55292257D01*
X110860299Y-55012905D01*
X110692312Y-54761495D01*
X110478505Y-54547688D01*
X110362237Y-54470000D01*
X110478505Y-54392312D01*
X110692312Y-54178505D01*
X110860299Y-53927095D01*
X110976011Y-53647743D01*
X111035000Y-53351184D01*
X111035000Y-53048816D01*
X110976011Y-52752257D01*
X110860299Y-52472905D01*
X110692312Y-52221495D01*
X110478505Y-52007688D01*
X110362237Y-51930000D01*
X110478505Y-51852312D01*
X110692312Y-51638505D01*
X110860299Y-51387095D01*
X110976011Y-51107743D01*
X111035000Y-50811184D01*
X111035000Y-50508816D01*
X110976011Y-50212257D01*
X110860299Y-49932905D01*
X110692312Y-49681495D01*
X110478505Y-49467688D01*
X110362237Y-49390000D01*
X110478505Y-49312312D01*
X110692312Y-49098505D01*
X110860299Y-48847095D01*
X110976011Y-48567743D01*
X111035000Y-48271184D01*
X111035000Y-47968816D01*
X110976011Y-47672257D01*
X110860299Y-47392905D01*
X110692312Y-47141495D01*
X110478505Y-46927688D01*
X110362237Y-46850000D01*
X110478505Y-46772312D01*
X110692312Y-46558505D01*
X110860299Y-46307095D01*
X110976011Y-46027743D01*
X111035000Y-45731184D01*
X111035000Y-45428816D01*
X110976011Y-45132257D01*
X110860299Y-44852905D01*
X110692312Y-44601495D01*
X110478505Y-44387688D01*
X110362237Y-44310000D01*
X110478505Y-44232312D01*
X110692312Y-44018505D01*
X110860299Y-43767095D01*
X110976011Y-43487743D01*
X111035000Y-43191184D01*
X111035000Y-42888816D01*
X110976011Y-42592257D01*
X110860299Y-42312905D01*
X110692312Y-42061495D01*
X110478505Y-41847688D01*
X110227095Y-41679701D01*
X109947743Y-41563989D01*
X109651184Y-41505000D01*
X109348816Y-41505000D01*
X109052257Y-41563989D01*
X108772905Y-41679701D01*
X108521495Y-41847688D01*
X108307688Y-42061495D01*
X108139701Y-42312905D01*
X108023989Y-42592257D01*
X107965000Y-42888816D01*
X107965000Y-43191184D01*
X108016269Y-43448930D01*
X107925199Y-43540000D01*
X103754365Y-43540000D01*
X103776011Y-43487743D01*
X103835000Y-43191184D01*
X103835000Y-42888816D01*
X103776011Y-42592257D01*
X103660299Y-42312905D01*
X103492312Y-42061495D01*
X103278505Y-41847688D01*
X103027095Y-41679701D01*
X102747743Y-41563989D01*
X102451184Y-41505000D01*
X102148816Y-41505000D01*
X101852257Y-41563989D01*
X101674240Y-41637727D01*
X101660000Y-41636324D01*
X101622678Y-41640000D01*
X92537325Y-41640000D01*
X92500000Y-41636324D01*
X92462675Y-41640000D01*
X92462667Y-41640000D01*
X92351014Y-41650997D01*
X92207753Y-41694454D01*
X92075724Y-41765026D01*
X91984368Y-41840000D01*
X91737322Y-41840000D01*
X91699999Y-41836324D01*
X91662676Y-41840000D01*
X91662667Y-41840000D01*
X91551014Y-41850997D01*
X91407753Y-41894454D01*
X91275724Y-41965026D01*
X91275722Y-41965027D01*
X91275723Y-41965027D01*
X91188996Y-42036201D01*
X91188992Y-42036205D01*
X91159999Y-42059999D01*
X91136205Y-42088992D01*
X90926407Y-42298790D01*
X90706260Y-42255000D01*
X90413740Y-42255000D01*
X90126842Y-42312068D01*
X89856589Y-42424010D01*
X89613368Y-42586525D01*
X89406525Y-42793368D01*
X89244010Y-43036589D01*
X89132068Y-43306842D01*
X89075000Y-43593740D01*
X88960000Y-43593740D01*
X88960000Y-38672032D01*
X89820000Y-38672032D01*
X89820000Y-39067968D01*
X89897243Y-39456296D01*
X90048761Y-39822092D01*
X90268731Y-40151301D01*
X90548699Y-40431269D01*
X90877908Y-40651239D01*
X91243704Y-40802757D01*
X91632032Y-40880000D01*
X92027968Y-40880000D01*
X92416296Y-40802757D01*
X92782092Y-40651239D01*
X93111301Y-40431269D01*
X93391269Y-40151301D01*
X93611239Y-39822092D01*
X93762757Y-39456296D01*
X93840000Y-39067968D01*
X93840000Y-38672032D01*
X112820000Y-38672032D01*
X112820000Y-39067968D01*
X112897243Y-39456296D01*
X113048761Y-39822092D01*
X113268731Y-40151301D01*
X113548699Y-40431269D01*
X113877908Y-40651239D01*
X114243704Y-40802757D01*
X114632032Y-40880000D01*
X115027968Y-40880000D01*
X115416296Y-40802757D01*
X115782092Y-40651239D01*
X116111301Y-40431269D01*
X116391269Y-40151301D01*
X116611239Y-39822092D01*
X116762757Y-39456296D01*
X116840000Y-39067968D01*
X116840000Y-38672032D01*
X116762757Y-38283704D01*
X116611239Y-37917908D01*
X116391269Y-37588699D01*
X116111301Y-37308731D01*
X115782092Y-37088761D01*
X115416296Y-36937243D01*
X115027968Y-36860000D01*
X114632032Y-36860000D01*
X114243704Y-36937243D01*
X113877908Y-37088761D01*
X113548699Y-37308731D01*
X113268731Y-37588699D01*
X113048761Y-37917908D01*
X112897243Y-38283704D01*
X112820000Y-38672032D01*
X93840000Y-38672032D01*
X93762757Y-38283704D01*
X93611239Y-37917908D01*
X93391269Y-37588699D01*
X93111301Y-37308731D01*
X92782092Y-37088761D01*
X92416296Y-36937243D01*
X92027968Y-36860000D01*
X91632032Y-36860000D01*
X91243704Y-36937243D01*
X90877908Y-37088761D01*
X90548699Y-37308731D01*
X90268731Y-37588699D01*
X90048761Y-37917908D01*
X89897243Y-38283704D01*
X89820000Y-38672032D01*
X88960000Y-38672032D01*
X88960000Y-38332279D01*
X89007670Y-37846107D01*
X89139489Y-37409502D01*
X89353600Y-37006815D01*
X89641848Y-36653388D01*
X89993261Y-36362673D01*
X90394439Y-36145758D01*
X90830113Y-36010894D01*
X91314344Y-35960000D01*
X115367721Y-35960000D01*
X115853893Y-36007670D01*
G37*
X115853893Y-36007670D02*
X116290498Y-36139489D01*
X116693185Y-36353600D01*
X117046612Y-36641848D01*
X117337327Y-36993261D01*
X117554242Y-37394439D01*
X117689106Y-37830113D01*
X117740001Y-38314353D01*
X117740000Y-97467722D01*
X117694235Y-97934468D01*
X117568056Y-98352391D01*
X117363105Y-98737849D01*
X117087193Y-99076149D01*
X116750820Y-99354421D01*
X116366809Y-99562055D01*
X115949775Y-99691149D01*
X115484985Y-99740000D01*
X91332279Y-99740000D01*
X90846106Y-99692330D01*
X90409503Y-99560512D01*
X90006814Y-99346399D01*
X89653387Y-99058150D01*
X89362673Y-98706739D01*
X89145760Y-98305564D01*
X89010894Y-97869886D01*
X88960000Y-97385664D01*
X88960000Y-96672032D01*
X89820000Y-96672032D01*
X89820000Y-97067968D01*
X89897243Y-97456296D01*
X90048761Y-97822092D01*
X90268731Y-98151301D01*
X90548699Y-98431269D01*
X90877908Y-98651239D01*
X91243704Y-98802757D01*
X91632032Y-98880000D01*
X92027968Y-98880000D01*
X92416296Y-98802757D01*
X92782092Y-98651239D01*
X93111301Y-98431269D01*
X93391269Y-98151301D01*
X93611239Y-97822092D01*
X93762757Y-97456296D01*
X93840000Y-97067968D01*
X93840000Y-96672032D01*
X112820000Y-96672032D01*
X112820000Y-97067968D01*
X112897243Y-97456296D01*
X113048761Y-97822092D01*
X113268731Y-98151301D01*
X113548699Y-98431269D01*
X113877908Y-98651239D01*
X114243704Y-98802757D01*
X114632032Y-98880000D01*
X115027968Y-98880000D01*
X115416296Y-98802757D01*
X115782092Y-98651239D01*
X116111301Y-98431269D01*
X116391269Y-98151301D01*
X116611239Y-97822092D01*
X116762757Y-97456296D01*
X116840000Y-97067968D01*
X116840000Y-96672032D01*
X116762757Y-96283704D01*
X116611239Y-95917908D01*
X116391269Y-95588699D01*
X116111301Y-95308731D01*
X115782092Y-95088761D01*
X115416296Y-94937243D01*
X115027968Y-94860000D01*
X114632032Y-94860000D01*
X114243704Y-94937243D01*
X113877908Y-95088761D01*
X113548699Y-95308731D01*
X113268731Y-95588699D01*
X113048761Y-95917908D01*
X112897243Y-96283704D01*
X112820000Y-96672032D01*
X93840000Y-96672032D01*
X93762757Y-96283704D01*
X93611239Y-95917908D01*
X93391269Y-95588699D01*
X93111301Y-95308731D01*
X92782092Y-95088761D01*
X92416296Y-94937243D01*
X92027968Y-94860000D01*
X91632032Y-94860000D01*
X91243704Y-94937243D01*
X90877908Y-95088761D01*
X90548699Y-95308731D01*
X90268731Y-95588699D01*
X90048761Y-95917908D01*
X89897243Y-96283704D01*
X89820000Y-96672032D01*
X88960000Y-96672032D01*
X88960000Y-43593740D01*
X89075000Y-43593740D01*
X89075000Y-43886260D01*
X89132068Y-44173158D01*
X89244010Y-44443411D01*
X89406525Y-44686632D01*
X89613368Y-44893475D01*
X89787760Y-45010000D01*
X89613368Y-45126525D01*
X89406525Y-45333368D01*
X89244010Y-45576589D01*
X89132068Y-45846842D01*
X89075000Y-46133740D01*
X89075000Y-46426260D01*
X89132068Y-46713158D01*
X89244010Y-46983411D01*
X89406525Y-47226632D01*
X89613368Y-47433475D01*
X89787760Y-47550000D01*
X89613368Y-47666525D01*
X89406525Y-47873368D01*
X89244010Y-48116589D01*
X89132068Y-48386842D01*
X89075000Y-48673740D01*
X89075000Y-48966260D01*
X89132068Y-49253158D01*
X89244010Y-49523411D01*
X89406525Y-49766632D01*
X89613368Y-49973475D01*
X89787760Y-50090000D01*
X89613368Y-50206525D01*
X89406525Y-50413368D01*
X89244010Y-50656589D01*
X89132068Y-50926842D01*
X89075000Y-51213740D01*
X89075000Y-51506260D01*
X89132068Y-51793158D01*
X89244010Y-52063411D01*
X89406525Y-52306632D01*
X89613368Y-52513475D01*
X89787760Y-52630000D01*
X89613368Y-52746525D01*
X89406525Y-52953368D01*
X89244010Y-53196589D01*
X89132068Y-53466842D01*
X89075000Y-53753740D01*
X89075000Y-54046260D01*
X89132068Y-54333158D01*
X89244010Y-54603411D01*
X89406525Y-54846632D01*
X89613368Y-55053475D01*
X89787760Y-55170000D01*
X89613368Y-55286525D01*
X89406525Y-55493368D01*
X89244010Y-55736589D01*
X89132068Y-56006842D01*
X89075000Y-56293740D01*
X89075000Y-56586260D01*
X89132068Y-56873158D01*
X89244010Y-57143411D01*
X89406525Y-57386632D01*
X89613368Y-57593475D01*
X89787760Y-57710000D01*
X89613368Y-57826525D01*
X89406525Y-58033368D01*
X89244010Y-58276589D01*
X89132068Y-58546842D01*
X89075000Y-58833740D01*
X89075000Y-59126260D01*
X89132068Y-59413158D01*
X89244010Y-59683411D01*
X89406525Y-59926632D01*
X89613368Y-60133475D01*
X89787760Y-60250000D01*
X89613368Y-60366525D01*
X89406525Y-60573368D01*
X89244010Y-60816589D01*
X89132068Y-61086842D01*
X89075000Y-61373740D01*
X89075000Y-61666260D01*
X89132068Y-61953158D01*
X89244010Y-62223411D01*
X89406525Y-62466632D01*
X89613368Y-62673475D01*
X89787760Y-62790000D01*
X89613368Y-62906525D01*
X89406525Y-63113368D01*
X89244010Y-63356589D01*
X89132068Y-63626842D01*
X89075000Y-63913740D01*
X89075000Y-64206260D01*
X89132068Y-64493158D01*
X89244010Y-64763411D01*
X89406525Y-65006632D01*
X89613368Y-65213475D01*
X89787760Y-65330000D01*
X89613368Y-65446525D01*
X89406525Y-65653368D01*
X89244010Y-65896589D01*
X89132068Y-66166842D01*
X89075000Y-66453740D01*
X89075000Y-66746260D01*
X89132068Y-67033158D01*
X89244010Y-67303411D01*
X89406525Y-67546632D01*
X89613368Y-67753475D01*
X89787760Y-67870000D01*
X89613368Y-67986525D01*
X89406525Y-68193368D01*
X89244010Y-68436589D01*
X89132068Y-68706842D01*
X89075000Y-68993740D01*
X89075000Y-69286260D01*
X89132068Y-69573158D01*
X89244010Y-69843411D01*
X89406525Y-70086632D01*
X89613368Y-70293475D01*
X89787760Y-70410000D01*
X89613368Y-70526525D01*
X89406525Y-70733368D01*
X89244010Y-70976589D01*
X89132068Y-71246842D01*
X89075000Y-71533740D01*
X89075000Y-71826260D01*
X89132068Y-72113158D01*
X89244010Y-72383411D01*
X89406525Y-72626632D01*
X89613368Y-72833475D01*
X89787760Y-72950000D01*
X89613368Y-73066525D01*
X89406525Y-73273368D01*
X89244010Y-73516589D01*
X89132068Y-73786842D01*
X89075000Y-74073740D01*
X89075000Y-74366260D01*
X89132068Y-74653158D01*
X89244010Y-74923411D01*
X89406525Y-75166632D01*
X89613368Y-75373475D01*
X89787760Y-75490000D01*
X89613368Y-75606525D01*
X89406525Y-75813368D01*
X89244010Y-76056589D01*
X89132068Y-76326842D01*
X89075000Y-76613740D01*
X89075000Y-76906260D01*
X89132068Y-77193158D01*
X89244010Y-77463411D01*
X89406525Y-77706632D01*
X89613368Y-77913475D01*
X89787760Y-78030000D01*
X89613368Y-78146525D01*
X89406525Y-78353368D01*
X89244010Y-78596589D01*
X89132068Y-78866842D01*
X89075000Y-79153740D01*
X89075000Y-79446260D01*
X89132068Y-79733158D01*
X89244010Y-80003411D01*
X89406525Y-80246632D01*
X89613368Y-80453475D01*
X89787760Y-80570000D01*
X89613368Y-80686525D01*
X89406525Y-80893368D01*
X89244010Y-81136589D01*
X89132068Y-81406842D01*
X89075000Y-81693740D01*
X89075000Y-81986260D01*
X89132068Y-82273158D01*
X89244010Y-82543411D01*
X89406525Y-82786632D01*
X89613368Y-82993475D01*
X89787760Y-83110000D01*
X89613368Y-83226525D01*
X89406525Y-83433368D01*
X89244010Y-83676589D01*
X89132068Y-83946842D01*
X89075000Y-84233740D01*
X89075000Y-84526260D01*
X89132068Y-84813158D01*
X89244010Y-85083411D01*
X89406525Y-85326632D01*
X89613368Y-85533475D01*
X89787760Y-85650000D01*
X89613368Y-85766525D01*
X89406525Y-85973368D01*
X89244010Y-86216589D01*
X89132068Y-86486842D01*
X89075000Y-86773740D01*
X89075000Y-87066260D01*
X89132068Y-87353158D01*
X89244010Y-87623411D01*
X89406525Y-87866632D01*
X89613368Y-88073475D01*
X89787760Y-88190000D01*
X89613368Y-88306525D01*
X89406525Y-88513368D01*
X89244010Y-88756589D01*
X89132068Y-89026842D01*
X89075000Y-89313740D01*
X89075000Y-89606260D01*
X89132068Y-89893158D01*
X89244010Y-90163411D01*
X89406525Y-90406632D01*
X89613368Y-90613475D01*
X89787760Y-90730000D01*
X89613368Y-90846525D01*
X89406525Y-91053368D01*
X89244010Y-91296589D01*
X89132068Y-91566842D01*
X89075000Y-91853740D01*
X89075000Y-92146260D01*
X89132068Y-92433158D01*
X89244010Y-92703411D01*
X89406525Y-92946632D01*
X89613368Y-93153475D01*
X89856589Y-93315990D01*
X90126842Y-93427932D01*
X90413740Y-93485000D01*
X90706260Y-93485000D01*
X90926408Y-93441210D01*
X91171202Y-93686004D01*
X91195000Y-93715002D01*
X91310725Y-93809975D01*
X91442754Y-93880547D01*
X91586015Y-93924004D01*
X91697668Y-93935001D01*
X91697677Y-93935001D01*
X91735000Y-93938677D01*
X91772323Y-93935001D01*
X100977835Y-93935001D01*
X101045506Y-93990537D01*
X101155820Y-94049502D01*
X101275518Y-94085812D01*
X101400000Y-94098072D01*
X103200000Y-94098072D01*
X103324482Y-94085812D01*
X103444180Y-94049502D01*
X103554494Y-93990537D01*
X103651185Y-93911185D01*
X103730537Y-93814494D01*
X103789502Y-93704180D01*
X103825812Y-93584482D01*
X103838072Y-93460000D01*
X103838072Y-92094999D01*
X107960198Y-92094999D01*
X107961928Y-92096729D01*
X107961928Y-93460000D01*
X107974188Y-93584482D01*
X108010498Y-93704180D01*
X108069463Y-93814494D01*
X108148815Y-93911185D01*
X108245506Y-93990537D01*
X108355820Y-94049502D01*
X108475518Y-94085812D01*
X108600000Y-94098072D01*
X110400000Y-94098072D01*
X110524482Y-94085812D01*
X110644180Y-94049502D01*
X110754494Y-93990537D01*
X110851185Y-93911185D01*
X110930537Y-93814494D01*
X110989502Y-93704180D01*
X111025812Y-93584482D01*
X111038072Y-93460000D01*
X111038072Y-91660000D01*
X111025812Y-91535518D01*
X110989502Y-91415820D01*
X110930537Y-91305506D01*
X110851185Y-91208815D01*
X110754494Y-91129463D01*
X110644180Y-91070498D01*
X110625873Y-91064944D01*
X110692312Y-90998505D01*
X110860299Y-90747095D01*
X110976011Y-90467743D01*
X111035000Y-90171184D01*
X111035000Y-89868816D01*
X110976011Y-89572257D01*
X110860299Y-89292905D01*
X110692312Y-89041495D01*
X110478505Y-88827688D01*
X110362237Y-88750000D01*
X110478505Y-88672312D01*
X110692312Y-88458505D01*
X110860299Y-88207095D01*
X110976011Y-87927743D01*
X111035000Y-87631184D01*
X111035000Y-87328816D01*
X110976011Y-87032257D01*
X110860299Y-86752905D01*
X110692312Y-86501495D01*
X110478505Y-86287688D01*
X110362237Y-86210000D01*
X110478505Y-86132312D01*
X110692312Y-85918505D01*
X110860299Y-85667095D01*
X110976011Y-85387743D01*
X111035000Y-85091184D01*
X111035000Y-84788816D01*
X110976011Y-84492257D01*
X110860299Y-84212905D01*
X110692312Y-83961495D01*
X110478505Y-83747688D01*
X110362237Y-83670000D01*
X110478505Y-83592312D01*
X110692312Y-83378505D01*
X110860299Y-83127095D01*
X110976011Y-82847743D01*
X111035000Y-82551184D01*
X111035000Y-82248816D01*
X110976011Y-81952257D01*
X110860299Y-81672905D01*
X110692312Y-81421495D01*
X110478505Y-81207688D01*
X110362237Y-81130000D01*
X110478505Y-81052312D01*
X110692312Y-80838505D01*
X110860299Y-80587095D01*
X110976011Y-80307743D01*
X111035000Y-80011184D01*
X111035000Y-79708816D01*
X110976011Y-79412257D01*
X110860299Y-79132905D01*
X110692312Y-78881495D01*
X110478505Y-78667688D01*
X110362237Y-78590000D01*
X110478505Y-78512312D01*
X110692312Y-78298505D01*
X110860299Y-78047095D01*
X110976011Y-77767743D01*
X111035000Y-77471184D01*
X111035000Y-77168816D01*
X110976011Y-76872257D01*
X110860299Y-76592905D01*
X110692312Y-76341495D01*
X110478505Y-76127688D01*
X110362237Y-76050000D01*
X110478505Y-75972312D01*
X110692312Y-75758505D01*
X110860299Y-75507095D01*
X110976011Y-75227743D01*
X111035000Y-74931184D01*
X111035000Y-74628816D01*
X110976011Y-74332257D01*
X110860299Y-74052905D01*
X110692312Y-73801495D01*
X110478505Y-73587688D01*
X110362237Y-73510000D01*
X110478505Y-73432312D01*
X110692312Y-73218505D01*
X110860299Y-72967095D01*
X110976011Y-72687743D01*
X111035000Y-72391184D01*
X111035000Y-72088816D01*
X110976011Y-71792257D01*
X110860299Y-71512905D01*
X110692312Y-71261495D01*
X110478505Y-71047688D01*
X110362237Y-70970000D01*
X110478505Y-70892312D01*
X110692312Y-70678505D01*
X110860299Y-70427095D01*
X110976011Y-70147743D01*
X111035000Y-69851184D01*
X111035000Y-69548816D01*
X110976011Y-69252257D01*
X110860299Y-68972905D01*
X110692312Y-68721495D01*
X110478505Y-68507688D01*
X110227095Y-68339701D01*
X109947743Y-68223989D01*
X109651184Y-68165000D01*
X109348816Y-68165000D01*
X109091070Y-68216269D01*
X108674801Y-67800000D01*
X109036729Y-67438072D01*
X110400000Y-67438072D01*
X110524482Y-67425812D01*
X110644180Y-67389502D01*
X110754494Y-67330537D01*
X110851185Y-67251185D01*
X110930537Y-67154494D01*
X110989502Y-67044180D01*
X111025812Y-66924482D01*
X111038072Y-66800000D01*
X111038072Y-65000000D01*
X111025812Y-64875518D01*
X110989502Y-64755820D01*
X110930537Y-64645506D01*
X110851185Y-64548815D01*
X110754494Y-64469463D01*
X110644180Y-64410498D01*
X110625873Y-64404944D01*
X110692312Y-64338505D01*
X110860299Y-64087095D01*
X110976011Y-63807743D01*
X111035000Y-63511184D01*
X111035000Y-63208816D01*
X110976011Y-62912257D01*
X110860299Y-62632905D01*
X110692312Y-62381495D01*
X110478505Y-62167688D01*
X110362237Y-62090000D01*
X110478505Y-62012312D01*
X110692312Y-61798505D01*
X110860299Y-61547095D01*
X110976011Y-61267743D01*
X111035000Y-60971184D01*
X111035000Y-60668816D01*
X110976011Y-60372257D01*
X110860299Y-60092905D01*
X110692312Y-59841495D01*
X110478505Y-59627688D01*
X110362237Y-59550000D01*
X110478505Y-59472312D01*
X110692312Y-59258505D01*
X110860299Y-59007095D01*
X110976011Y-58727743D01*
X111035000Y-58431184D01*
X111035000Y-58128816D01*
X110976011Y-57832257D01*
X110860299Y-57552905D01*
X110692312Y-57301495D01*
X110478505Y-57087688D01*
X110362237Y-57010000D01*
X110478505Y-56932312D01*
X110692312Y-56718505D01*
X110860299Y-56467095D01*
X110976011Y-56187743D01*
X111035000Y-55891184D01*
X111035000Y-55588816D01*
X110976011Y-55292257D01*
X110860299Y-55012905D01*
X110692312Y-54761495D01*
X110478505Y-54547688D01*
X110362237Y-54470000D01*
X110478505Y-54392312D01*
X110692312Y-54178505D01*
X110860299Y-53927095D01*
X110976011Y-53647743D01*
X111035000Y-53351184D01*
X111035000Y-53048816D01*
X110976011Y-52752257D01*
X110860299Y-52472905D01*
X110692312Y-52221495D01*
X110478505Y-52007688D01*
X110362237Y-51930000D01*
X110478505Y-51852312D01*
X110692312Y-51638505D01*
X110860299Y-51387095D01*
X110976011Y-51107743D01*
X111035000Y-50811184D01*
X111035000Y-50508816D01*
X110976011Y-50212257D01*
X110860299Y-49932905D01*
X110692312Y-49681495D01*
X110478505Y-49467688D01*
X110362237Y-49390000D01*
X110478505Y-49312312D01*
X110692312Y-49098505D01*
X110860299Y-48847095D01*
X110976011Y-48567743D01*
X111035000Y-48271184D01*
X111035000Y-47968816D01*
X110976011Y-47672257D01*
X110860299Y-47392905D01*
X110692312Y-47141495D01*
X110478505Y-46927688D01*
X110362237Y-46850000D01*
X110478505Y-46772312D01*
X110692312Y-46558505D01*
X110860299Y-46307095D01*
X110976011Y-46027743D01*
X111035000Y-45731184D01*
X111035000Y-45428816D01*
X110976011Y-45132257D01*
X110860299Y-44852905D01*
X110692312Y-44601495D01*
X110478505Y-44387688D01*
X110362237Y-44310000D01*
X110478505Y-44232312D01*
X110692312Y-44018505D01*
X110860299Y-43767095D01*
X110976011Y-43487743D01*
X111035000Y-43191184D01*
X111035000Y-42888816D01*
X110976011Y-42592257D01*
X110860299Y-42312905D01*
X110692312Y-42061495D01*
X110478505Y-41847688D01*
X110227095Y-41679701D01*
X109947743Y-41563989D01*
X109651184Y-41505000D01*
X109348816Y-41505000D01*
X109052257Y-41563989D01*
X108772905Y-41679701D01*
X108521495Y-41847688D01*
X108307688Y-42061495D01*
X108139701Y-42312905D01*
X108023989Y-42592257D01*
X107965000Y-42888816D01*
X107965000Y-43191184D01*
X108016269Y-43448930D01*
X107925199Y-43540000D01*
X103754365Y-43540000D01*
X103776011Y-43487743D01*
X103835000Y-43191184D01*
X103835000Y-42888816D01*
X103776011Y-42592257D01*
X103660299Y-42312905D01*
X103492312Y-42061495D01*
X103278505Y-41847688D01*
X103027095Y-41679701D01*
X102747743Y-41563989D01*
X102451184Y-41505000D01*
X102148816Y-41505000D01*
X101852257Y-41563989D01*
X101674240Y-41637727D01*
X101660000Y-41636324D01*
X101622678Y-41640000D01*
X92537325Y-41640000D01*
X92500000Y-41636324D01*
X92462675Y-41640000D01*
X92462667Y-41640000D01*
X92351014Y-41650997D01*
X92207753Y-41694454D01*
X92075724Y-41765026D01*
X91984368Y-41840000D01*
X91737322Y-41840000D01*
X91699999Y-41836324D01*
X91662676Y-41840000D01*
X91662667Y-41840000D01*
X91551014Y-41850997D01*
X91407753Y-41894454D01*
X91275724Y-41965026D01*
X91275722Y-41965027D01*
X91275723Y-41965027D01*
X91188996Y-42036201D01*
X91188992Y-42036205D01*
X91159999Y-42059999D01*
X91136205Y-42088992D01*
X90926407Y-42298790D01*
X90706260Y-42255000D01*
X90413740Y-42255000D01*
X90126842Y-42312068D01*
X89856589Y-42424010D01*
X89613368Y-42586525D01*
X89406525Y-42793368D01*
X89244010Y-43036589D01*
X89132068Y-43306842D01*
X89075000Y-43593740D01*
X88960000Y-43593740D01*
X88960000Y-38672032D01*
X89820000Y-38672032D01*
X89820000Y-39067968D01*
X89897243Y-39456296D01*
X90048761Y-39822092D01*
X90268731Y-40151301D01*
X90548699Y-40431269D01*
X90877908Y-40651239D01*
X91243704Y-40802757D01*
X91632032Y-40880000D01*
X92027968Y-40880000D01*
X92416296Y-40802757D01*
X92782092Y-40651239D01*
X93111301Y-40431269D01*
X93391269Y-40151301D01*
X93611239Y-39822092D01*
X93762757Y-39456296D01*
X93840000Y-39067968D01*
X93840000Y-38672032D01*
X112820000Y-38672032D01*
X112820000Y-39067968D01*
X112897243Y-39456296D01*
X113048761Y-39822092D01*
X113268731Y-40151301D01*
X113548699Y-40431269D01*
X113877908Y-40651239D01*
X114243704Y-40802757D01*
X114632032Y-40880000D01*
X115027968Y-40880000D01*
X115416296Y-40802757D01*
X115782092Y-40651239D01*
X116111301Y-40431269D01*
X116391269Y-40151301D01*
X116611239Y-39822092D01*
X116762757Y-39456296D01*
X116840000Y-39067968D01*
X116840000Y-38672032D01*
X116762757Y-38283704D01*
X116611239Y-37917908D01*
X116391269Y-37588699D01*
X116111301Y-37308731D01*
X115782092Y-37088761D01*
X115416296Y-36937243D01*
X115027968Y-36860000D01*
X114632032Y-36860000D01*
X114243704Y-36937243D01*
X113877908Y-37088761D01*
X113548699Y-37308731D01*
X113268731Y-37588699D01*
X113048761Y-37917908D01*
X112897243Y-38283704D01*
X112820000Y-38672032D01*
X93840000Y-38672032D01*
X93762757Y-38283704D01*
X93611239Y-37917908D01*
X93391269Y-37588699D01*
X93111301Y-37308731D01*
X92782092Y-37088761D01*
X92416296Y-36937243D01*
X92027968Y-36860000D01*
X91632032Y-36860000D01*
X91243704Y-36937243D01*
X90877908Y-37088761D01*
X90548699Y-37308731D01*
X90268731Y-37588699D01*
X90048761Y-37917908D01*
X89897243Y-38283704D01*
X89820000Y-38672032D01*
X88960000Y-38672032D01*
X88960000Y-38332279D01*
X89007670Y-37846107D01*
X89139489Y-37409502D01*
X89353600Y-37006815D01*
X89641848Y-36653388D01*
X89993261Y-36362673D01*
X90394439Y-36145758D01*
X90830113Y-36010894D01*
X91314344Y-35960000D01*
X115367721Y-35960000D01*
X115853893Y-36007670D01*
G36*
X100761928Y-92415001D02*
G01*
X94588072Y-92415001D01*
X94588072Y-92094999D01*
X100761928Y-92094999D01*
X100761928Y-92415001D01*
G37*
X100761928Y-92415001D02*
X94588072Y-92415001D01*
X94588072Y-92094999D01*
X100761928Y-92094999D01*
X100761928Y-92415001D01*
G36*
X108016269Y-89611070D02*
G01*
X107965000Y-89868816D01*
X107965000Y-90171184D01*
X108023989Y-90467743D01*
X108068416Y-90574999D01*
X103731584Y-90574999D01*
X103776011Y-90467743D01*
X103835000Y-90171184D01*
X103835000Y-89868816D01*
X103776011Y-89572257D01*
X103768862Y-89554999D01*
X107960198Y-89554999D01*
X108016269Y-89611070D01*
G37*
X108016269Y-89611070D02*
X107965000Y-89868816D01*
X107965000Y-90171184D01*
X108023989Y-90467743D01*
X108068416Y-90574999D01*
X103731584Y-90574999D01*
X103776011Y-90467743D01*
X103835000Y-90171184D01*
X103835000Y-89868816D01*
X103776011Y-89572257D01*
X103768862Y-89554999D01*
X107960198Y-89554999D01*
X108016269Y-89611070D01*
G36*
X100823989Y-89572257D02*
G01*
X100765000Y-89868816D01*
X100765000Y-89875001D01*
X94531544Y-89875001D01*
X94585000Y-89606260D01*
X94585000Y-89554999D01*
X100831138Y-89554999D01*
X100823989Y-89572257D01*
G37*
X100823989Y-89572257D02*
X100765000Y-89868816D01*
X100765000Y-89875001D01*
X94531544Y-89875001D01*
X94585000Y-89606260D01*
X94585000Y-89554999D01*
X100831138Y-89554999D01*
X100823989Y-89572257D01*
G36*
X108016269Y-87071070D02*
G01*
X107965000Y-87328816D01*
X107965000Y-87631184D01*
X108023989Y-87927743D01*
X108068416Y-88034999D01*
X103731584Y-88034999D01*
X103776011Y-87927743D01*
X103835000Y-87631184D01*
X103835000Y-87328816D01*
X103776011Y-87032257D01*
X103768862Y-87014999D01*
X107960198Y-87014999D01*
X108016269Y-87071070D01*
G37*
X108016269Y-87071070D02*
X107965000Y-87328816D01*
X107965000Y-87631184D01*
X108023989Y-87927743D01*
X108068416Y-88034999D01*
X103731584Y-88034999D01*
X103776011Y-87927743D01*
X103835000Y-87631184D01*
X103835000Y-87328816D01*
X103776011Y-87032257D01*
X103768862Y-87014999D01*
X107960198Y-87014999D01*
X108016269Y-87071070D01*
G36*
X100823989Y-87032257D02*
G01*
X100765000Y-87328816D01*
X100765000Y-87335001D01*
X94531544Y-87335001D01*
X94585000Y-87066260D01*
X94585000Y-87014999D01*
X100831138Y-87014999D01*
X100823989Y-87032257D01*
G37*
X100823989Y-87032257D02*
X100765000Y-87328816D01*
X100765000Y-87335001D01*
X94531544Y-87335001D01*
X94585000Y-87066260D01*
X94585000Y-87014999D01*
X100831138Y-87014999D01*
X100823989Y-87032257D01*
G36*
X108016269Y-84531070D02*
G01*
X107965000Y-84788816D01*
X107965000Y-85091184D01*
X108023989Y-85387743D01*
X108068416Y-85494999D01*
X103731584Y-85494999D01*
X103776011Y-85387743D01*
X103835000Y-85091184D01*
X103835000Y-84788816D01*
X103776011Y-84492257D01*
X103768862Y-84474999D01*
X107960198Y-84474999D01*
X108016269Y-84531070D01*
G37*
X108016269Y-84531070D02*
X107965000Y-84788816D01*
X107965000Y-85091184D01*
X108023989Y-85387743D01*
X108068416Y-85494999D01*
X103731584Y-85494999D01*
X103776011Y-85387743D01*
X103835000Y-85091184D01*
X103835000Y-84788816D01*
X103776011Y-84492257D01*
X103768862Y-84474999D01*
X107960198Y-84474999D01*
X108016269Y-84531070D01*
G36*
X100823989Y-84492257D02*
G01*
X100765000Y-84788816D01*
X100765000Y-84795001D01*
X94531544Y-84795001D01*
X94585000Y-84526260D01*
X94585000Y-84474999D01*
X100831138Y-84474999D01*
X100823989Y-84492257D01*
G37*
X100823989Y-84492257D02*
X100765000Y-84788816D01*
X100765000Y-84795001D01*
X94531544Y-84795001D01*
X94585000Y-84526260D01*
X94585000Y-84474999D01*
X100831138Y-84474999D01*
X100823989Y-84492257D01*
G36*
X108016269Y-81991070D02*
G01*
X107965000Y-82248816D01*
X107965000Y-82551184D01*
X108023989Y-82847743D01*
X108068416Y-82954999D01*
X103731584Y-82954999D01*
X103776011Y-82847743D01*
X103835000Y-82551184D01*
X103835000Y-82248816D01*
X103776011Y-81952257D01*
X103768862Y-81934999D01*
X107960198Y-81934999D01*
X108016269Y-81991070D01*
G37*
X108016269Y-81991070D02*
X107965000Y-82248816D01*
X107965000Y-82551184D01*
X108023989Y-82847743D01*
X108068416Y-82954999D01*
X103731584Y-82954999D01*
X103776011Y-82847743D01*
X103835000Y-82551184D01*
X103835000Y-82248816D01*
X103776011Y-81952257D01*
X103768862Y-81934999D01*
X107960198Y-81934999D01*
X108016269Y-81991070D01*
G36*
X100823989Y-81952257D02*
G01*
X100765000Y-82248816D01*
X100765000Y-82255001D01*
X94531544Y-82255001D01*
X94585000Y-81986260D01*
X94585000Y-81934999D01*
X100831138Y-81934999D01*
X100823989Y-81952257D01*
G37*
X100823989Y-81952257D02*
X100765000Y-82248816D01*
X100765000Y-82255001D01*
X94531544Y-82255001D01*
X94585000Y-81986260D01*
X94585000Y-81934999D01*
X100831138Y-81934999D01*
X100823989Y-81952257D01*
G36*
X108016269Y-79451070D02*
G01*
X107965000Y-79708816D01*
X107965000Y-80011184D01*
X108023989Y-80307743D01*
X108068416Y-80414999D01*
X103731584Y-80414999D01*
X103776011Y-80307743D01*
X103835000Y-80011184D01*
X103835000Y-79708816D01*
X103776011Y-79412257D01*
X103768862Y-79394999D01*
X107960198Y-79394999D01*
X108016269Y-79451070D01*
G37*
X108016269Y-79451070D02*
X107965000Y-79708816D01*
X107965000Y-80011184D01*
X108023989Y-80307743D01*
X108068416Y-80414999D01*
X103731584Y-80414999D01*
X103776011Y-80307743D01*
X103835000Y-80011184D01*
X103835000Y-79708816D01*
X103776011Y-79412257D01*
X103768862Y-79394999D01*
X107960198Y-79394999D01*
X108016269Y-79451070D01*
G36*
X100823989Y-79412257D02*
G01*
X100765000Y-79708816D01*
X100765000Y-79715001D01*
X94531544Y-79715001D01*
X94585000Y-79446260D01*
X94585000Y-79394999D01*
X100831138Y-79394999D01*
X100823989Y-79412257D01*
G37*
X100823989Y-79412257D02*
X100765000Y-79708816D01*
X100765000Y-79715001D01*
X94531544Y-79715001D01*
X94585000Y-79446260D01*
X94585000Y-79394999D01*
X100831138Y-79394999D01*
X100823989Y-79412257D01*
G36*
X108016269Y-76911070D02*
G01*
X107965000Y-77168816D01*
X107965000Y-77471184D01*
X108023989Y-77767743D01*
X108068416Y-77874999D01*
X103731584Y-77874999D01*
X103776011Y-77767743D01*
X103835000Y-77471184D01*
X103835000Y-77168816D01*
X103776011Y-76872257D01*
X103768862Y-76854999D01*
X107960198Y-76854999D01*
X108016269Y-76911070D01*
G37*
X108016269Y-76911070D02*
X107965000Y-77168816D01*
X107965000Y-77471184D01*
X108023989Y-77767743D01*
X108068416Y-77874999D01*
X103731584Y-77874999D01*
X103776011Y-77767743D01*
X103835000Y-77471184D01*
X103835000Y-77168816D01*
X103776011Y-76872257D01*
X103768862Y-76854999D01*
X107960198Y-76854999D01*
X108016269Y-76911070D01*
G36*
X100823989Y-76872257D02*
G01*
X100765000Y-77168816D01*
X100765000Y-77175001D01*
X94531544Y-77175001D01*
X94585000Y-76906260D01*
X94585000Y-76854999D01*
X100831138Y-76854999D01*
X100823989Y-76872257D01*
G37*
X100823989Y-76872257D02*
X100765000Y-77168816D01*
X100765000Y-77175001D01*
X94531544Y-77175001D01*
X94585000Y-76906260D01*
X94585000Y-76854999D01*
X100831138Y-76854999D01*
X100823989Y-76872257D01*
G36*
X91919704Y-75853508D02*
G01*
X91830000Y-75987760D01*
X91713475Y-75813368D01*
X91506632Y-75606525D01*
X91332240Y-75490000D01*
X91466492Y-75400296D01*
X91919704Y-75853508D01*
G37*
X91919704Y-75853508D02*
X91830000Y-75987760D01*
X91713475Y-75813368D01*
X91506632Y-75606525D01*
X91332240Y-75490000D01*
X91466492Y-75400296D01*
X91919704Y-75853508D01*
G36*
X108016269Y-74371070D02*
G01*
X107965000Y-74628816D01*
X107965000Y-74931184D01*
X108023989Y-75227743D01*
X108068416Y-75334999D01*
X103731584Y-75334999D01*
X103776011Y-75227743D01*
X103835000Y-74931184D01*
X103835000Y-74628816D01*
X103776011Y-74332257D01*
X103768862Y-74314999D01*
X107960198Y-74314999D01*
X108016269Y-74371070D01*
G37*
X108016269Y-74371070D02*
X107965000Y-74628816D01*
X107965000Y-74931184D01*
X108023989Y-75227743D01*
X108068416Y-75334999D01*
X103731584Y-75334999D01*
X103776011Y-75227743D01*
X103835000Y-74931184D01*
X103835000Y-74628816D01*
X103776011Y-74332257D01*
X103768862Y-74314999D01*
X107960198Y-74314999D01*
X108016269Y-74371070D01*
G36*
X100823989Y-74332257D02*
G01*
X100765000Y-74628816D01*
X100765000Y-74635001D01*
X94531544Y-74635001D01*
X94585000Y-74366260D01*
X94585000Y-74314999D01*
X100831138Y-74314999D01*
X100823989Y-74332257D01*
G37*
X100823989Y-74332257D02*
X100765000Y-74628816D01*
X100765000Y-74635001D01*
X94531544Y-74635001D01*
X94585000Y-74366260D01*
X94585000Y-74314999D01*
X100831138Y-74314999D01*
X100823989Y-74332257D01*
G36*
X108016269Y-71831070D02*
G01*
X107965000Y-72088816D01*
X107965000Y-72391184D01*
X108023989Y-72687743D01*
X108068416Y-72794999D01*
X103731584Y-72794999D01*
X103776011Y-72687743D01*
X103835000Y-72391184D01*
X103835000Y-72088816D01*
X103776011Y-71792257D01*
X103768862Y-71774999D01*
X107960198Y-71774999D01*
X108016269Y-71831070D01*
G37*
X108016269Y-71831070D02*
X107965000Y-72088816D01*
X107965000Y-72391184D01*
X108023989Y-72687743D01*
X108068416Y-72794999D01*
X103731584Y-72794999D01*
X103776011Y-72687743D01*
X103835000Y-72391184D01*
X103835000Y-72088816D01*
X103776011Y-71792257D01*
X103768862Y-71774999D01*
X107960198Y-71774999D01*
X108016269Y-71831070D01*
G36*
X100823989Y-71792257D02*
G01*
X100765000Y-72088816D01*
X100765000Y-72095001D01*
X94531544Y-72095001D01*
X94585000Y-71826260D01*
X94585000Y-71774999D01*
X100831138Y-71774999D01*
X100823989Y-71792257D01*
G37*
X100823989Y-71792257D02*
X100765000Y-72088816D01*
X100765000Y-72095001D01*
X94531544Y-72095001D01*
X94585000Y-71826260D01*
X94585000Y-71774999D01*
X100831138Y-71774999D01*
X100823989Y-71792257D01*
G36*
X108016269Y-69291070D02*
G01*
X107965000Y-69548816D01*
X107965000Y-69851184D01*
X108023989Y-70147743D01*
X108068416Y-70254999D01*
X103731584Y-70254999D01*
X103776011Y-70147743D01*
X103835000Y-69851184D01*
X103835000Y-69548816D01*
X103776011Y-69252257D01*
X103692233Y-69050001D01*
X107775200Y-69050001D01*
X108016269Y-69291070D01*
G37*
X108016269Y-69291070D02*
X107965000Y-69548816D01*
X107965000Y-69851184D01*
X108023989Y-70147743D01*
X108068416Y-70254999D01*
X103731584Y-70254999D01*
X103776011Y-70147743D01*
X103835000Y-69851184D01*
X103835000Y-69548816D01*
X103776011Y-69252257D01*
X103692233Y-69050001D01*
X107775200Y-69050001D01*
X108016269Y-69291070D01*
G36*
X100823989Y-69252257D02*
G01*
X100765000Y-69548816D01*
X100765000Y-69555001D01*
X94531544Y-69555001D01*
X94585000Y-69286260D01*
X94585000Y-69050001D01*
X100907767Y-69050001D01*
X100823989Y-69252257D01*
G37*
X100823989Y-69252257D02*
X100765000Y-69548816D01*
X100765000Y-69555001D01*
X94531544Y-69555001D01*
X94585000Y-69286260D01*
X94585000Y-69050001D01*
X100907767Y-69050001D01*
X100823989Y-69252257D01*
G36*
X91946525Y-67546632D02*
G01*
X92153368Y-67753475D01*
X92327760Y-67870000D01*
X92153368Y-67986525D01*
X91946525Y-68193368D01*
X91830000Y-68367760D01*
X91713475Y-68193368D01*
X91506632Y-67986525D01*
X91332240Y-67870000D01*
X91506632Y-67753475D01*
X91713475Y-67546632D01*
X91830000Y-67372240D01*
X91946525Y-67546632D01*
G37*
X91946525Y-67546632D02*
X92153368Y-67753475D01*
X92327760Y-67870000D01*
X92153368Y-67986525D01*
X91946525Y-68193368D01*
X91830000Y-68367760D01*
X91713475Y-68193368D01*
X91506632Y-67986525D01*
X91332240Y-67870000D01*
X91506632Y-67753475D01*
X91713475Y-67546632D01*
X91830000Y-67372240D01*
X91946525Y-67546632D01*
G36*
X100761928Y-66689999D02*
G01*
X94585000Y-66689999D01*
X94585000Y-66453740D01*
X94531544Y-66184999D01*
X100761928Y-66184999D01*
X100761928Y-66689999D01*
G37*
X100761928Y-66689999D02*
X94585000Y-66689999D01*
X94585000Y-66453740D01*
X94531544Y-66184999D01*
X100761928Y-66184999D01*
X100761928Y-66689999D01*
G36*
X107961928Y-66363271D02*
G01*
X107635200Y-66689999D01*
X103838072Y-66689999D01*
X103838072Y-65345001D01*
X107961928Y-65345001D01*
X107961928Y-66363271D01*
G37*
X107961928Y-66363271D02*
X107635200Y-66689999D01*
X103838072Y-66689999D01*
X103838072Y-65345001D01*
X107961928Y-65345001D01*
X107961928Y-66363271D01*
G36*
X91919704Y-64966492D02*
G01*
X91466492Y-65419704D01*
X91332240Y-65330000D01*
X91506632Y-65213475D01*
X91713475Y-65006632D01*
X91830000Y-64832240D01*
X91919704Y-64966492D01*
G37*
X91919704Y-64966492D02*
X91466492Y-65419704D01*
X91332240Y-65330000D01*
X91506632Y-65213475D01*
X91713475Y-65006632D01*
X91830000Y-64832240D01*
X91919704Y-64966492D01*
G36*
X108023989Y-62912257D02*
G01*
X107965000Y-63208816D01*
X107965000Y-63511184D01*
X108016269Y-63768930D01*
X107960198Y-63825001D01*
X103768862Y-63825001D01*
X103776011Y-63807743D01*
X103835000Y-63511184D01*
X103835000Y-63208816D01*
X103776011Y-62912257D01*
X103731584Y-62805001D01*
X108068416Y-62805001D01*
X108023989Y-62912257D01*
G37*
X108023989Y-62912257D02*
X107965000Y-63208816D01*
X107965000Y-63511184D01*
X108016269Y-63768930D01*
X107960198Y-63825001D01*
X103768862Y-63825001D01*
X103776011Y-63807743D01*
X103835000Y-63511184D01*
X103835000Y-63208816D01*
X103776011Y-62912257D01*
X103731584Y-62805001D01*
X108068416Y-62805001D01*
X108023989Y-62912257D01*
G36*
X108023989Y-60372257D02*
G01*
X107965000Y-60668816D01*
X107965000Y-60971184D01*
X108016269Y-61228930D01*
X107960198Y-61285001D01*
X103768862Y-61285001D01*
X103776011Y-61267743D01*
X103835000Y-60971184D01*
X103835000Y-60668816D01*
X103776011Y-60372257D01*
X103731584Y-60265001D01*
X108068416Y-60265001D01*
X108023989Y-60372257D01*
G37*
X108023989Y-60372257D02*
X107965000Y-60668816D01*
X107965000Y-60971184D01*
X108016269Y-61228930D01*
X107960198Y-61285001D01*
X103768862Y-61285001D01*
X103776011Y-61267743D01*
X103835000Y-60971184D01*
X103835000Y-60668816D01*
X103776011Y-60372257D01*
X103731584Y-60265001D01*
X108068416Y-60265001D01*
X108023989Y-60372257D01*
G36*
X108023989Y-57832257D02*
G01*
X107965000Y-58128816D01*
X107965000Y-58431184D01*
X108016269Y-58688930D01*
X107960198Y-58745001D01*
X103768862Y-58745001D01*
X103776011Y-58727743D01*
X103835000Y-58431184D01*
X103835000Y-58128816D01*
X103776011Y-57832257D01*
X103731584Y-57725001D01*
X108068416Y-57725001D01*
X108023989Y-57832257D01*
G37*
X108023989Y-57832257D02*
X107965000Y-58128816D01*
X107965000Y-58431184D01*
X108016269Y-58688930D01*
X107960198Y-58745001D01*
X103768862Y-58745001D01*
X103776011Y-58727743D01*
X103835000Y-58431184D01*
X103835000Y-58128816D01*
X103776011Y-57832257D01*
X103731584Y-57725001D01*
X108068416Y-57725001D01*
X108023989Y-57832257D01*
G36*
X108023989Y-55292257D02*
G01*
X107965000Y-55588816D01*
X107965000Y-55891184D01*
X108016269Y-56148930D01*
X107960198Y-56205001D01*
X103768862Y-56205001D01*
X103776011Y-56187743D01*
X103835000Y-55891184D01*
X103835000Y-55588816D01*
X103776011Y-55292257D01*
X103731584Y-55185001D01*
X108068416Y-55185001D01*
X108023989Y-55292257D01*
G37*
X108023989Y-55292257D02*
X107965000Y-55588816D01*
X107965000Y-55891184D01*
X108016269Y-56148930D01*
X107960198Y-56205001D01*
X103768862Y-56205001D01*
X103776011Y-56187743D01*
X103835000Y-55891184D01*
X103835000Y-55588816D01*
X103776011Y-55292257D01*
X103731584Y-55185001D01*
X108068416Y-55185001D01*
X108023989Y-55292257D01*
G36*
X91919704Y-54806492D02*
G01*
X91466492Y-55259704D01*
X91332240Y-55170000D01*
X91506632Y-55053475D01*
X91713475Y-54846632D01*
X91830000Y-54672240D01*
X91919704Y-54806492D01*
G37*
X91919704Y-54806492D02*
X91466492Y-55259704D01*
X91332240Y-55170000D01*
X91506632Y-55053475D01*
X91713475Y-54846632D01*
X91830000Y-54672240D01*
X91919704Y-54806492D01*
G36*
X100823989Y-53647743D02*
G01*
X100831138Y-53665001D01*
X94567349Y-53665001D01*
X94531544Y-53484999D01*
X100791617Y-53484999D01*
X100823989Y-53647743D01*
G37*
X100823989Y-53647743D02*
X100831138Y-53665001D01*
X94567349Y-53665001D01*
X94531544Y-53484999D01*
X100791617Y-53484999D01*
X100823989Y-53647743D01*
G36*
X108023989Y-52752257D02*
G01*
X107965000Y-53048816D01*
X107965000Y-53351184D01*
X108016269Y-53608930D01*
X107960198Y-53665001D01*
X103768862Y-53665001D01*
X103776011Y-53647743D01*
X103835000Y-53351184D01*
X103835000Y-53048816D01*
X103776011Y-52752257D01*
X103768862Y-52734999D01*
X108031138Y-52734999D01*
X108023989Y-52752257D01*
G37*
X108023989Y-52752257D02*
X107965000Y-53048816D01*
X107965000Y-53351184D01*
X108016269Y-53608930D01*
X107960198Y-53665001D01*
X103768862Y-53665001D01*
X103776011Y-53647743D01*
X103835000Y-53351184D01*
X103835000Y-53048816D01*
X103776011Y-52752257D01*
X103768862Y-52734999D01*
X108031138Y-52734999D01*
X108023989Y-52752257D01*
G36*
X91919704Y-52266492D02*
G01*
X91466492Y-52719704D01*
X91332240Y-52630000D01*
X91506632Y-52513475D01*
X91713475Y-52306632D01*
X91830000Y-52132240D01*
X91919704Y-52266492D01*
G37*
X91919704Y-52266492D02*
X91466492Y-52719704D01*
X91332240Y-52630000D01*
X91506632Y-52513475D01*
X91713475Y-52306632D01*
X91830000Y-52132240D01*
X91919704Y-52266492D01*
G36*
X108023989Y-50212257D02*
G01*
X107965000Y-50508816D01*
X107965000Y-50811184D01*
X108016269Y-51068930D01*
X107870200Y-51214999D01*
X103731584Y-51214999D01*
X103776011Y-51107743D01*
X103835000Y-50811184D01*
X103835000Y-50508816D01*
X103776011Y-50212257D01*
X103731584Y-50105001D01*
X108068416Y-50105001D01*
X108023989Y-50212257D01*
G37*
X108023989Y-50212257D02*
X107965000Y-50508816D01*
X107965000Y-50811184D01*
X108016269Y-51068930D01*
X107870200Y-51214999D01*
X103731584Y-51214999D01*
X103776011Y-51107743D01*
X103835000Y-50811184D01*
X103835000Y-50508816D01*
X103776011Y-50212257D01*
X103731584Y-50105001D01*
X108068416Y-50105001D01*
X108023989Y-50212257D01*
G36*
X100823989Y-51107743D02*
G01*
X100868416Y-51214999D01*
X94585000Y-51214999D01*
X94585000Y-51213740D01*
X94531544Y-50944999D01*
X100791617Y-50944999D01*
X100823989Y-51107743D01*
G37*
X100823989Y-51107743D02*
X100868416Y-51214999D01*
X94585000Y-51214999D01*
X94585000Y-51213740D01*
X94531544Y-50944999D01*
X100791617Y-50944999D01*
X100823989Y-51107743D01*
G36*
X108023989Y-47672257D02*
G01*
X107965000Y-47968816D01*
X107965000Y-48271184D01*
X108016269Y-48528930D01*
X107960198Y-48585001D01*
X103768862Y-48585001D01*
X103776011Y-48567743D01*
X103835000Y-48271184D01*
X103835000Y-47968816D01*
X103776011Y-47672257D01*
X103768862Y-47654999D01*
X108031138Y-47654999D01*
X108023989Y-47672257D01*
G37*
X108023989Y-47672257D02*
X107965000Y-47968816D01*
X107965000Y-48271184D01*
X108016269Y-48528930D01*
X107960198Y-48585001D01*
X103768862Y-48585001D01*
X103776011Y-48567743D01*
X103835000Y-48271184D01*
X103835000Y-47968816D01*
X103776011Y-47672257D01*
X103768862Y-47654999D01*
X108031138Y-47654999D01*
X108023989Y-47672257D01*
G36*
X108023989Y-45132257D02*
G01*
X107965000Y-45428816D01*
X107965000Y-45731184D01*
X108016269Y-45988930D01*
X107870200Y-46134999D01*
X103731584Y-46134999D01*
X103776011Y-46027743D01*
X103835000Y-45731184D01*
X103835000Y-45428816D01*
X103776011Y-45132257D01*
X103746081Y-45060000D01*
X108053919Y-45060000D01*
X108023989Y-45132257D01*
G37*
X108023989Y-45132257D02*
X107965000Y-45428816D01*
X107965000Y-45731184D01*
X108016269Y-45988930D01*
X107870200Y-46134999D01*
X103731584Y-46134999D01*
X103776011Y-46027743D01*
X103835000Y-45731184D01*
X103835000Y-45428816D01*
X103776011Y-45132257D01*
X103746081Y-45060000D01*
X108053919Y-45060000D01*
X108023989Y-45132257D01*
G36*
X100823989Y-46027743D02*
G01*
X100868416Y-46134999D01*
X94585000Y-46134999D01*
X94585000Y-46133740D01*
X94531544Y-45864999D01*
X100791617Y-45864999D01*
X100823989Y-46027743D01*
G37*
X100823989Y-46027743D02*
X100868416Y-46134999D01*
X94585000Y-46134999D01*
X94585000Y-46133740D01*
X94531544Y-45864999D01*
X100791617Y-45864999D01*
X100823989Y-46027743D01*
M02*
