G04 #@! TF.GenerationSoftware,KiCad,Pcbnew,(5.1.6)-1*
G04 #@! TF.CreationDate,2020-11-02T00:41:24+04:00*
G04 #@! TF.ProjectId,RPi3-screw-terminal-shiel,52506933-2d73-4637-9265-772d7465726d,rev?*
G04 #@! TF.SameCoordinates,Original*
G04 #@! TF.FileFunction,Copper,L2,Bot*
G04 #@! TF.FilePolarity,Positive*
%FSLAX46Y46*%
G04 Gerber Fmt 4.6, Leading zero omitted, Abs format (unit mm)*
G04 Created by KiCad (PCBNEW (5.1.6)-1) date 2020-11-02 00:41:24*
%MOMM*%
%LPD*%
G01*
G04 APERTURE LIST*
G04 #@! TA.AperFunction,ComponentPad*
%ADD10C,1.800000*%
G04 #@! TD*
G04 #@! TA.AperFunction,ComponentPad*
%ADD11R,1.800000X1.800000*%
G04 #@! TD*
G04 #@! TA.AperFunction,ComponentPad*
%ADD12O,1.700000X1.700000*%
G04 #@! TD*
G04 #@! TA.AperFunction,ComponentPad*
%ADD13R,1.700000X1.700000*%
G04 #@! TD*
G04 APERTURE END LIST*
D10*
G04 #@! TO.P,J3,10*
G04 #@! TO.N,/39*
X109500000Y-43040000D03*
G04 #@! TO.P,J3,9*
G04 #@! TO.N,/37*
X109500000Y-45580000D03*
G04 #@! TO.P,J3,8*
G04 #@! TO.N,/35*
X109500000Y-48120000D03*
G04 #@! TO.P,J3,7*
G04 #@! TO.N,/33*
X109500000Y-50660000D03*
G04 #@! TO.P,J3,6*
G04 #@! TO.N,/31*
X109500000Y-53200000D03*
G04 #@! TO.P,J3,5*
G04 #@! TO.N,/29*
X109500000Y-55740000D03*
G04 #@! TO.P,J3,4*
G04 #@! TO.N,/27*
X109500000Y-58280000D03*
G04 #@! TO.P,J3,3*
G04 #@! TO.N,/25*
X109500000Y-60820000D03*
G04 #@! TO.P,J3,2*
G04 #@! TO.N,/23*
X109500000Y-63360000D03*
D11*
G04 #@! TO.P,J3,1*
G04 #@! TO.N,/21*
X109500000Y-65900000D03*
G04 #@! TD*
D10*
G04 #@! TO.P,J5,10*
G04 #@! TO.N,/40*
X102300000Y-43040000D03*
G04 #@! TO.P,J5,9*
G04 #@! TO.N,/38*
X102300000Y-45580000D03*
G04 #@! TO.P,J5,8*
G04 #@! TO.N,/36*
X102300000Y-48120000D03*
G04 #@! TO.P,J5,7*
G04 #@! TO.N,/34*
X102300000Y-50660000D03*
G04 #@! TO.P,J5,6*
G04 #@! TO.N,/32*
X102300000Y-53200000D03*
G04 #@! TO.P,J5,5*
G04 #@! TO.N,/30*
X102300000Y-55740000D03*
G04 #@! TO.P,J5,4*
G04 #@! TO.N,/28*
X102300000Y-58280000D03*
G04 #@! TO.P,J5,3*
G04 #@! TO.N,/26*
X102300000Y-60820000D03*
G04 #@! TO.P,J5,2*
G04 #@! TO.N,/24*
X102300000Y-63360000D03*
D11*
G04 #@! TO.P,J5,1*
G04 #@! TO.N,/22*
X102300000Y-65900000D03*
G04 #@! TD*
D10*
G04 #@! TO.P,J2,10*
G04 #@! TO.N,/19*
X109500000Y-69700000D03*
G04 #@! TO.P,J2,9*
G04 #@! TO.N,/17*
X109500000Y-72240000D03*
G04 #@! TO.P,J2,8*
G04 #@! TO.N,/15*
X109500000Y-74780000D03*
G04 #@! TO.P,J2,7*
G04 #@! TO.N,/13*
X109500000Y-77320000D03*
G04 #@! TO.P,J2,6*
G04 #@! TO.N,/11*
X109500000Y-79860000D03*
G04 #@! TO.P,J2,5*
G04 #@! TO.N,/9*
X109500000Y-82400000D03*
G04 #@! TO.P,J2,4*
G04 #@! TO.N,/7*
X109500000Y-84940000D03*
G04 #@! TO.P,J2,3*
G04 #@! TO.N,/5*
X109500000Y-87480000D03*
G04 #@! TO.P,J2,2*
G04 #@! TO.N,/3*
X109500000Y-90020000D03*
D11*
G04 #@! TO.P,J2,1*
G04 #@! TO.N,/1*
X109500000Y-92560000D03*
G04 #@! TD*
G04 #@! TO.P,J4,1*
G04 #@! TO.N,/2*
X102300000Y-92560000D03*
D10*
G04 #@! TO.P,J4,2*
G04 #@! TO.N,/4*
X102300000Y-90020000D03*
G04 #@! TO.P,J4,3*
G04 #@! TO.N,/6*
X102300000Y-87480000D03*
G04 #@! TO.P,J4,4*
G04 #@! TO.N,/8*
X102300000Y-84940000D03*
G04 #@! TO.P,J4,5*
G04 #@! TO.N,/10*
X102300000Y-82400000D03*
G04 #@! TO.P,J4,6*
G04 #@! TO.N,/12*
X102300000Y-79860000D03*
G04 #@! TO.P,J4,7*
G04 #@! TO.N,/14*
X102300000Y-77320000D03*
G04 #@! TO.P,J4,8*
G04 #@! TO.N,/16*
X102300000Y-74780000D03*
G04 #@! TO.P,J4,9*
G04 #@! TO.N,/18*
X102300000Y-72240000D03*
G04 #@! TO.P,J4,10*
G04 #@! TO.N,/20*
X102300000Y-69700000D03*
G04 #@! TD*
D12*
G04 #@! TO.P,J1,40*
G04 #@! TO.N,/40*
X90560000Y-43740000D03*
G04 #@! TO.P,J1,39*
G04 #@! TO.N,/39*
X93100000Y-43740000D03*
G04 #@! TO.P,J1,26*
G04 #@! TO.N,/26*
X90560000Y-61520000D03*
G04 #@! TO.P,J1,25*
G04 #@! TO.N,/25*
X93100000Y-61520000D03*
G04 #@! TO.P,J1,22*
G04 #@! TO.N,/22*
X90560000Y-66600000D03*
G04 #@! TO.P,J1,21*
G04 #@! TO.N,/21*
X93100000Y-66600000D03*
G04 #@! TO.P,J1,30*
G04 #@! TO.N,/30*
X90560000Y-56440000D03*
G04 #@! TO.P,J1,29*
G04 #@! TO.N,/29*
X93100000Y-56440000D03*
G04 #@! TO.P,J1,8*
G04 #@! TO.N,/8*
X90560000Y-84380000D03*
G04 #@! TO.P,J1,7*
G04 #@! TO.N,/7*
X93100000Y-84380000D03*
G04 #@! TO.P,J1,32*
G04 #@! TO.N,/32*
X90560000Y-53900000D03*
G04 #@! TO.P,J1,31*
G04 #@! TO.N,/31*
X93100000Y-53900000D03*
G04 #@! TO.P,J1,18*
G04 #@! TO.N,/18*
X90560000Y-71680000D03*
G04 #@! TO.P,J1,17*
G04 #@! TO.N,/17*
X93100000Y-71680000D03*
G04 #@! TO.P,J1,36*
G04 #@! TO.N,/36*
X90560000Y-48820000D03*
G04 #@! TO.P,J1,35*
G04 #@! TO.N,/35*
X93100000Y-48820000D03*
G04 #@! TO.P,J1,34*
G04 #@! TO.N,/34*
X90560000Y-51360000D03*
G04 #@! TO.P,J1,33*
G04 #@! TO.N,/33*
X93100000Y-51360000D03*
G04 #@! TO.P,J1,38*
G04 #@! TO.N,/38*
X90560000Y-46280000D03*
G04 #@! TO.P,J1,37*
G04 #@! TO.N,/37*
X93100000Y-46280000D03*
G04 #@! TO.P,J1,20*
G04 #@! TO.N,/20*
X90560000Y-69140000D03*
G04 #@! TO.P,J1,19*
G04 #@! TO.N,/19*
X93100000Y-69140000D03*
G04 #@! TO.P,J1,10*
G04 #@! TO.N,/10*
X90560000Y-81840000D03*
G04 #@! TO.P,J1,9*
G04 #@! TO.N,/9*
X93100000Y-81840000D03*
G04 #@! TO.P,J1,14*
G04 #@! TO.N,/14*
X90560000Y-76760000D03*
G04 #@! TO.P,J1,13*
G04 #@! TO.N,/13*
X93100000Y-76760000D03*
G04 #@! TO.P,J1,28*
G04 #@! TO.N,/28*
X90560000Y-58980000D03*
G04 #@! TO.P,J1,27*
G04 #@! TO.N,/27*
X93100000Y-58980000D03*
G04 #@! TO.P,J1,12*
G04 #@! TO.N,/12*
X90560000Y-79300000D03*
G04 #@! TO.P,J1,11*
G04 #@! TO.N,/11*
X93100000Y-79300000D03*
G04 #@! TO.P,J1,24*
G04 #@! TO.N,/24*
X90560000Y-64060000D03*
G04 #@! TO.P,J1,23*
G04 #@! TO.N,/23*
X93100000Y-64060000D03*
D13*
G04 #@! TO.P,J1,1*
G04 #@! TO.N,/1*
X93100000Y-92000000D03*
D12*
G04 #@! TO.P,J1,2*
G04 #@! TO.N,/2*
X90560000Y-92000000D03*
G04 #@! TO.P,J1,5*
G04 #@! TO.N,/5*
X93100000Y-86920000D03*
G04 #@! TO.P,J1,4*
G04 #@! TO.N,/4*
X90560000Y-89460000D03*
G04 #@! TO.P,J1,16*
G04 #@! TO.N,/16*
X90560000Y-74220000D03*
G04 #@! TO.P,J1,15*
G04 #@! TO.N,/15*
X93100000Y-74220000D03*
G04 #@! TO.P,J1,3*
G04 #@! TO.N,/3*
X93100000Y-89460000D03*
G04 #@! TO.P,J1,6*
G04 #@! TO.N,/6*
X90560000Y-86920000D03*
G04 #@! TD*
M02*
