G04 #@! TF.GenerationSoftware,KiCad,Pcbnew,(5.1.6)-1*
G04 #@! TF.CreationDate,2020-11-02T00:41:24+04:00*
G04 #@! TF.ProjectId,RPi3-screw-terminal-shiel,52506933-2d73-4637-9265-772d7465726d,rev?*
G04 #@! TF.SameCoordinates,Original*
G04 #@! TF.FileFunction,Legend,Top*
G04 #@! TF.FilePolarity,Positive*
%FSLAX46Y46*%
G04 Gerber Fmt 4.6, Leading zero omitted, Abs format (unit mm)*
G04 Created by KiCad (PCBNEW (5.1.6)-1) date 2020-11-02 00:41:24*
%MOMM*%
%LPD*%
G01*
G04 APERTURE LIST*
%ADD10C,0.150000*%
%ADD11C,0.120000*%
G04 APERTURE END LIST*
D10*
X95423809Y-97652380D02*
X95423809Y-96652380D01*
X95661904Y-96652380D01*
X95804761Y-96700000D01*
X95900000Y-96795238D01*
X95947619Y-96890476D01*
X95995238Y-97080952D01*
X95995238Y-97223809D01*
X95947619Y-97414285D01*
X95900000Y-97509523D01*
X95804761Y-97604761D01*
X95661904Y-97652380D01*
X95423809Y-97652380D01*
X96804761Y-97604761D02*
X96709523Y-97652380D01*
X96519047Y-97652380D01*
X96423809Y-97604761D01*
X96376190Y-97509523D01*
X96376190Y-97128571D01*
X96423809Y-97033333D01*
X96519047Y-96985714D01*
X96709523Y-96985714D01*
X96804761Y-97033333D01*
X96852380Y-97128571D01*
X96852380Y-97223809D01*
X96376190Y-97319047D01*
X97233333Y-97604761D02*
X97328571Y-97652380D01*
X97519047Y-97652380D01*
X97614285Y-97604761D01*
X97661904Y-97509523D01*
X97661904Y-97461904D01*
X97614285Y-97366666D01*
X97519047Y-97319047D01*
X97376190Y-97319047D01*
X97280952Y-97271428D01*
X97233333Y-97176190D01*
X97233333Y-97128571D01*
X97280952Y-97033333D01*
X97376190Y-96985714D01*
X97519047Y-96985714D01*
X97614285Y-97033333D01*
X98090476Y-97652380D02*
X98090476Y-96985714D01*
X98090476Y-96652380D02*
X98042857Y-96700000D01*
X98090476Y-96747619D01*
X98138095Y-96700000D01*
X98090476Y-96652380D01*
X98090476Y-96747619D01*
X98995238Y-96985714D02*
X98995238Y-97795238D01*
X98947619Y-97890476D01*
X98900000Y-97938095D01*
X98804761Y-97985714D01*
X98661904Y-97985714D01*
X98566666Y-97938095D01*
X98995238Y-97604761D02*
X98900000Y-97652380D01*
X98709523Y-97652380D01*
X98614285Y-97604761D01*
X98566666Y-97557142D01*
X98519047Y-97461904D01*
X98519047Y-97176190D01*
X98566666Y-97080952D01*
X98614285Y-97033333D01*
X98709523Y-96985714D01*
X98900000Y-96985714D01*
X98995238Y-97033333D01*
X99471428Y-96985714D02*
X99471428Y-97652380D01*
X99471428Y-97080952D02*
X99519047Y-97033333D01*
X99614285Y-96985714D01*
X99757142Y-96985714D01*
X99852380Y-97033333D01*
X99900000Y-97128571D01*
X99900000Y-97652380D01*
X100757142Y-97604761D02*
X100661904Y-97652380D01*
X100471428Y-97652380D01*
X100376190Y-97604761D01*
X100328571Y-97509523D01*
X100328571Y-97128571D01*
X100376190Y-97033333D01*
X100471428Y-96985714D01*
X100661904Y-96985714D01*
X100757142Y-97033333D01*
X100804761Y-97128571D01*
X100804761Y-97223809D01*
X100328571Y-97319047D01*
X101661904Y-97652380D02*
X101661904Y-96652380D01*
X101661904Y-97604761D02*
X101566666Y-97652380D01*
X101376190Y-97652380D01*
X101280952Y-97604761D01*
X101233333Y-97557142D01*
X101185714Y-97461904D01*
X101185714Y-97176190D01*
X101233333Y-97080952D01*
X101280952Y-97033333D01*
X101376190Y-96985714D01*
X101566666Y-96985714D01*
X101661904Y-97033333D01*
X102900000Y-97652380D02*
X102900000Y-96985714D01*
X102900000Y-96652380D02*
X102852380Y-96700000D01*
X102900000Y-96747619D01*
X102947619Y-96700000D01*
X102900000Y-96652380D01*
X102900000Y-96747619D01*
X103376190Y-96985714D02*
X103376190Y-97652380D01*
X103376190Y-97080952D02*
X103423809Y-97033333D01*
X103519047Y-96985714D01*
X103661904Y-96985714D01*
X103757142Y-97033333D01*
X103804761Y-97128571D01*
X103804761Y-97652380D01*
X105042857Y-97652380D02*
X105042857Y-96652380D01*
X105376190Y-97366666D01*
X105709523Y-96652380D01*
X105709523Y-97652380D01*
X106614285Y-97652380D02*
X106614285Y-97128571D01*
X106566666Y-97033333D01*
X106471428Y-96985714D01*
X106280952Y-96985714D01*
X106185714Y-97033333D01*
X106614285Y-97604761D02*
X106519047Y-97652380D01*
X106280952Y-97652380D01*
X106185714Y-97604761D01*
X106138095Y-97509523D01*
X106138095Y-97414285D01*
X106185714Y-97319047D01*
X106280952Y-97271428D01*
X106519047Y-97271428D01*
X106614285Y-97223809D01*
X107519047Y-96985714D02*
X107519047Y-97652380D01*
X107090476Y-96985714D02*
X107090476Y-97509523D01*
X107138095Y-97604761D01*
X107233333Y-97652380D01*
X107376190Y-97652380D01*
X107471428Y-97604761D01*
X107519047Y-97557142D01*
X107995238Y-97652380D02*
X107995238Y-96985714D01*
X107995238Y-97176190D02*
X108042857Y-97080952D01*
X108090476Y-97033333D01*
X108185714Y-96985714D01*
X108280952Y-96985714D01*
X108614285Y-97652380D02*
X108614285Y-96985714D01*
X108614285Y-96652380D02*
X108566666Y-96700000D01*
X108614285Y-96747619D01*
X108661904Y-96700000D01*
X108614285Y-96652380D01*
X108614285Y-96747619D01*
X108947619Y-96985714D02*
X109328571Y-96985714D01*
X109090476Y-96652380D02*
X109090476Y-97509523D01*
X109138095Y-97604761D01*
X109233333Y-97652380D01*
X109328571Y-97652380D01*
X109661904Y-97652380D02*
X109661904Y-96985714D01*
X109661904Y-96652380D02*
X109614285Y-96700000D01*
X109661904Y-96747619D01*
X109709523Y-96700000D01*
X109661904Y-96652380D01*
X109661904Y-96747619D01*
X110566666Y-96985714D02*
X110566666Y-97652380D01*
X110138095Y-96985714D02*
X110138095Y-97509523D01*
X110185714Y-97604761D01*
X110280952Y-97652380D01*
X110423809Y-97652380D01*
X110519047Y-97604761D01*
X110566666Y-97557142D01*
X110995238Y-97604761D02*
X111090476Y-97652380D01*
X111280952Y-97652380D01*
X111376190Y-97604761D01*
X111423809Y-97509523D01*
X111423809Y-97461904D01*
X111376190Y-97366666D01*
X111280952Y-97319047D01*
X111138095Y-97319047D01*
X111042857Y-97271428D01*
X110995238Y-97176190D01*
X110995238Y-97128571D01*
X111042857Y-97033333D01*
X111138095Y-96985714D01*
X111280952Y-96985714D01*
X111376190Y-97033333D01*
X95323809Y-80252380D02*
X95323809Y-79252380D01*
X95990476Y-79252380D02*
X96180952Y-79252380D01*
X96276190Y-79300000D01*
X96371428Y-79395238D01*
X96419047Y-79585714D01*
X96419047Y-79919047D01*
X96371428Y-80109523D01*
X96276190Y-80204761D01*
X96180952Y-80252380D01*
X95990476Y-80252380D01*
X95895238Y-80204761D01*
X95800000Y-80109523D01*
X95752380Y-79919047D01*
X95752380Y-79585714D01*
X95800000Y-79395238D01*
X95895238Y-79300000D01*
X95990476Y-79252380D01*
X97371428Y-80252380D02*
X96800000Y-80252380D01*
X97085714Y-80252380D02*
X97085714Y-79252380D01*
X96990476Y-79395238D01*
X96895238Y-79490476D01*
X96800000Y-79538095D01*
X97942857Y-79680952D02*
X97847619Y-79633333D01*
X97800000Y-79585714D01*
X97752380Y-79490476D01*
X97752380Y-79442857D01*
X97800000Y-79347619D01*
X97847619Y-79300000D01*
X97942857Y-79252380D01*
X98133333Y-79252380D01*
X98228571Y-79300000D01*
X98276190Y-79347619D01*
X98323809Y-79442857D01*
X98323809Y-79490476D01*
X98276190Y-79585714D01*
X98228571Y-79633333D01*
X98133333Y-79680952D01*
X97942857Y-79680952D01*
X97847619Y-79728571D01*
X97800000Y-79776190D01*
X97752380Y-79871428D01*
X97752380Y-80061904D01*
X97800000Y-80157142D01*
X97847619Y-80204761D01*
X97942857Y-80252380D01*
X98133333Y-80252380D01*
X98228571Y-80204761D01*
X98276190Y-80157142D01*
X98323809Y-80061904D01*
X98323809Y-79871428D01*
X98276190Y-79776190D01*
X98228571Y-79728571D01*
X98133333Y-79680952D01*
X95323809Y-53652380D02*
X95323809Y-52652380D01*
X95990476Y-52652380D02*
X96180952Y-52652380D01*
X96276190Y-52700000D01*
X96371428Y-52795238D01*
X96419047Y-52985714D01*
X96419047Y-53319047D01*
X96371428Y-53509523D01*
X96276190Y-53604761D01*
X96180952Y-53652380D01*
X95990476Y-53652380D01*
X95895238Y-53604761D01*
X95800000Y-53509523D01*
X95752380Y-53319047D01*
X95752380Y-52985714D01*
X95800000Y-52795238D01*
X95895238Y-52700000D01*
X95990476Y-52652380D01*
X97371428Y-53652380D02*
X96800000Y-53652380D01*
X97085714Y-53652380D02*
X97085714Y-52652380D01*
X96990476Y-52795238D01*
X96895238Y-52890476D01*
X96800000Y-52938095D01*
X97752380Y-52747619D02*
X97800000Y-52700000D01*
X97895238Y-52652380D01*
X98133333Y-52652380D01*
X98228571Y-52700000D01*
X98276190Y-52747619D01*
X98323809Y-52842857D01*
X98323809Y-52938095D01*
X98276190Y-53080952D01*
X97704761Y-53652380D01*
X98323809Y-53652380D01*
X94742857Y-58652380D02*
X94742857Y-57652380D01*
X95219047Y-58652380D02*
X95219047Y-57652380D01*
X95457142Y-57652380D01*
X95600000Y-57700000D01*
X95695238Y-57795238D01*
X95742857Y-57890476D01*
X95790476Y-58080952D01*
X95790476Y-58223809D01*
X95742857Y-58414285D01*
X95695238Y-58509523D01*
X95600000Y-58604761D01*
X95457142Y-58652380D01*
X95219047Y-58652380D01*
X95980952Y-58747619D02*
X96742857Y-58747619D01*
X96933333Y-58604761D02*
X97076190Y-58652380D01*
X97314285Y-58652380D01*
X97409523Y-58604761D01*
X97457142Y-58557142D01*
X97504761Y-58461904D01*
X97504761Y-58366666D01*
X97457142Y-58271428D01*
X97409523Y-58223809D01*
X97314285Y-58176190D01*
X97123809Y-58128571D01*
X97028571Y-58080952D01*
X96980952Y-58033333D01*
X96933333Y-57938095D01*
X96933333Y-57842857D01*
X96980952Y-57747619D01*
X97028571Y-57700000D01*
X97123809Y-57652380D01*
X97361904Y-57652380D01*
X97504761Y-57700000D01*
X98504761Y-58557142D02*
X98457142Y-58604761D01*
X98314285Y-58652380D01*
X98219047Y-58652380D01*
X98076190Y-58604761D01*
X97980952Y-58509523D01*
X97933333Y-58414285D01*
X97885714Y-58223809D01*
X97885714Y-58080952D01*
X97933333Y-57890476D01*
X97980952Y-57795238D01*
X98076190Y-57700000D01*
X98219047Y-57652380D01*
X98314285Y-57652380D01*
X98457142Y-57700000D01*
X98504761Y-57747619D01*
X113600000Y-56052380D02*
X113600000Y-55052380D01*
X114266666Y-55052380D02*
X114457142Y-55052380D01*
X114552380Y-55100000D01*
X114647619Y-55195238D01*
X114695238Y-55385714D01*
X114695238Y-55719047D01*
X114647619Y-55909523D01*
X114552380Y-56004761D01*
X114457142Y-56052380D01*
X114266666Y-56052380D01*
X114171428Y-56004761D01*
X114076190Y-55909523D01*
X114028571Y-55719047D01*
X114028571Y-55385714D01*
X114076190Y-55195238D01*
X114171428Y-55100000D01*
X114266666Y-55052380D01*
X115600000Y-55052380D02*
X115123809Y-55052380D01*
X115076190Y-55528571D01*
X115123809Y-55480952D01*
X115219047Y-55433333D01*
X115457142Y-55433333D01*
X115552380Y-55480952D01*
X115600000Y-55528571D01*
X115647619Y-55623809D01*
X115647619Y-55861904D01*
X115600000Y-55957142D01*
X115552380Y-56004761D01*
X115457142Y-56052380D01*
X115219047Y-56052380D01*
X115123809Y-56004761D01*
X115076190Y-55957142D01*
X113542857Y-58652380D02*
X113542857Y-57652380D01*
X114019047Y-58652380D02*
X114019047Y-57652380D01*
X114257142Y-57652380D01*
X114400000Y-57700000D01*
X114495238Y-57795238D01*
X114542857Y-57890476D01*
X114590476Y-58080952D01*
X114590476Y-58223809D01*
X114542857Y-58414285D01*
X114495238Y-58509523D01*
X114400000Y-58604761D01*
X114257142Y-58652380D01*
X114019047Y-58652380D01*
X114780952Y-58747619D02*
X115542857Y-58747619D01*
X115733333Y-58604761D02*
X115876190Y-58652380D01*
X116114285Y-58652380D01*
X116209523Y-58604761D01*
X116257142Y-58557142D01*
X116304761Y-58461904D01*
X116304761Y-58366666D01*
X116257142Y-58271428D01*
X116209523Y-58223809D01*
X116114285Y-58176190D01*
X115923809Y-58128571D01*
X115828571Y-58080952D01*
X115780952Y-58033333D01*
X115733333Y-57938095D01*
X115733333Y-57842857D01*
X115780952Y-57747619D01*
X115828571Y-57700000D01*
X115923809Y-57652380D01*
X116161904Y-57652380D01*
X116304761Y-57700000D01*
X116733333Y-58652380D02*
X116733333Y-57652380D01*
X116971428Y-57652380D01*
X117114285Y-57700000D01*
X117209523Y-57795238D01*
X117257142Y-57890476D01*
X117304761Y-58080952D01*
X117304761Y-58223809D01*
X117257142Y-58414285D01*
X117209523Y-58509523D01*
X117114285Y-58604761D01*
X116971428Y-58652380D01*
X116733333Y-58652380D01*
X113600000Y-53652380D02*
X113600000Y-52652380D01*
X114266666Y-52652380D02*
X114457142Y-52652380D01*
X114552380Y-52700000D01*
X114647619Y-52795238D01*
X114695238Y-52985714D01*
X114695238Y-53319047D01*
X114647619Y-53509523D01*
X114552380Y-53604761D01*
X114457142Y-53652380D01*
X114266666Y-53652380D01*
X114171428Y-53604761D01*
X114076190Y-53509523D01*
X114028571Y-53319047D01*
X114028571Y-52985714D01*
X114076190Y-52795238D01*
X114171428Y-52700000D01*
X114266666Y-52652380D01*
X115552380Y-52652380D02*
X115361904Y-52652380D01*
X115266666Y-52700000D01*
X115219047Y-52747619D01*
X115123809Y-52890476D01*
X115076190Y-53080952D01*
X115076190Y-53461904D01*
X115123809Y-53557142D01*
X115171428Y-53604761D01*
X115266666Y-53652380D01*
X115457142Y-53652380D01*
X115552380Y-53604761D01*
X115600000Y-53557142D01*
X115647619Y-53461904D01*
X115647619Y-53223809D01*
X115600000Y-53128571D01*
X115552380Y-53080952D01*
X115457142Y-53033333D01*
X115266666Y-53033333D01*
X115171428Y-53080952D01*
X115123809Y-53128571D01*
X115076190Y-53223809D01*
X113523809Y-51052380D02*
X113523809Y-50052380D01*
X114190476Y-50052380D02*
X114380952Y-50052380D01*
X114476190Y-50100000D01*
X114571428Y-50195238D01*
X114619047Y-50385714D01*
X114619047Y-50719047D01*
X114571428Y-50909523D01*
X114476190Y-51004761D01*
X114380952Y-51052380D01*
X114190476Y-51052380D01*
X114095238Y-51004761D01*
X114000000Y-50909523D01*
X113952380Y-50719047D01*
X113952380Y-50385714D01*
X114000000Y-50195238D01*
X114095238Y-50100000D01*
X114190476Y-50052380D01*
X115571428Y-51052380D02*
X115000000Y-51052380D01*
X115285714Y-51052380D02*
X115285714Y-50052380D01*
X115190476Y-50195238D01*
X115095238Y-50290476D01*
X115000000Y-50338095D01*
X115904761Y-50052380D02*
X116523809Y-50052380D01*
X116190476Y-50433333D01*
X116333333Y-50433333D01*
X116428571Y-50480952D01*
X116476190Y-50528571D01*
X116523809Y-50623809D01*
X116523809Y-50861904D01*
X116476190Y-50957142D01*
X116428571Y-51004761D01*
X116333333Y-51052380D01*
X116047619Y-51052380D01*
X115952380Y-51004761D01*
X115904761Y-50957142D01*
X113552380Y-48452380D02*
X113552380Y-47452380D01*
X113885714Y-48166666D01*
X114219047Y-47452380D01*
X114219047Y-48452380D01*
X114695238Y-48452380D02*
X114695238Y-47452380D01*
X115123809Y-48404761D02*
X115266666Y-48452380D01*
X115504761Y-48452380D01*
X115600000Y-48404761D01*
X115647619Y-48357142D01*
X115695238Y-48261904D01*
X115695238Y-48166666D01*
X115647619Y-48071428D01*
X115600000Y-48023809D01*
X115504761Y-47976190D01*
X115314285Y-47928571D01*
X115219047Y-47880952D01*
X115171428Y-47833333D01*
X115123809Y-47738095D01*
X115123809Y-47642857D01*
X115171428Y-47547619D01*
X115219047Y-47500000D01*
X115314285Y-47452380D01*
X115552380Y-47452380D01*
X115695238Y-47500000D01*
X116314285Y-47452380D02*
X116504761Y-47452380D01*
X116600000Y-47500000D01*
X116695238Y-47595238D01*
X116742857Y-47785714D01*
X116742857Y-48119047D01*
X116695238Y-48309523D01*
X116600000Y-48404761D01*
X116504761Y-48452380D01*
X116314285Y-48452380D01*
X116219047Y-48404761D01*
X116123809Y-48309523D01*
X116076190Y-48119047D01*
X116076190Y-47785714D01*
X116123809Y-47595238D01*
X116219047Y-47500000D01*
X116314285Y-47452380D01*
X117695238Y-48452380D02*
X117123809Y-48452380D01*
X117409523Y-48452380D02*
X117409523Y-47452380D01*
X117314285Y-47595238D01*
X117219047Y-47690476D01*
X117123809Y-47738095D01*
X94552380Y-45852380D02*
X94552380Y-44852380D01*
X94885714Y-45566666D01*
X95219047Y-44852380D01*
X95219047Y-45852380D01*
X95885714Y-44852380D02*
X96076190Y-44852380D01*
X96171428Y-44900000D01*
X96266666Y-44995238D01*
X96314285Y-45185714D01*
X96314285Y-45519047D01*
X96266666Y-45709523D01*
X96171428Y-45804761D01*
X96076190Y-45852380D01*
X95885714Y-45852380D01*
X95790476Y-45804761D01*
X95695238Y-45709523D01*
X95647619Y-45519047D01*
X95647619Y-45185714D01*
X95695238Y-44995238D01*
X95790476Y-44900000D01*
X95885714Y-44852380D01*
X96695238Y-45804761D02*
X96838095Y-45852380D01*
X97076190Y-45852380D01*
X97171428Y-45804761D01*
X97219047Y-45757142D01*
X97266666Y-45661904D01*
X97266666Y-45566666D01*
X97219047Y-45471428D01*
X97171428Y-45423809D01*
X97076190Y-45376190D01*
X96885714Y-45328571D01*
X96790476Y-45280952D01*
X96742857Y-45233333D01*
X96695238Y-45138095D01*
X96695238Y-45042857D01*
X96742857Y-44947619D01*
X96790476Y-44900000D01*
X96885714Y-44852380D01*
X97123809Y-44852380D01*
X97266666Y-44900000D01*
X97695238Y-45852380D02*
X97695238Y-44852380D01*
X98695238Y-45852380D02*
X98123809Y-45852380D01*
X98409523Y-45852380D02*
X98409523Y-44852380D01*
X98314285Y-44995238D01*
X98219047Y-45090476D01*
X98123809Y-45138095D01*
X94433333Y-43404761D02*
X94576190Y-43452380D01*
X94814285Y-43452380D01*
X94909523Y-43404761D01*
X94957142Y-43357142D01*
X95004761Y-43261904D01*
X95004761Y-43166666D01*
X94957142Y-43071428D01*
X94909523Y-43023809D01*
X94814285Y-42976190D01*
X94623809Y-42928571D01*
X94528571Y-42880952D01*
X94480952Y-42833333D01*
X94433333Y-42738095D01*
X94433333Y-42642857D01*
X94480952Y-42547619D01*
X94528571Y-42500000D01*
X94623809Y-42452380D01*
X94861904Y-42452380D01*
X95004761Y-42500000D01*
X96004761Y-43357142D02*
X95957142Y-43404761D01*
X95814285Y-43452380D01*
X95719047Y-43452380D01*
X95576190Y-43404761D01*
X95480952Y-43309523D01*
X95433333Y-43214285D01*
X95385714Y-43023809D01*
X95385714Y-42880952D01*
X95433333Y-42690476D01*
X95480952Y-42595238D01*
X95576190Y-42500000D01*
X95719047Y-42452380D01*
X95814285Y-42452380D01*
X95957142Y-42500000D01*
X96004761Y-42547619D01*
X96909523Y-43452380D02*
X96433333Y-43452380D01*
X96433333Y-42452380D01*
X97242857Y-43452380D02*
X97242857Y-42452380D01*
X97814285Y-43452380D02*
X97385714Y-42880952D01*
X97814285Y-42452380D02*
X97242857Y-43023809D01*
X98766666Y-43452380D02*
X98195238Y-43452380D01*
X98480952Y-43452380D02*
X98480952Y-42452380D01*
X98385714Y-42595238D01*
X98290476Y-42690476D01*
X98195238Y-42738095D01*
X95980952Y-60957142D02*
X95933333Y-61004761D01*
X95790476Y-61052380D01*
X95695238Y-61052380D01*
X95552380Y-61004761D01*
X95457142Y-60909523D01*
X95409523Y-60814285D01*
X95361904Y-60623809D01*
X95361904Y-60480952D01*
X95409523Y-60290476D01*
X95457142Y-60195238D01*
X95552380Y-60100000D01*
X95695238Y-60052380D01*
X95790476Y-60052380D01*
X95933333Y-60100000D01*
X95980952Y-60147619D01*
X96409523Y-60528571D02*
X96742857Y-60528571D01*
X96885714Y-61052380D02*
X96409523Y-61052380D01*
X96409523Y-60052380D01*
X96885714Y-60052380D01*
X97838095Y-61052380D02*
X97266666Y-61052380D01*
X97552380Y-61052380D02*
X97552380Y-60052380D01*
X97457142Y-60195238D01*
X97361904Y-60290476D01*
X97266666Y-60338095D01*
X95980952Y-63557142D02*
X95933333Y-63604761D01*
X95790476Y-63652380D01*
X95695238Y-63652380D01*
X95552380Y-63604761D01*
X95457142Y-63509523D01*
X95409523Y-63414285D01*
X95361904Y-63223809D01*
X95361904Y-63080952D01*
X95409523Y-62890476D01*
X95457142Y-62795238D01*
X95552380Y-62700000D01*
X95695238Y-62652380D01*
X95790476Y-62652380D01*
X95933333Y-62700000D01*
X95980952Y-62747619D01*
X96409523Y-63128571D02*
X96742857Y-63128571D01*
X96885714Y-63652380D02*
X96409523Y-63652380D01*
X96409523Y-62652380D01*
X96885714Y-62652380D01*
X97504761Y-62652380D02*
X97600000Y-62652380D01*
X97695238Y-62700000D01*
X97742857Y-62747619D01*
X97790476Y-62842857D01*
X97838095Y-63033333D01*
X97838095Y-63271428D01*
X97790476Y-63461904D01*
X97742857Y-63557142D01*
X97695238Y-63604761D01*
X97600000Y-63652380D01*
X97504761Y-63652380D01*
X97409523Y-63604761D01*
X97361904Y-63557142D01*
X97314285Y-63461904D01*
X97266666Y-63271428D01*
X97266666Y-63033333D01*
X97314285Y-62842857D01*
X97361904Y-62747619D01*
X97409523Y-62700000D01*
X97504761Y-62652380D01*
X96061904Y-50100000D02*
X95966666Y-50052380D01*
X95823809Y-50052380D01*
X95680952Y-50100000D01*
X95585714Y-50195238D01*
X95538095Y-50290476D01*
X95490476Y-50480952D01*
X95490476Y-50623809D01*
X95538095Y-50814285D01*
X95585714Y-50909523D01*
X95680952Y-51004761D01*
X95823809Y-51052380D01*
X95919047Y-51052380D01*
X96061904Y-51004761D01*
X96109523Y-50957142D01*
X96109523Y-50623809D01*
X95919047Y-50623809D01*
X97109523Y-51052380D02*
X96776190Y-50576190D01*
X96538095Y-51052380D02*
X96538095Y-50052380D01*
X96919047Y-50052380D01*
X97014285Y-50100000D01*
X97061904Y-50147619D01*
X97109523Y-50242857D01*
X97109523Y-50385714D01*
X97061904Y-50480952D01*
X97014285Y-50528571D01*
X96919047Y-50576190D01*
X96538095Y-50576190D01*
X97538095Y-51052380D02*
X97538095Y-50052380D01*
X97776190Y-50052380D01*
X97919047Y-50100000D01*
X98014285Y-50195238D01*
X98061904Y-50290476D01*
X98109523Y-50480952D01*
X98109523Y-50623809D01*
X98061904Y-50814285D01*
X98014285Y-50909523D01*
X97919047Y-51004761D01*
X97776190Y-51052380D01*
X97538095Y-51052380D01*
X95323809Y-48452380D02*
X95323809Y-47452380D01*
X95990476Y-47452380D02*
X96180952Y-47452380D01*
X96276190Y-47500000D01*
X96371428Y-47595238D01*
X96419047Y-47785714D01*
X96419047Y-48119047D01*
X96371428Y-48309523D01*
X96276190Y-48404761D01*
X96180952Y-48452380D01*
X95990476Y-48452380D01*
X95895238Y-48404761D01*
X95800000Y-48309523D01*
X95752380Y-48119047D01*
X95752380Y-47785714D01*
X95800000Y-47595238D01*
X95895238Y-47500000D01*
X95990476Y-47452380D01*
X97371428Y-48452380D02*
X96800000Y-48452380D01*
X97085714Y-48452380D02*
X97085714Y-47452380D01*
X96990476Y-47595238D01*
X96895238Y-47690476D01*
X96800000Y-47738095D01*
X98228571Y-47452380D02*
X98038095Y-47452380D01*
X97942857Y-47500000D01*
X97895238Y-47547619D01*
X97800000Y-47690476D01*
X97752380Y-47880952D01*
X97752380Y-48261904D01*
X97800000Y-48357142D01*
X97847619Y-48404761D01*
X97942857Y-48452380D01*
X98133333Y-48452380D01*
X98228571Y-48404761D01*
X98276190Y-48357142D01*
X98323809Y-48261904D01*
X98323809Y-48023809D01*
X98276190Y-47928571D01*
X98228571Y-47880952D01*
X98133333Y-47833333D01*
X97942857Y-47833333D01*
X97847619Y-47880952D01*
X97800000Y-47928571D01*
X97752380Y-48023809D01*
X113523809Y-45852380D02*
X113523809Y-44852380D01*
X114190476Y-44852380D02*
X114380952Y-44852380D01*
X114476190Y-44900000D01*
X114571428Y-44995238D01*
X114619047Y-45185714D01*
X114619047Y-45519047D01*
X114571428Y-45709523D01*
X114476190Y-45804761D01*
X114380952Y-45852380D01*
X114190476Y-45852380D01*
X114095238Y-45804761D01*
X114000000Y-45709523D01*
X113952380Y-45519047D01*
X113952380Y-45185714D01*
X114000000Y-44995238D01*
X114095238Y-44900000D01*
X114190476Y-44852380D01*
X115000000Y-44947619D02*
X115047619Y-44900000D01*
X115142857Y-44852380D01*
X115380952Y-44852380D01*
X115476190Y-44900000D01*
X115523809Y-44947619D01*
X115571428Y-45042857D01*
X115571428Y-45138095D01*
X115523809Y-45280952D01*
X114952380Y-45852380D01*
X115571428Y-45852380D01*
X116428571Y-44852380D02*
X116238095Y-44852380D01*
X116142857Y-44900000D01*
X116095238Y-44947619D01*
X116000000Y-45090476D01*
X115952380Y-45280952D01*
X115952380Y-45661904D01*
X116000000Y-45757142D01*
X116047619Y-45804761D01*
X116142857Y-45852380D01*
X116333333Y-45852380D01*
X116428571Y-45804761D01*
X116476190Y-45757142D01*
X116523809Y-45661904D01*
X116523809Y-45423809D01*
X116476190Y-45328571D01*
X116428571Y-45280952D01*
X116333333Y-45233333D01*
X116142857Y-45233333D01*
X116047619Y-45280952D01*
X116000000Y-45328571D01*
X115952380Y-45423809D01*
X114061904Y-42500000D02*
X113966666Y-42452380D01*
X113823809Y-42452380D01*
X113680952Y-42500000D01*
X113585714Y-42595238D01*
X113538095Y-42690476D01*
X113490476Y-42880952D01*
X113490476Y-43023809D01*
X113538095Y-43214285D01*
X113585714Y-43309523D01*
X113680952Y-43404761D01*
X113823809Y-43452380D01*
X113919047Y-43452380D01*
X114061904Y-43404761D01*
X114109523Y-43357142D01*
X114109523Y-43023809D01*
X113919047Y-43023809D01*
X115109523Y-43452380D02*
X114776190Y-42976190D01*
X114538095Y-43452380D02*
X114538095Y-42452380D01*
X114919047Y-42452380D01*
X115014285Y-42500000D01*
X115061904Y-42547619D01*
X115109523Y-42642857D01*
X115109523Y-42785714D01*
X115061904Y-42880952D01*
X115014285Y-42928571D01*
X114919047Y-42976190D01*
X114538095Y-42976190D01*
X115538095Y-43452380D02*
X115538095Y-42452380D01*
X115776190Y-42452380D01*
X115919047Y-42500000D01*
X116014285Y-42595238D01*
X116061904Y-42690476D01*
X116109523Y-42880952D01*
X116109523Y-43023809D01*
X116061904Y-43214285D01*
X116014285Y-43309523D01*
X115919047Y-43404761D01*
X115776190Y-43452380D01*
X115538095Y-43452380D01*
X96061904Y-55100000D02*
X95966666Y-55052380D01*
X95823809Y-55052380D01*
X95680952Y-55100000D01*
X95585714Y-55195238D01*
X95538095Y-55290476D01*
X95490476Y-55480952D01*
X95490476Y-55623809D01*
X95538095Y-55814285D01*
X95585714Y-55909523D01*
X95680952Y-56004761D01*
X95823809Y-56052380D01*
X95919047Y-56052380D01*
X96061904Y-56004761D01*
X96109523Y-55957142D01*
X96109523Y-55623809D01*
X95919047Y-55623809D01*
X97109523Y-56052380D02*
X96776190Y-55576190D01*
X96538095Y-56052380D02*
X96538095Y-55052380D01*
X96919047Y-55052380D01*
X97014285Y-55100000D01*
X97061904Y-55147619D01*
X97109523Y-55242857D01*
X97109523Y-55385714D01*
X97061904Y-55480952D01*
X97014285Y-55528571D01*
X96919047Y-55576190D01*
X96538095Y-55576190D01*
X97538095Y-56052380D02*
X97538095Y-55052380D01*
X97776190Y-55052380D01*
X97919047Y-55100000D01*
X98014285Y-55195238D01*
X98061904Y-55290476D01*
X98109523Y-55480952D01*
X98109523Y-55623809D01*
X98061904Y-55814285D01*
X98014285Y-55909523D01*
X97919047Y-56004761D01*
X97776190Y-56052380D01*
X97538095Y-56052380D01*
X95323809Y-66252380D02*
X95323809Y-65252380D01*
X95990476Y-65252380D02*
X96180952Y-65252380D01*
X96276190Y-65300000D01*
X96371428Y-65395238D01*
X96419047Y-65585714D01*
X96419047Y-65919047D01*
X96371428Y-66109523D01*
X96276190Y-66204761D01*
X96180952Y-66252380D01*
X95990476Y-66252380D01*
X95895238Y-66204761D01*
X95800000Y-66109523D01*
X95752380Y-65919047D01*
X95752380Y-65585714D01*
X95800000Y-65395238D01*
X95895238Y-65300000D01*
X95990476Y-65252380D01*
X96800000Y-65347619D02*
X96847619Y-65300000D01*
X96942857Y-65252380D01*
X97180952Y-65252380D01*
X97276190Y-65300000D01*
X97323809Y-65347619D01*
X97371428Y-65442857D01*
X97371428Y-65538095D01*
X97323809Y-65680952D01*
X96752380Y-66252380D01*
X97371428Y-66252380D01*
X98276190Y-65252380D02*
X97800000Y-65252380D01*
X97752380Y-65728571D01*
X97800000Y-65680952D01*
X97895238Y-65633333D01*
X98133333Y-65633333D01*
X98228571Y-65680952D01*
X98276190Y-65728571D01*
X98323809Y-65823809D01*
X98323809Y-66061904D01*
X98276190Y-66157142D01*
X98228571Y-66204761D01*
X98133333Y-66252380D01*
X97895238Y-66252380D01*
X97800000Y-66204761D01*
X97752380Y-66157142D01*
X96061904Y-69100000D02*
X95966666Y-69052380D01*
X95823809Y-69052380D01*
X95680952Y-69100000D01*
X95585714Y-69195238D01*
X95538095Y-69290476D01*
X95490476Y-69480952D01*
X95490476Y-69623809D01*
X95538095Y-69814285D01*
X95585714Y-69909523D01*
X95680952Y-70004761D01*
X95823809Y-70052380D01*
X95919047Y-70052380D01*
X96061904Y-70004761D01*
X96109523Y-69957142D01*
X96109523Y-69623809D01*
X95919047Y-69623809D01*
X97109523Y-70052380D02*
X96776190Y-69576190D01*
X96538095Y-70052380D02*
X96538095Y-69052380D01*
X96919047Y-69052380D01*
X97014285Y-69100000D01*
X97061904Y-69147619D01*
X97109523Y-69242857D01*
X97109523Y-69385714D01*
X97061904Y-69480952D01*
X97014285Y-69528571D01*
X96919047Y-69576190D01*
X96538095Y-69576190D01*
X97538095Y-70052380D02*
X97538095Y-69052380D01*
X97776190Y-69052380D01*
X97919047Y-69100000D01*
X98014285Y-69195238D01*
X98061904Y-69290476D01*
X98109523Y-69480952D01*
X98109523Y-69623809D01*
X98061904Y-69814285D01*
X98014285Y-69909523D01*
X97919047Y-70004761D01*
X97776190Y-70052380D01*
X97538095Y-70052380D01*
X95323809Y-72652380D02*
X95323809Y-71652380D01*
X95990476Y-71652380D02*
X96180952Y-71652380D01*
X96276190Y-71700000D01*
X96371428Y-71795238D01*
X96419047Y-71985714D01*
X96419047Y-72319047D01*
X96371428Y-72509523D01*
X96276190Y-72604761D01*
X96180952Y-72652380D01*
X95990476Y-72652380D01*
X95895238Y-72604761D01*
X95800000Y-72509523D01*
X95752380Y-72319047D01*
X95752380Y-71985714D01*
X95800000Y-71795238D01*
X95895238Y-71700000D01*
X95990476Y-71652380D01*
X96800000Y-71747619D02*
X96847619Y-71700000D01*
X96942857Y-71652380D01*
X97180952Y-71652380D01*
X97276190Y-71700000D01*
X97323809Y-71747619D01*
X97371428Y-71842857D01*
X97371428Y-71938095D01*
X97323809Y-72080952D01*
X96752380Y-72652380D01*
X97371428Y-72652380D01*
X98228571Y-71985714D02*
X98228571Y-72652380D01*
X97990476Y-71604761D02*
X97752380Y-72319047D01*
X98371428Y-72319047D01*
X95323809Y-75052380D02*
X95323809Y-74052380D01*
X95990476Y-74052380D02*
X96180952Y-74052380D01*
X96276190Y-74100000D01*
X96371428Y-74195238D01*
X96419047Y-74385714D01*
X96419047Y-74719047D01*
X96371428Y-74909523D01*
X96276190Y-75004761D01*
X96180952Y-75052380D01*
X95990476Y-75052380D01*
X95895238Y-75004761D01*
X95800000Y-74909523D01*
X95752380Y-74719047D01*
X95752380Y-74385714D01*
X95800000Y-74195238D01*
X95895238Y-74100000D01*
X95990476Y-74052380D01*
X96800000Y-74147619D02*
X96847619Y-74100000D01*
X96942857Y-74052380D01*
X97180952Y-74052380D01*
X97276190Y-74100000D01*
X97323809Y-74147619D01*
X97371428Y-74242857D01*
X97371428Y-74338095D01*
X97323809Y-74480952D01*
X96752380Y-75052380D01*
X97371428Y-75052380D01*
X97704761Y-74052380D02*
X98323809Y-74052380D01*
X97990476Y-74433333D01*
X98133333Y-74433333D01*
X98228571Y-74480952D01*
X98276190Y-74528571D01*
X98323809Y-74623809D01*
X98323809Y-74861904D01*
X98276190Y-74957142D01*
X98228571Y-75004761D01*
X98133333Y-75052380D01*
X97847619Y-75052380D01*
X97752380Y-75004761D01*
X97704761Y-74957142D01*
X96261904Y-76700000D02*
X96166666Y-76652380D01*
X96023809Y-76652380D01*
X95880952Y-76700000D01*
X95785714Y-76795238D01*
X95738095Y-76890476D01*
X95690476Y-77080952D01*
X95690476Y-77223809D01*
X95738095Y-77414285D01*
X95785714Y-77509523D01*
X95880952Y-77604761D01*
X96023809Y-77652380D01*
X96119047Y-77652380D01*
X96261904Y-77604761D01*
X96309523Y-77557142D01*
X96309523Y-77223809D01*
X96119047Y-77223809D01*
X97309523Y-77652380D02*
X96976190Y-77176190D01*
X96738095Y-77652380D02*
X96738095Y-76652380D01*
X97119047Y-76652380D01*
X97214285Y-76700000D01*
X97261904Y-76747619D01*
X97309523Y-76842857D01*
X97309523Y-76985714D01*
X97261904Y-77080952D01*
X97214285Y-77128571D01*
X97119047Y-77176190D01*
X96738095Y-77176190D01*
X97738095Y-77652380D02*
X97738095Y-76652380D01*
X97976190Y-76652380D01*
X98119047Y-76700000D01*
X98214285Y-76795238D01*
X98261904Y-76890476D01*
X98309523Y-77080952D01*
X98309523Y-77223809D01*
X98261904Y-77414285D01*
X98214285Y-77509523D01*
X98119047Y-77604761D01*
X97976190Y-77652380D01*
X97738095Y-77652380D01*
X96633333Y-82852380D02*
X96300000Y-82376190D01*
X96061904Y-82852380D02*
X96061904Y-81852380D01*
X96442857Y-81852380D01*
X96538095Y-81900000D01*
X96585714Y-81947619D01*
X96633333Y-82042857D01*
X96633333Y-82185714D01*
X96585714Y-82280952D01*
X96538095Y-82328571D01*
X96442857Y-82376190D01*
X96061904Y-82376190D01*
X96966666Y-81852380D02*
X97633333Y-82852380D01*
X97633333Y-81852380D02*
X96966666Y-82852380D01*
X96038095Y-84452380D02*
X96609523Y-84452380D01*
X96323809Y-85452380D02*
X96323809Y-84452380D01*
X96847619Y-84452380D02*
X97514285Y-85452380D01*
X97514285Y-84452380D02*
X96847619Y-85452380D01*
X114061904Y-60300000D02*
X113966666Y-60252380D01*
X113823809Y-60252380D01*
X113680952Y-60300000D01*
X113585714Y-60395238D01*
X113538095Y-60490476D01*
X113490476Y-60680952D01*
X113490476Y-60823809D01*
X113538095Y-61014285D01*
X113585714Y-61109523D01*
X113680952Y-61204761D01*
X113823809Y-61252380D01*
X113919047Y-61252380D01*
X114061904Y-61204761D01*
X114109523Y-61157142D01*
X114109523Y-60823809D01*
X113919047Y-60823809D01*
X115109523Y-61252380D02*
X114776190Y-60776190D01*
X114538095Y-61252380D02*
X114538095Y-60252380D01*
X114919047Y-60252380D01*
X115014285Y-60300000D01*
X115061904Y-60347619D01*
X115109523Y-60442857D01*
X115109523Y-60585714D01*
X115061904Y-60680952D01*
X115014285Y-60728571D01*
X114919047Y-60776190D01*
X114538095Y-60776190D01*
X115538095Y-61252380D02*
X115538095Y-60252380D01*
X115776190Y-60252380D01*
X115919047Y-60300000D01*
X116014285Y-60395238D01*
X116061904Y-60490476D01*
X116109523Y-60680952D01*
X116109523Y-60823809D01*
X116061904Y-61014285D01*
X116014285Y-61109523D01*
X115919047Y-61204761D01*
X115776190Y-61252380D01*
X115538095Y-61252380D01*
X113509523Y-63804761D02*
X113652380Y-63852380D01*
X113890476Y-63852380D01*
X113985714Y-63804761D01*
X114033333Y-63757142D01*
X114080952Y-63661904D01*
X114080952Y-63566666D01*
X114033333Y-63471428D01*
X113985714Y-63423809D01*
X113890476Y-63376190D01*
X113700000Y-63328571D01*
X113604761Y-63280952D01*
X113557142Y-63233333D01*
X113509523Y-63138095D01*
X113509523Y-63042857D01*
X113557142Y-62947619D01*
X113604761Y-62900000D01*
X113700000Y-62852380D01*
X113938095Y-62852380D01*
X114080952Y-62900000D01*
X115080952Y-63757142D02*
X115033333Y-63804761D01*
X114890476Y-63852380D01*
X114795238Y-63852380D01*
X114652380Y-63804761D01*
X114557142Y-63709523D01*
X114509523Y-63614285D01*
X114461904Y-63423809D01*
X114461904Y-63280952D01*
X114509523Y-63090476D01*
X114557142Y-62995238D01*
X114652380Y-62900000D01*
X114795238Y-62852380D01*
X114890476Y-62852380D01*
X115033333Y-62900000D01*
X115080952Y-62947619D01*
X115985714Y-63852380D02*
X115509523Y-63852380D01*
X115509523Y-62852380D01*
X116319047Y-63852380D02*
X116319047Y-62852380D01*
X116890476Y-63852380D02*
X116461904Y-63280952D01*
X116890476Y-62852380D02*
X116319047Y-63423809D01*
X113628571Y-66252380D02*
X113628571Y-65252380D01*
X113961904Y-65966666D01*
X114295238Y-65252380D01*
X114295238Y-66252380D01*
X114771428Y-66252380D02*
X114771428Y-65252380D01*
X115200000Y-66204761D02*
X115342857Y-66252380D01*
X115580952Y-66252380D01*
X115676190Y-66204761D01*
X115723809Y-66157142D01*
X115771428Y-66061904D01*
X115771428Y-65966666D01*
X115723809Y-65871428D01*
X115676190Y-65823809D01*
X115580952Y-65776190D01*
X115390476Y-65728571D01*
X115295238Y-65680952D01*
X115247619Y-65633333D01*
X115200000Y-65538095D01*
X115200000Y-65442857D01*
X115247619Y-65347619D01*
X115295238Y-65300000D01*
X115390476Y-65252380D01*
X115628571Y-65252380D01*
X115771428Y-65300000D01*
X116390476Y-65252380D02*
X116580952Y-65252380D01*
X116676190Y-65300000D01*
X116771428Y-65395238D01*
X116819047Y-65585714D01*
X116819047Y-65919047D01*
X116771428Y-66109523D01*
X116676190Y-66204761D01*
X116580952Y-66252380D01*
X116390476Y-66252380D01*
X116295238Y-66204761D01*
X116200000Y-66109523D01*
X116152380Y-65919047D01*
X116152380Y-65585714D01*
X116200000Y-65395238D01*
X116295238Y-65300000D01*
X116390476Y-65252380D01*
X113628571Y-70052380D02*
X113628571Y-69052380D01*
X113961904Y-69766666D01*
X114295238Y-69052380D01*
X114295238Y-70052380D01*
X114961904Y-69052380D02*
X115152380Y-69052380D01*
X115247619Y-69100000D01*
X115342857Y-69195238D01*
X115390476Y-69385714D01*
X115390476Y-69719047D01*
X115342857Y-69909523D01*
X115247619Y-70004761D01*
X115152380Y-70052380D01*
X114961904Y-70052380D01*
X114866666Y-70004761D01*
X114771428Y-69909523D01*
X114723809Y-69719047D01*
X114723809Y-69385714D01*
X114771428Y-69195238D01*
X114866666Y-69100000D01*
X114961904Y-69052380D01*
X115771428Y-70004761D02*
X115914285Y-70052380D01*
X116152380Y-70052380D01*
X116247619Y-70004761D01*
X116295238Y-69957142D01*
X116342857Y-69861904D01*
X116342857Y-69766666D01*
X116295238Y-69671428D01*
X116247619Y-69623809D01*
X116152380Y-69576190D01*
X115961904Y-69528571D01*
X115866666Y-69480952D01*
X115819047Y-69433333D01*
X115771428Y-69338095D01*
X115771428Y-69242857D01*
X115819047Y-69147619D01*
X115866666Y-69100000D01*
X115961904Y-69052380D01*
X116200000Y-69052380D01*
X116342857Y-69100000D01*
X116771428Y-70052380D02*
X116771428Y-69052380D01*
X113523809Y-71652380D02*
X114142857Y-71652380D01*
X113809523Y-72033333D01*
X113952380Y-72033333D01*
X114047619Y-72080952D01*
X114095238Y-72128571D01*
X114142857Y-72223809D01*
X114142857Y-72461904D01*
X114095238Y-72557142D01*
X114047619Y-72604761D01*
X113952380Y-72652380D01*
X113666666Y-72652380D01*
X113571428Y-72604761D01*
X113523809Y-72557142D01*
X114571428Y-72557142D02*
X114619047Y-72604761D01*
X114571428Y-72652380D01*
X114523809Y-72604761D01*
X114571428Y-72557142D01*
X114571428Y-72652380D01*
X114952380Y-71652380D02*
X115571428Y-71652380D01*
X115238095Y-72033333D01*
X115380952Y-72033333D01*
X115476190Y-72080952D01*
X115523809Y-72128571D01*
X115571428Y-72223809D01*
X115571428Y-72461904D01*
X115523809Y-72557142D01*
X115476190Y-72604761D01*
X115380952Y-72652380D01*
X115095238Y-72652380D01*
X115000000Y-72604761D01*
X114952380Y-72557142D01*
X115857142Y-71652380D02*
X116190476Y-72652380D01*
X116523809Y-71652380D01*
X113723809Y-75052380D02*
X113723809Y-74052380D01*
X114390476Y-74052380D02*
X114580952Y-74052380D01*
X114676190Y-74100000D01*
X114771428Y-74195238D01*
X114819047Y-74385714D01*
X114819047Y-74719047D01*
X114771428Y-74909523D01*
X114676190Y-75004761D01*
X114580952Y-75052380D01*
X114390476Y-75052380D01*
X114295238Y-75004761D01*
X114200000Y-74909523D01*
X114152380Y-74719047D01*
X114152380Y-74385714D01*
X114200000Y-74195238D01*
X114295238Y-74100000D01*
X114390476Y-74052380D01*
X115200000Y-74147619D02*
X115247619Y-74100000D01*
X115342857Y-74052380D01*
X115580952Y-74052380D01*
X115676190Y-74100000D01*
X115723809Y-74147619D01*
X115771428Y-74242857D01*
X115771428Y-74338095D01*
X115723809Y-74480952D01*
X115152380Y-75052380D01*
X115771428Y-75052380D01*
X116152380Y-74147619D02*
X116200000Y-74100000D01*
X116295238Y-74052380D01*
X116533333Y-74052380D01*
X116628571Y-74100000D01*
X116676190Y-74147619D01*
X116723809Y-74242857D01*
X116723809Y-74338095D01*
X116676190Y-74480952D01*
X116104761Y-75052380D01*
X116723809Y-75052380D01*
X113723809Y-77652380D02*
X113723809Y-76652380D01*
X114390476Y-76652380D02*
X114580952Y-76652380D01*
X114676190Y-76700000D01*
X114771428Y-76795238D01*
X114819047Y-76985714D01*
X114819047Y-77319047D01*
X114771428Y-77509523D01*
X114676190Y-77604761D01*
X114580952Y-77652380D01*
X114390476Y-77652380D01*
X114295238Y-77604761D01*
X114200000Y-77509523D01*
X114152380Y-77319047D01*
X114152380Y-76985714D01*
X114200000Y-76795238D01*
X114295238Y-76700000D01*
X114390476Y-76652380D01*
X115200000Y-76747619D02*
X115247619Y-76700000D01*
X115342857Y-76652380D01*
X115580952Y-76652380D01*
X115676190Y-76700000D01*
X115723809Y-76747619D01*
X115771428Y-76842857D01*
X115771428Y-76938095D01*
X115723809Y-77080952D01*
X115152380Y-77652380D01*
X115771428Y-77652380D01*
X116104761Y-76652380D02*
X116771428Y-76652380D01*
X116342857Y-77652380D01*
X113723809Y-80252380D02*
X113723809Y-79252380D01*
X114390476Y-79252380D02*
X114580952Y-79252380D01*
X114676190Y-79300000D01*
X114771428Y-79395238D01*
X114819047Y-79585714D01*
X114819047Y-79919047D01*
X114771428Y-80109523D01*
X114676190Y-80204761D01*
X114580952Y-80252380D01*
X114390476Y-80252380D01*
X114295238Y-80204761D01*
X114200000Y-80109523D01*
X114152380Y-79919047D01*
X114152380Y-79585714D01*
X114200000Y-79395238D01*
X114295238Y-79300000D01*
X114390476Y-79252380D01*
X115771428Y-80252380D02*
X115200000Y-80252380D01*
X115485714Y-80252380D02*
X115485714Y-79252380D01*
X115390476Y-79395238D01*
X115295238Y-79490476D01*
X115200000Y-79538095D01*
X116104761Y-79252380D02*
X116771428Y-79252380D01*
X116342857Y-80252380D01*
X114000000Y-85252380D02*
X114000000Y-84252380D01*
X114666666Y-84252380D02*
X114857142Y-84252380D01*
X114952380Y-84300000D01*
X115047619Y-84395238D01*
X115095238Y-84585714D01*
X115095238Y-84919047D01*
X115047619Y-85109523D01*
X114952380Y-85204761D01*
X114857142Y-85252380D01*
X114666666Y-85252380D01*
X114571428Y-85204761D01*
X114476190Y-85109523D01*
X114428571Y-84919047D01*
X114428571Y-84585714D01*
X114476190Y-84395238D01*
X114571428Y-84300000D01*
X114666666Y-84252380D01*
X115952380Y-84585714D02*
X115952380Y-85252380D01*
X115714285Y-84204761D02*
X115476190Y-84919047D01*
X116095238Y-84919047D01*
X114261904Y-81900000D02*
X114166666Y-81852380D01*
X114023809Y-81852380D01*
X113880952Y-81900000D01*
X113785714Y-81995238D01*
X113738095Y-82090476D01*
X113690476Y-82280952D01*
X113690476Y-82423809D01*
X113738095Y-82614285D01*
X113785714Y-82709523D01*
X113880952Y-82804761D01*
X114023809Y-82852380D01*
X114119047Y-82852380D01*
X114261904Y-82804761D01*
X114309523Y-82757142D01*
X114309523Y-82423809D01*
X114119047Y-82423809D01*
X115309523Y-82852380D02*
X114976190Y-82376190D01*
X114738095Y-82852380D02*
X114738095Y-81852380D01*
X115119047Y-81852380D01*
X115214285Y-81900000D01*
X115261904Y-81947619D01*
X115309523Y-82042857D01*
X115309523Y-82185714D01*
X115261904Y-82280952D01*
X115214285Y-82328571D01*
X115119047Y-82376190D01*
X114738095Y-82376190D01*
X115738095Y-82852380D02*
X115738095Y-81852380D01*
X115976190Y-81852380D01*
X116119047Y-81900000D01*
X116214285Y-81995238D01*
X116261904Y-82090476D01*
X116309523Y-82280952D01*
X116309523Y-82423809D01*
X116261904Y-82614285D01*
X116214285Y-82709523D01*
X116119047Y-82804761D01*
X115976190Y-82852380D01*
X115738095Y-82852380D01*
X113809523Y-87804761D02*
X113952380Y-87852380D01*
X114190476Y-87852380D01*
X114285714Y-87804761D01*
X114333333Y-87757142D01*
X114380952Y-87661904D01*
X114380952Y-87566666D01*
X114333333Y-87471428D01*
X114285714Y-87423809D01*
X114190476Y-87376190D01*
X114000000Y-87328571D01*
X113904761Y-87280952D01*
X113857142Y-87233333D01*
X113809523Y-87138095D01*
X113809523Y-87042857D01*
X113857142Y-86947619D01*
X113904761Y-86900000D01*
X114000000Y-86852380D01*
X114238095Y-86852380D01*
X114380952Y-86900000D01*
X115380952Y-87757142D02*
X115333333Y-87804761D01*
X115190476Y-87852380D01*
X115095238Y-87852380D01*
X114952380Y-87804761D01*
X114857142Y-87709523D01*
X114809523Y-87614285D01*
X114761904Y-87423809D01*
X114761904Y-87280952D01*
X114809523Y-87090476D01*
X114857142Y-86995238D01*
X114952380Y-86900000D01*
X115095238Y-86852380D01*
X115190476Y-86852380D01*
X115333333Y-86900000D01*
X115380952Y-86947619D01*
X116285714Y-87852380D02*
X115809523Y-87852380D01*
X115809523Y-86852380D01*
X113785714Y-90404761D02*
X113928571Y-90452380D01*
X114166666Y-90452380D01*
X114261904Y-90404761D01*
X114309523Y-90357142D01*
X114357142Y-90261904D01*
X114357142Y-90166666D01*
X114309523Y-90071428D01*
X114261904Y-90023809D01*
X114166666Y-89976190D01*
X113976190Y-89928571D01*
X113880952Y-89880952D01*
X113833333Y-89833333D01*
X113785714Y-89738095D01*
X113785714Y-89642857D01*
X113833333Y-89547619D01*
X113880952Y-89500000D01*
X113976190Y-89452380D01*
X114214285Y-89452380D01*
X114357142Y-89500000D01*
X114785714Y-90452380D02*
X114785714Y-89452380D01*
X115023809Y-89452380D01*
X115166666Y-89500000D01*
X115261904Y-89595238D01*
X115309523Y-89690476D01*
X115357142Y-89880952D01*
X115357142Y-90023809D01*
X115309523Y-90214285D01*
X115261904Y-90309523D01*
X115166666Y-90404761D01*
X115023809Y-90452380D01*
X114785714Y-90452380D01*
X115738095Y-90166666D02*
X116214285Y-90166666D01*
X115642857Y-90452380D02*
X115976190Y-89452380D01*
X116309523Y-90452380D01*
X113723809Y-92052380D02*
X114342857Y-92052380D01*
X114009523Y-92433333D01*
X114152380Y-92433333D01*
X114247619Y-92480952D01*
X114295238Y-92528571D01*
X114342857Y-92623809D01*
X114342857Y-92861904D01*
X114295238Y-92957142D01*
X114247619Y-93004761D01*
X114152380Y-93052380D01*
X113866666Y-93052380D01*
X113771428Y-93004761D01*
X113723809Y-92957142D01*
X114771428Y-92957142D02*
X114819047Y-93004761D01*
X114771428Y-93052380D01*
X114723809Y-93004761D01*
X114771428Y-92957142D01*
X114771428Y-93052380D01*
X115152380Y-92052380D02*
X115771428Y-92052380D01*
X115438095Y-92433333D01*
X115580952Y-92433333D01*
X115676190Y-92480952D01*
X115723809Y-92528571D01*
X115771428Y-92623809D01*
X115771428Y-92861904D01*
X115723809Y-92957142D01*
X115676190Y-93004761D01*
X115580952Y-93052380D01*
X115295238Y-93052380D01*
X115200000Y-93004761D01*
X115152380Y-92957142D01*
X116057142Y-92052380D02*
X116390476Y-93052380D01*
X116723809Y-92052380D01*
X96809523Y-90852380D02*
X96333333Y-90852380D01*
X96285714Y-91328571D01*
X96333333Y-91280952D01*
X96428571Y-91233333D01*
X96666666Y-91233333D01*
X96761904Y-91280952D01*
X96809523Y-91328571D01*
X96857142Y-91423809D01*
X96857142Y-91661904D01*
X96809523Y-91757142D01*
X96761904Y-91804761D01*
X96666666Y-91852380D01*
X96428571Y-91852380D01*
X96333333Y-91804761D01*
X96285714Y-91757142D01*
X97142857Y-90852380D02*
X97476190Y-91852380D01*
X97809523Y-90852380D01*
X96061904Y-87100000D02*
X95966666Y-87052380D01*
X95823809Y-87052380D01*
X95680952Y-87100000D01*
X95585714Y-87195238D01*
X95538095Y-87290476D01*
X95490476Y-87480952D01*
X95490476Y-87623809D01*
X95538095Y-87814285D01*
X95585714Y-87909523D01*
X95680952Y-88004761D01*
X95823809Y-88052380D01*
X95919047Y-88052380D01*
X96061904Y-88004761D01*
X96109523Y-87957142D01*
X96109523Y-87623809D01*
X95919047Y-87623809D01*
X97109523Y-88052380D02*
X96776190Y-87576190D01*
X96538095Y-88052380D02*
X96538095Y-87052380D01*
X96919047Y-87052380D01*
X97014285Y-87100000D01*
X97061904Y-87147619D01*
X97109523Y-87242857D01*
X97109523Y-87385714D01*
X97061904Y-87480952D01*
X97014285Y-87528571D01*
X96919047Y-87576190D01*
X96538095Y-87576190D01*
X97538095Y-88052380D02*
X97538095Y-87052380D01*
X97776190Y-87052380D01*
X97919047Y-87100000D01*
X98014285Y-87195238D01*
X98061904Y-87290476D01*
X98109523Y-87480952D01*
X98109523Y-87623809D01*
X98061904Y-87814285D01*
X98014285Y-87909523D01*
X97919047Y-88004761D01*
X97776190Y-88052380D01*
X97538095Y-88052380D01*
D11*
X95200000Y-94000000D02*
X99200000Y-94000000D01*
X95200000Y-88800000D02*
X95200000Y-94000000D01*
X99200000Y-88800000D02*
X95200000Y-88800000D01*
D10*
X99390476Y-37427380D02*
X99057142Y-36951190D01*
X98819047Y-37427380D02*
X98819047Y-36427380D01*
X99200000Y-36427380D01*
X99295238Y-36475000D01*
X99342857Y-36522619D01*
X99390476Y-36617857D01*
X99390476Y-36760714D01*
X99342857Y-36855952D01*
X99295238Y-36903571D01*
X99200000Y-36951190D01*
X98819047Y-36951190D01*
X99819047Y-37427380D02*
X99819047Y-36427380D01*
X100200000Y-36427380D01*
X100295238Y-36475000D01*
X100342857Y-36522619D01*
X100390476Y-36617857D01*
X100390476Y-36760714D01*
X100342857Y-36855952D01*
X100295238Y-36903571D01*
X100200000Y-36951190D01*
X99819047Y-36951190D01*
X100819047Y-37427380D02*
X100819047Y-36760714D01*
X100819047Y-36427380D02*
X100771428Y-36475000D01*
X100819047Y-36522619D01*
X100866666Y-36475000D01*
X100819047Y-36427380D01*
X100819047Y-36522619D01*
X102009523Y-36522619D02*
X102057142Y-36475000D01*
X102152380Y-36427380D01*
X102390476Y-36427380D01*
X102485714Y-36475000D01*
X102533333Y-36522619D01*
X102580952Y-36617857D01*
X102580952Y-36713095D01*
X102533333Y-36855952D01*
X101961904Y-37427380D01*
X102580952Y-37427380D01*
X103723809Y-36379761D02*
X102866666Y-37665476D01*
X103961904Y-36427380D02*
X104580952Y-36427380D01*
X104247619Y-36808333D01*
X104390476Y-36808333D01*
X104485714Y-36855952D01*
X104533333Y-36903571D01*
X104580952Y-36998809D01*
X104580952Y-37236904D01*
X104533333Y-37332142D01*
X104485714Y-37379761D01*
X104390476Y-37427380D01*
X104104761Y-37427380D01*
X104009523Y-37379761D01*
X103961904Y-37332142D01*
X105771428Y-37427380D02*
X105771428Y-36427380D01*
X106152380Y-36427380D01*
X106247619Y-36475000D01*
X106295238Y-36522619D01*
X106342857Y-36617857D01*
X106342857Y-36760714D01*
X106295238Y-36855952D01*
X106247619Y-36903571D01*
X106152380Y-36951190D01*
X105771428Y-36951190D01*
X106771428Y-37427380D02*
X106771428Y-36427380D01*
X107247619Y-37427380D02*
X107247619Y-36427380D01*
X107819047Y-37427380D01*
X107819047Y-36427380D01*
X98104761Y-39077380D02*
X98104761Y-38077380D01*
X98104761Y-38553571D02*
X98676190Y-38553571D01*
X98676190Y-39077380D02*
X98676190Y-38077380D01*
X99152380Y-38553571D02*
X99485714Y-38553571D01*
X99628571Y-39077380D02*
X99152380Y-39077380D01*
X99152380Y-38077380D01*
X99628571Y-38077380D01*
X100009523Y-38791666D02*
X100485714Y-38791666D01*
X99914285Y-39077380D02*
X100247619Y-38077380D01*
X100580952Y-39077380D01*
X100914285Y-39077380D02*
X100914285Y-38077380D01*
X101152380Y-38077380D01*
X101295238Y-38125000D01*
X101390476Y-38220238D01*
X101438095Y-38315476D01*
X101485714Y-38505952D01*
X101485714Y-38648809D01*
X101438095Y-38839285D01*
X101390476Y-38934523D01*
X101295238Y-39029761D01*
X101152380Y-39077380D01*
X100914285Y-39077380D01*
X101914285Y-38553571D02*
X102247619Y-38553571D01*
X102390476Y-39077380D02*
X101914285Y-39077380D01*
X101914285Y-38077380D01*
X102390476Y-38077380D01*
X103390476Y-39077380D02*
X103057142Y-38601190D01*
X102819047Y-39077380D02*
X102819047Y-38077380D01*
X103200000Y-38077380D01*
X103295238Y-38125000D01*
X103342857Y-38172619D01*
X103390476Y-38267857D01*
X103390476Y-38410714D01*
X103342857Y-38505952D01*
X103295238Y-38553571D01*
X103200000Y-38601190D01*
X102819047Y-38601190D01*
X104533333Y-39029761D02*
X104676190Y-39077380D01*
X104914285Y-39077380D01*
X105009523Y-39029761D01*
X105057142Y-38982142D01*
X105104761Y-38886904D01*
X105104761Y-38791666D01*
X105057142Y-38696428D01*
X105009523Y-38648809D01*
X104914285Y-38601190D01*
X104723809Y-38553571D01*
X104628571Y-38505952D01*
X104580952Y-38458333D01*
X104533333Y-38363095D01*
X104533333Y-38267857D01*
X104580952Y-38172619D01*
X104628571Y-38125000D01*
X104723809Y-38077380D01*
X104961904Y-38077380D01*
X105104761Y-38125000D01*
X105533333Y-39077380D02*
X105533333Y-38077380D01*
X105533333Y-38553571D02*
X106104761Y-38553571D01*
X106104761Y-39077380D02*
X106104761Y-38077380D01*
X106580952Y-39077380D02*
X106580952Y-38077380D01*
X107057142Y-38553571D02*
X107390476Y-38553571D01*
X107533333Y-39077380D02*
X107057142Y-39077380D01*
X107057142Y-38077380D01*
X107533333Y-38077380D01*
X108438095Y-39077380D02*
X107961904Y-39077380D01*
X107961904Y-38077380D01*
X108771428Y-39077380D02*
X108771428Y-38077380D01*
X109009523Y-38077380D01*
X109152380Y-38125000D01*
X109247619Y-38220238D01*
X109295238Y-38315476D01*
X109342857Y-38505952D01*
X109342857Y-38648809D01*
X109295238Y-38839285D01*
X109247619Y-38934523D01*
X109152380Y-39029761D01*
X109009523Y-39077380D01*
X108771428Y-39077380D01*
D11*
G04 #@! TO.C,J3*
X112900000Y-67700000D02*
X112900000Y-67200000D01*
X112160000Y-67700000D02*
X112900000Y-67700000D01*
X106340000Y-41480000D02*
X112660000Y-41480000D01*
X106340000Y-67460000D02*
X112660000Y-67460000D01*
X112660000Y-67460000D02*
X112660000Y-41480000D01*
X106340000Y-67460000D02*
X106340000Y-41480000D01*
X106800000Y-67460000D02*
X106800000Y-41480000D01*
X112100000Y-67460000D02*
X112100000Y-41480000D01*
G04 #@! TO.C,J5*
X105700000Y-67700000D02*
X105700000Y-67200000D01*
X104960000Y-67700000D02*
X105700000Y-67700000D01*
X99140000Y-41480000D02*
X105460000Y-41480000D01*
X99140000Y-67460000D02*
X105460000Y-67460000D01*
X105460000Y-67460000D02*
X105460000Y-41480000D01*
X99140000Y-67460000D02*
X99140000Y-41480000D01*
X99600000Y-67460000D02*
X99600000Y-41480000D01*
X104900000Y-67460000D02*
X104900000Y-41480000D01*
G04 #@! TO.C,J2*
X112900000Y-94360000D02*
X112900000Y-93860000D01*
X112160000Y-94360000D02*
X112900000Y-94360000D01*
X106340000Y-68140000D02*
X112660000Y-68140000D01*
X106340000Y-94120000D02*
X112660000Y-94120000D01*
X112660000Y-94120000D02*
X112660000Y-68140000D01*
X106340000Y-94120000D02*
X106340000Y-68140000D01*
X106800000Y-94120000D02*
X106800000Y-68140000D01*
X112100000Y-94120000D02*
X112100000Y-68140000D01*
G04 #@! TO.C,J4*
X105700000Y-94360000D02*
X105700000Y-93860000D01*
X104960000Y-94360000D02*
X105700000Y-94360000D01*
X99140000Y-68140000D02*
X105460000Y-68140000D01*
X99140000Y-94120000D02*
X105460000Y-94120000D01*
X105460000Y-94120000D02*
X105460000Y-68140000D01*
X99140000Y-94120000D02*
X99140000Y-68140000D01*
X99600000Y-94120000D02*
X99600000Y-68140000D01*
X104900000Y-94120000D02*
X104900000Y-68140000D01*
G04 #@! TD*
M02*
