M48
; DRILL file {KiCad (5.1.6)-1} date 11/02/20 00:41:27
; FORMAT={-:-/ absolute / metric / decimal}
; #@! TF.CreationDate,2020-11-02T00:41:27+04:00
; #@! TF.GenerationSoftware,Kicad,Pcbnew,(5.1.6)-1
; #@! TF.FileFunction,Plated,1,2,PTH
FMAT,2
METRIC
T1C1.000
T2C1.100
%
G90
G05
T1
X90.56Y-43.74
X90.56Y-46.28
X90.56Y-48.82
X90.56Y-51.36
X90.56Y-53.9
X90.56Y-56.44
X90.56Y-58.98
X90.56Y-61.52
X90.56Y-64.06
X90.56Y-66.6
X90.56Y-69.14
X90.56Y-71.68
X90.56Y-74.22
X90.56Y-76.76
X90.56Y-79.3
X90.56Y-81.84
X90.56Y-84.38
X90.56Y-86.92
X90.56Y-89.46
X90.56Y-92.0
X93.1Y-43.74
X93.1Y-46.28
X93.1Y-48.82
X93.1Y-51.36
X93.1Y-53.9
X93.1Y-56.44
X93.1Y-58.98
X93.1Y-61.52
X93.1Y-64.06
X93.1Y-66.6
X93.1Y-69.14
X93.1Y-71.68
X93.1Y-74.22
X93.1Y-76.76
X93.1Y-79.3
X93.1Y-81.84
X93.1Y-84.38
X93.1Y-86.92
X93.1Y-89.46
X93.1Y-92.0
T2
X102.3Y-69.7
X102.3Y-72.24
X102.3Y-74.78
X102.3Y-77.32
X102.3Y-79.86
X102.3Y-82.4
X102.3Y-84.94
X102.3Y-87.48
X102.3Y-90.02
X102.3Y-92.56
X109.5Y-69.7
X109.5Y-72.24
X109.5Y-74.78
X109.5Y-77.32
X109.5Y-79.86
X109.5Y-82.4
X109.5Y-84.94
X109.5Y-87.48
X109.5Y-90.02
X109.5Y-92.56
X109.5Y-43.04
X109.5Y-45.58
X109.5Y-48.12
X109.5Y-50.66
X109.5Y-53.2
X109.5Y-55.74
X109.5Y-58.28
X109.5Y-60.82
X109.5Y-63.36
X109.5Y-65.9
X102.3Y-43.04
X102.3Y-45.58
X102.3Y-48.12
X102.3Y-50.66
X102.3Y-53.2
X102.3Y-55.74
X102.3Y-58.28
X102.3Y-60.82
X102.3Y-63.36
X102.3Y-65.9
T0
M30
