G04 #@! TF.GenerationSoftware,KiCad,Pcbnew,(5.1.6)-1*
G04 #@! TF.CreationDate,2020-11-02T00:41:24+04:00*
G04 #@! TF.ProjectId,RPi3-screw-terminal-shiel,52506933-2d73-4637-9265-772d7465726d,rev?*
G04 #@! TF.SameCoordinates,Original*
G04 #@! TF.FileFunction,Legend,Bot*
G04 #@! TF.FilePolarity,Positive*
%FSLAX46Y46*%
G04 Gerber Fmt 4.6, Leading zero omitted, Abs format (unit mm)*
G04 Created by KiCad (PCBNEW (5.1.6)-1) date 2020-11-02 00:41:24*
%MOMM*%
%LPD*%
G01*
G04 APERTURE LIST*
%ADD10C,0.150000*%
%ADD11C,0.010000*%
%ADD12C,0.120000*%
G04 APERTURE END LIST*
D10*
X97052380Y-57600000D02*
X96052380Y-57600000D01*
X97052380Y-58028571D02*
X96528571Y-58028571D01*
X96433333Y-57980952D01*
X96385714Y-57885714D01*
X96385714Y-57742857D01*
X96433333Y-57647619D01*
X96480952Y-57600000D01*
X96385714Y-58361904D02*
X96385714Y-58742857D01*
X96052380Y-58504761D02*
X96909523Y-58504761D01*
X97004761Y-58552380D01*
X97052380Y-58647619D01*
X97052380Y-58742857D01*
X96385714Y-58933333D02*
X96385714Y-59314285D01*
X96052380Y-59076190D02*
X96909523Y-59076190D01*
X97004761Y-59123809D01*
X97052380Y-59219047D01*
X97052380Y-59314285D01*
X96385714Y-59647619D02*
X97385714Y-59647619D01*
X96433333Y-59647619D02*
X96385714Y-59742857D01*
X96385714Y-59933333D01*
X96433333Y-60028571D01*
X96480952Y-60076190D01*
X96576190Y-60123809D01*
X96861904Y-60123809D01*
X96957142Y-60076190D01*
X97004761Y-60028571D01*
X97052380Y-59933333D01*
X97052380Y-59742857D01*
X97004761Y-59647619D01*
X97004761Y-60504761D02*
X97052380Y-60600000D01*
X97052380Y-60790476D01*
X97004761Y-60885714D01*
X96909523Y-60933333D01*
X96861904Y-60933333D01*
X96766666Y-60885714D01*
X96719047Y-60790476D01*
X96719047Y-60647619D01*
X96671428Y-60552380D01*
X96576190Y-60504761D01*
X96528571Y-60504761D01*
X96433333Y-60552380D01*
X96385714Y-60647619D01*
X96385714Y-60790476D01*
X96433333Y-60885714D01*
X96957142Y-61361904D02*
X97004761Y-61409523D01*
X97052380Y-61361904D01*
X97004761Y-61314285D01*
X96957142Y-61361904D01*
X97052380Y-61361904D01*
X96433333Y-61361904D02*
X96480952Y-61409523D01*
X96528571Y-61361904D01*
X96480952Y-61314285D01*
X96433333Y-61361904D01*
X96528571Y-61361904D01*
X96004761Y-62552380D02*
X97290476Y-61695238D01*
X96004761Y-63600000D02*
X97290476Y-62742857D01*
X96385714Y-63790476D02*
X96385714Y-64171428D01*
X96052380Y-63933333D02*
X96909523Y-63933333D01*
X97004761Y-63980952D01*
X97052380Y-64076190D01*
X97052380Y-64171428D01*
X97004761Y-64885714D02*
X97052380Y-64790476D01*
X97052380Y-64600000D01*
X97004761Y-64504761D01*
X96909523Y-64457142D01*
X96528571Y-64457142D01*
X96433333Y-64504761D01*
X96385714Y-64600000D01*
X96385714Y-64790476D01*
X96433333Y-64885714D01*
X96528571Y-64933333D01*
X96623809Y-64933333D01*
X96719047Y-64457142D01*
X97004761Y-65790476D02*
X97052380Y-65695238D01*
X97052380Y-65504761D01*
X97004761Y-65409523D01*
X96957142Y-65361904D01*
X96861904Y-65314285D01*
X96576190Y-65314285D01*
X96480952Y-65361904D01*
X96433333Y-65409523D01*
X96385714Y-65504761D01*
X96385714Y-65695238D01*
X96433333Y-65790476D01*
X97052380Y-66219047D02*
X96052380Y-66219047D01*
X96671428Y-66314285D02*
X97052380Y-66599999D01*
X96385714Y-66599999D02*
X96766666Y-66219047D01*
X96385714Y-67028571D02*
X97052380Y-67028571D01*
X96480952Y-67028571D02*
X96433333Y-67076190D01*
X96385714Y-67171428D01*
X96385714Y-67314285D01*
X96433333Y-67409523D01*
X96528571Y-67457142D01*
X97052380Y-67457142D01*
X97052380Y-68076190D02*
X97004761Y-67980952D01*
X96957142Y-67933333D01*
X96861904Y-67885714D01*
X96576190Y-67885714D01*
X96480952Y-67933333D01*
X96433333Y-67980952D01*
X96385714Y-68076190D01*
X96385714Y-68219047D01*
X96433333Y-68314285D01*
X96480952Y-68361904D01*
X96576190Y-68409523D01*
X96861904Y-68409523D01*
X96957142Y-68361904D01*
X97004761Y-68314285D01*
X97052380Y-68219047D01*
X97052380Y-68076190D01*
X97052380Y-68980952D02*
X97004761Y-68885714D01*
X96909523Y-68838095D01*
X96052380Y-68838095D01*
X97052380Y-69504761D02*
X97004761Y-69409523D01*
X96957142Y-69361904D01*
X96861904Y-69314285D01*
X96576190Y-69314285D01*
X96480952Y-69361904D01*
X96433333Y-69409523D01*
X96385714Y-69504761D01*
X96385714Y-69647619D01*
X96433333Y-69742857D01*
X96480952Y-69790476D01*
X96576190Y-69838095D01*
X96861904Y-69838095D01*
X96957142Y-69790476D01*
X97004761Y-69742857D01*
X97052380Y-69647619D01*
X97052380Y-69504761D01*
X96385714Y-70695238D02*
X97195238Y-70695238D01*
X97290476Y-70647619D01*
X97338095Y-70599999D01*
X97385714Y-70504761D01*
X97385714Y-70361904D01*
X97338095Y-70266666D01*
X97004761Y-70695238D02*
X97052380Y-70599999D01*
X97052380Y-70409523D01*
X97004761Y-70314285D01*
X96957142Y-70266666D01*
X96861904Y-70219047D01*
X96576190Y-70219047D01*
X96480952Y-70266666D01*
X96433333Y-70314285D01*
X96385714Y-70409523D01*
X96385714Y-70599999D01*
X96433333Y-70695238D01*
X96385714Y-71599999D02*
X97195238Y-71599999D01*
X97290476Y-71552380D01*
X97338095Y-71504761D01*
X97385714Y-71409523D01*
X97385714Y-71266666D01*
X97338095Y-71171428D01*
X97004761Y-71599999D02*
X97052380Y-71504761D01*
X97052380Y-71314285D01*
X97004761Y-71219047D01*
X96957142Y-71171428D01*
X96861904Y-71123809D01*
X96576190Y-71123809D01*
X96480952Y-71171428D01*
X96433333Y-71219047D01*
X96385714Y-71314285D01*
X96385714Y-71504761D01*
X96433333Y-71599999D01*
X96957142Y-72076190D02*
X97004761Y-72123809D01*
X97052380Y-72076190D01*
X97004761Y-72028571D01*
X96957142Y-72076190D01*
X97052380Y-72076190D01*
X96385714Y-72457142D02*
X97052380Y-72647619D01*
X96576190Y-72838095D01*
X97052380Y-73028571D01*
X96385714Y-73219047D01*
X97004761Y-73980952D02*
X97052380Y-73885714D01*
X97052380Y-73695238D01*
X97004761Y-73599999D01*
X96909523Y-73552380D01*
X96528571Y-73552380D01*
X96433333Y-73599999D01*
X96385714Y-73695238D01*
X96385714Y-73885714D01*
X96433333Y-73980952D01*
X96528571Y-74028571D01*
X96623809Y-74028571D01*
X96719047Y-73552380D01*
X97052380Y-74457142D02*
X96052380Y-74457142D01*
X96433333Y-74457142D02*
X96385714Y-74552380D01*
X96385714Y-74742857D01*
X96433333Y-74838095D01*
X96480952Y-74885714D01*
X96576190Y-74933333D01*
X96861904Y-74933333D01*
X96957142Y-74885714D01*
X97004761Y-74838095D01*
X97052380Y-74742857D01*
X97052380Y-74552380D01*
X97004761Y-74457142D01*
X97004761Y-75314285D02*
X97052380Y-75409523D01*
X97052380Y-75599999D01*
X97004761Y-75695238D01*
X96909523Y-75742857D01*
X96861904Y-75742857D01*
X96766666Y-75695238D01*
X96719047Y-75599999D01*
X96719047Y-75457142D01*
X96671428Y-75361904D01*
X96576190Y-75314285D01*
X96528571Y-75314285D01*
X96433333Y-75361904D01*
X96385714Y-75457142D01*
X96385714Y-75599999D01*
X96433333Y-75695238D01*
X97052380Y-76171428D02*
X96385714Y-76171428D01*
X96052380Y-76171428D02*
X96100000Y-76123809D01*
X96147619Y-76171428D01*
X96100000Y-76219047D01*
X96052380Y-76171428D01*
X96147619Y-76171428D01*
X96385714Y-76504761D02*
X96385714Y-76885714D01*
X96052380Y-76647619D02*
X96909523Y-76647619D01*
X97004761Y-76695238D01*
X97052380Y-76790476D01*
X97052380Y-76885714D01*
X97004761Y-77599999D02*
X97052380Y-77504761D01*
X97052380Y-77314285D01*
X97004761Y-77219047D01*
X96909523Y-77171428D01*
X96528571Y-77171428D01*
X96433333Y-77219047D01*
X96385714Y-77314285D01*
X96385714Y-77504761D01*
X96433333Y-77599999D01*
X96528571Y-77647619D01*
X96623809Y-77647619D01*
X96719047Y-77171428D01*
D11*
G04 #@! TO.C,REF\u002A\u002A*
G36*
X112168931Y-68155814D02*
G01*
X112613555Y-68239635D01*
X112741053Y-68548920D01*
X112868551Y-68858206D01*
X112616246Y-69229246D01*
X112545996Y-69333157D01*
X112483272Y-69427087D01*
X112430938Y-69506652D01*
X112391857Y-69567470D01*
X112368893Y-69605157D01*
X112363942Y-69615421D01*
X112376676Y-69633910D01*
X112411882Y-69673420D01*
X112465062Y-69729522D01*
X112531718Y-69797787D01*
X112607354Y-69873786D01*
X112687472Y-69953092D01*
X112767574Y-70031275D01*
X112843164Y-70103907D01*
X112909745Y-70166559D01*
X112962818Y-70214803D01*
X112997887Y-70244210D01*
X113009623Y-70251241D01*
X113031260Y-70241123D01*
X113078662Y-70212759D01*
X113147193Y-70169129D01*
X113232215Y-70113218D01*
X113329093Y-70048006D01*
X113384350Y-70010219D01*
X113485248Y-69941343D01*
X113576299Y-69880140D01*
X113652970Y-69829578D01*
X113710728Y-69792628D01*
X113745043Y-69772258D01*
X113752254Y-69769197D01*
X113772748Y-69776136D01*
X113820513Y-69795051D01*
X113888832Y-69823087D01*
X113970989Y-69857391D01*
X114060270Y-69895109D01*
X114149958Y-69933387D01*
X114233338Y-69969370D01*
X114303694Y-70000206D01*
X114354310Y-70023039D01*
X114378471Y-70035017D01*
X114379422Y-70035724D01*
X114384036Y-70054531D01*
X114394328Y-70104618D01*
X114409287Y-70180793D01*
X114427901Y-70277865D01*
X114449159Y-70390643D01*
X114461418Y-70456442D01*
X114484362Y-70576950D01*
X114506195Y-70685797D01*
X114525722Y-70777476D01*
X114541748Y-70846481D01*
X114553079Y-70887304D01*
X114556674Y-70895511D01*
X114581006Y-70903548D01*
X114635959Y-70910033D01*
X114715108Y-70914970D01*
X114812026Y-70918364D01*
X114920287Y-70920218D01*
X115033465Y-70920538D01*
X115145135Y-70919327D01*
X115248868Y-70916590D01*
X115338241Y-70912331D01*
X115406826Y-70906555D01*
X115448197Y-70899267D01*
X115456810Y-70894895D01*
X115467133Y-70868764D01*
X115481892Y-70813393D01*
X115499352Y-70736107D01*
X115517780Y-70644230D01*
X115523741Y-70612158D01*
X115552066Y-70457524D01*
X115574876Y-70335375D01*
X115593080Y-70241673D01*
X115607583Y-70172384D01*
X115619292Y-70123471D01*
X115629115Y-70090897D01*
X115637956Y-70070628D01*
X115646724Y-70058626D01*
X115648457Y-70056947D01*
X115676371Y-70040184D01*
X115730695Y-70014614D01*
X115804777Y-69982788D01*
X115891965Y-69947260D01*
X115985608Y-69910583D01*
X116079052Y-69875311D01*
X116165647Y-69843996D01*
X116238740Y-69819193D01*
X116291678Y-69803454D01*
X116317811Y-69799332D01*
X116318726Y-69799676D01*
X116340086Y-69813641D01*
X116387084Y-69845322D01*
X116454827Y-69891391D01*
X116538423Y-69948518D01*
X116632982Y-70013373D01*
X116659854Y-70031843D01*
X116757275Y-70097699D01*
X116846163Y-70155650D01*
X116921412Y-70202538D01*
X116977920Y-70235207D01*
X117010581Y-70250500D01*
X117014593Y-70251241D01*
X117035684Y-70238392D01*
X117077464Y-70202888D01*
X117135445Y-70149293D01*
X117205135Y-70082171D01*
X117282045Y-70006087D01*
X117361683Y-69925604D01*
X117439561Y-69845287D01*
X117511186Y-69769699D01*
X117572070Y-69703405D01*
X117617721Y-69650969D01*
X117643650Y-69616955D01*
X117647883Y-69607545D01*
X117637912Y-69585643D01*
X117611020Y-69540800D01*
X117571736Y-69480321D01*
X117540117Y-69433789D01*
X117482098Y-69349475D01*
X117413784Y-69249626D01*
X117345579Y-69149473D01*
X117309075Y-69095627D01*
X117185800Y-68913371D01*
X117268520Y-68760381D01*
X117304759Y-68690682D01*
X117332926Y-68631414D01*
X117348991Y-68591311D01*
X117351226Y-68581103D01*
X117334722Y-68568829D01*
X117288082Y-68544613D01*
X117215609Y-68510263D01*
X117121606Y-68467588D01*
X117010374Y-68418394D01*
X116886215Y-68364490D01*
X116753432Y-68307684D01*
X116616327Y-68249782D01*
X116479202Y-68192593D01*
X116346358Y-68137924D01*
X116222098Y-68087584D01*
X116110725Y-68043380D01*
X116016539Y-68007119D01*
X115943844Y-67980609D01*
X115896941Y-67965658D01*
X115880833Y-67963254D01*
X115860286Y-67982311D01*
X115826933Y-68024036D01*
X115787702Y-68079706D01*
X115784599Y-68084378D01*
X115669423Y-68228264D01*
X115535053Y-68344283D01*
X115385784Y-68431430D01*
X115225913Y-68488699D01*
X115059737Y-68515086D01*
X114891552Y-68509585D01*
X114725655Y-68471190D01*
X114566342Y-68398895D01*
X114531487Y-68377626D01*
X114390737Y-68266996D01*
X114277714Y-68136302D01*
X114193003Y-67990064D01*
X114137194Y-67832808D01*
X114110874Y-67669057D01*
X114114630Y-67503333D01*
X114149050Y-67340162D01*
X114214723Y-67184065D01*
X114312235Y-67039567D01*
X114351813Y-66994869D01*
X114475703Y-66881112D01*
X114606124Y-66798218D01*
X114752315Y-66741356D01*
X114897088Y-66709687D01*
X115059860Y-66701869D01*
X115223440Y-66727938D01*
X115382298Y-66785245D01*
X115530906Y-66871144D01*
X115663735Y-66982986D01*
X115775256Y-67118123D01*
X115787011Y-67135883D01*
X115825508Y-67192150D01*
X115858863Y-67234923D01*
X115880160Y-67255372D01*
X115880833Y-67255669D01*
X115903871Y-67251279D01*
X115956157Y-67233876D01*
X116033390Y-67205268D01*
X116131268Y-67167265D01*
X116245491Y-67121674D01*
X116371758Y-67070303D01*
X116505767Y-67014962D01*
X116643218Y-66957458D01*
X116779808Y-66899601D01*
X116911237Y-66843198D01*
X117033205Y-66790058D01*
X117141409Y-66741990D01*
X117231549Y-66700801D01*
X117299323Y-66668301D01*
X117340430Y-66646297D01*
X117351226Y-66637436D01*
X117342819Y-66610360D01*
X117320272Y-66559697D01*
X117287613Y-66494183D01*
X117268520Y-66458159D01*
X117185800Y-66305168D01*
X117309075Y-66122912D01*
X117372228Y-66029875D01*
X117441727Y-65928015D01*
X117507165Y-65832562D01*
X117540117Y-65784750D01*
X117585273Y-65717505D01*
X117621057Y-65660564D01*
X117642938Y-65621354D01*
X117647563Y-65608619D01*
X117635085Y-65590083D01*
X117600252Y-65549059D01*
X117546678Y-65489525D01*
X117477983Y-65415458D01*
X117397781Y-65330835D01*
X117346286Y-65277315D01*
X117254286Y-65183681D01*
X117171999Y-65102759D01*
X117102945Y-65037823D01*
X117050644Y-64992142D01*
X117018616Y-64968989D01*
X117012116Y-64966768D01*
X116987394Y-64977076D01*
X116937405Y-65005561D01*
X116867212Y-65049063D01*
X116781875Y-65104423D01*
X116686456Y-65168480D01*
X116659854Y-65186697D01*
X116563167Y-65253073D01*
X116476117Y-65312622D01*
X116403595Y-65362016D01*
X116350493Y-65397925D01*
X116321703Y-65417019D01*
X116318726Y-65418864D01*
X116295782Y-65416105D01*
X116245336Y-65401462D01*
X116174041Y-65377487D01*
X116088547Y-65346734D01*
X115995507Y-65311756D01*
X115901574Y-65275107D01*
X115813399Y-65239339D01*
X115737634Y-65207006D01*
X115680931Y-65180662D01*
X115649943Y-65162858D01*
X115648457Y-65161593D01*
X115639601Y-65150706D01*
X115630843Y-65132318D01*
X115621277Y-65102394D01*
X115609996Y-65056897D01*
X115596093Y-64991791D01*
X115578663Y-64903039D01*
X115556798Y-64786607D01*
X115529591Y-64638458D01*
X115523741Y-64606382D01*
X115505374Y-64511314D01*
X115487405Y-64428435D01*
X115471569Y-64365070D01*
X115459600Y-64328542D01*
X115456810Y-64323644D01*
X115432072Y-64315573D01*
X115376790Y-64309013D01*
X115297389Y-64303967D01*
X115200296Y-64300441D01*
X115091938Y-64298439D01*
X114978740Y-64297964D01*
X114867128Y-64299023D01*
X114763529Y-64301618D01*
X114674368Y-64305754D01*
X114606072Y-64311437D01*
X114565066Y-64318669D01*
X114556674Y-64323029D01*
X114548208Y-64347302D01*
X114534435Y-64402574D01*
X114516550Y-64483338D01*
X114495748Y-64584088D01*
X114473223Y-64699317D01*
X114461418Y-64762098D01*
X114439151Y-64881213D01*
X114418979Y-64987435D01*
X114401915Y-65075573D01*
X114388969Y-65140434D01*
X114381155Y-65176826D01*
X114379422Y-65182816D01*
X114359890Y-65192939D01*
X114312843Y-65214338D01*
X114245003Y-65244161D01*
X114163091Y-65279555D01*
X114073828Y-65317668D01*
X113983935Y-65355647D01*
X113900135Y-65390640D01*
X113829147Y-65419794D01*
X113777694Y-65440257D01*
X113752497Y-65449177D01*
X113751396Y-65449343D01*
X113731519Y-65439231D01*
X113685777Y-65410883D01*
X113618717Y-65367277D01*
X113534884Y-65311394D01*
X113438826Y-65246213D01*
X113383650Y-65208321D01*
X113282481Y-65139275D01*
X113190630Y-65077950D01*
X113112744Y-65027337D01*
X113053469Y-64990429D01*
X113017451Y-64970218D01*
X113009377Y-64967299D01*
X112990584Y-64979847D01*
X112950457Y-65014537D01*
X112893493Y-65066937D01*
X112824185Y-65132616D01*
X112747031Y-65207144D01*
X112666525Y-65286087D01*
X112587163Y-65365017D01*
X112513440Y-65439500D01*
X112449852Y-65505106D01*
X112400894Y-65557404D01*
X112371061Y-65591961D01*
X112363942Y-65603522D01*
X112373953Y-65622346D01*
X112402078Y-65667369D01*
X112445454Y-65734213D01*
X112501218Y-65818501D01*
X112566506Y-65915856D01*
X112616246Y-65989293D01*
X112868551Y-66360333D01*
X112613555Y-66978905D01*
X112168931Y-67062725D01*
X111724307Y-67146546D01*
X111724307Y-68071994D01*
X112168931Y-68155814D01*
G37*
X112168931Y-68155814D02*
X112613555Y-68239635D01*
X112741053Y-68548920D01*
X112868551Y-68858206D01*
X112616246Y-69229246D01*
X112545996Y-69333157D01*
X112483272Y-69427087D01*
X112430938Y-69506652D01*
X112391857Y-69567470D01*
X112368893Y-69605157D01*
X112363942Y-69615421D01*
X112376676Y-69633910D01*
X112411882Y-69673420D01*
X112465062Y-69729522D01*
X112531718Y-69797787D01*
X112607354Y-69873786D01*
X112687472Y-69953092D01*
X112767574Y-70031275D01*
X112843164Y-70103907D01*
X112909745Y-70166559D01*
X112962818Y-70214803D01*
X112997887Y-70244210D01*
X113009623Y-70251241D01*
X113031260Y-70241123D01*
X113078662Y-70212759D01*
X113147193Y-70169129D01*
X113232215Y-70113218D01*
X113329093Y-70048006D01*
X113384350Y-70010219D01*
X113485248Y-69941343D01*
X113576299Y-69880140D01*
X113652970Y-69829578D01*
X113710728Y-69792628D01*
X113745043Y-69772258D01*
X113752254Y-69769197D01*
X113772748Y-69776136D01*
X113820513Y-69795051D01*
X113888832Y-69823087D01*
X113970989Y-69857391D01*
X114060270Y-69895109D01*
X114149958Y-69933387D01*
X114233338Y-69969370D01*
X114303694Y-70000206D01*
X114354310Y-70023039D01*
X114378471Y-70035017D01*
X114379422Y-70035724D01*
X114384036Y-70054531D01*
X114394328Y-70104618D01*
X114409287Y-70180793D01*
X114427901Y-70277865D01*
X114449159Y-70390643D01*
X114461418Y-70456442D01*
X114484362Y-70576950D01*
X114506195Y-70685797D01*
X114525722Y-70777476D01*
X114541748Y-70846481D01*
X114553079Y-70887304D01*
X114556674Y-70895511D01*
X114581006Y-70903548D01*
X114635959Y-70910033D01*
X114715108Y-70914970D01*
X114812026Y-70918364D01*
X114920287Y-70920218D01*
X115033465Y-70920538D01*
X115145135Y-70919327D01*
X115248868Y-70916590D01*
X115338241Y-70912331D01*
X115406826Y-70906555D01*
X115448197Y-70899267D01*
X115456810Y-70894895D01*
X115467133Y-70868764D01*
X115481892Y-70813393D01*
X115499352Y-70736107D01*
X115517780Y-70644230D01*
X115523741Y-70612158D01*
X115552066Y-70457524D01*
X115574876Y-70335375D01*
X115593080Y-70241673D01*
X115607583Y-70172384D01*
X115619292Y-70123471D01*
X115629115Y-70090897D01*
X115637956Y-70070628D01*
X115646724Y-70058626D01*
X115648457Y-70056947D01*
X115676371Y-70040184D01*
X115730695Y-70014614D01*
X115804777Y-69982788D01*
X115891965Y-69947260D01*
X115985608Y-69910583D01*
X116079052Y-69875311D01*
X116165647Y-69843996D01*
X116238740Y-69819193D01*
X116291678Y-69803454D01*
X116317811Y-69799332D01*
X116318726Y-69799676D01*
X116340086Y-69813641D01*
X116387084Y-69845322D01*
X116454827Y-69891391D01*
X116538423Y-69948518D01*
X116632982Y-70013373D01*
X116659854Y-70031843D01*
X116757275Y-70097699D01*
X116846163Y-70155650D01*
X116921412Y-70202538D01*
X116977920Y-70235207D01*
X117010581Y-70250500D01*
X117014593Y-70251241D01*
X117035684Y-70238392D01*
X117077464Y-70202888D01*
X117135445Y-70149293D01*
X117205135Y-70082171D01*
X117282045Y-70006087D01*
X117361683Y-69925604D01*
X117439561Y-69845287D01*
X117511186Y-69769699D01*
X117572070Y-69703405D01*
X117617721Y-69650969D01*
X117643650Y-69616955D01*
X117647883Y-69607545D01*
X117637912Y-69585643D01*
X117611020Y-69540800D01*
X117571736Y-69480321D01*
X117540117Y-69433789D01*
X117482098Y-69349475D01*
X117413784Y-69249626D01*
X117345579Y-69149473D01*
X117309075Y-69095627D01*
X117185800Y-68913371D01*
X117268520Y-68760381D01*
X117304759Y-68690682D01*
X117332926Y-68631414D01*
X117348991Y-68591311D01*
X117351226Y-68581103D01*
X117334722Y-68568829D01*
X117288082Y-68544613D01*
X117215609Y-68510263D01*
X117121606Y-68467588D01*
X117010374Y-68418394D01*
X116886215Y-68364490D01*
X116753432Y-68307684D01*
X116616327Y-68249782D01*
X116479202Y-68192593D01*
X116346358Y-68137924D01*
X116222098Y-68087584D01*
X116110725Y-68043380D01*
X116016539Y-68007119D01*
X115943844Y-67980609D01*
X115896941Y-67965658D01*
X115880833Y-67963254D01*
X115860286Y-67982311D01*
X115826933Y-68024036D01*
X115787702Y-68079706D01*
X115784599Y-68084378D01*
X115669423Y-68228264D01*
X115535053Y-68344283D01*
X115385784Y-68431430D01*
X115225913Y-68488699D01*
X115059737Y-68515086D01*
X114891552Y-68509585D01*
X114725655Y-68471190D01*
X114566342Y-68398895D01*
X114531487Y-68377626D01*
X114390737Y-68266996D01*
X114277714Y-68136302D01*
X114193003Y-67990064D01*
X114137194Y-67832808D01*
X114110874Y-67669057D01*
X114114630Y-67503333D01*
X114149050Y-67340162D01*
X114214723Y-67184065D01*
X114312235Y-67039567D01*
X114351813Y-66994869D01*
X114475703Y-66881112D01*
X114606124Y-66798218D01*
X114752315Y-66741356D01*
X114897088Y-66709687D01*
X115059860Y-66701869D01*
X115223440Y-66727938D01*
X115382298Y-66785245D01*
X115530906Y-66871144D01*
X115663735Y-66982986D01*
X115775256Y-67118123D01*
X115787011Y-67135883D01*
X115825508Y-67192150D01*
X115858863Y-67234923D01*
X115880160Y-67255372D01*
X115880833Y-67255669D01*
X115903871Y-67251279D01*
X115956157Y-67233876D01*
X116033390Y-67205268D01*
X116131268Y-67167265D01*
X116245491Y-67121674D01*
X116371758Y-67070303D01*
X116505767Y-67014962D01*
X116643218Y-66957458D01*
X116779808Y-66899601D01*
X116911237Y-66843198D01*
X117033205Y-66790058D01*
X117141409Y-66741990D01*
X117231549Y-66700801D01*
X117299323Y-66668301D01*
X117340430Y-66646297D01*
X117351226Y-66637436D01*
X117342819Y-66610360D01*
X117320272Y-66559697D01*
X117287613Y-66494183D01*
X117268520Y-66458159D01*
X117185800Y-66305168D01*
X117309075Y-66122912D01*
X117372228Y-66029875D01*
X117441727Y-65928015D01*
X117507165Y-65832562D01*
X117540117Y-65784750D01*
X117585273Y-65717505D01*
X117621057Y-65660564D01*
X117642938Y-65621354D01*
X117647563Y-65608619D01*
X117635085Y-65590083D01*
X117600252Y-65549059D01*
X117546678Y-65489525D01*
X117477983Y-65415458D01*
X117397781Y-65330835D01*
X117346286Y-65277315D01*
X117254286Y-65183681D01*
X117171999Y-65102759D01*
X117102945Y-65037823D01*
X117050644Y-64992142D01*
X117018616Y-64968989D01*
X117012116Y-64966768D01*
X116987394Y-64977076D01*
X116937405Y-65005561D01*
X116867212Y-65049063D01*
X116781875Y-65104423D01*
X116686456Y-65168480D01*
X116659854Y-65186697D01*
X116563167Y-65253073D01*
X116476117Y-65312622D01*
X116403595Y-65362016D01*
X116350493Y-65397925D01*
X116321703Y-65417019D01*
X116318726Y-65418864D01*
X116295782Y-65416105D01*
X116245336Y-65401462D01*
X116174041Y-65377487D01*
X116088547Y-65346734D01*
X115995507Y-65311756D01*
X115901574Y-65275107D01*
X115813399Y-65239339D01*
X115737634Y-65207006D01*
X115680931Y-65180662D01*
X115649943Y-65162858D01*
X115648457Y-65161593D01*
X115639601Y-65150706D01*
X115630843Y-65132318D01*
X115621277Y-65102394D01*
X115609996Y-65056897D01*
X115596093Y-64991791D01*
X115578663Y-64903039D01*
X115556798Y-64786607D01*
X115529591Y-64638458D01*
X115523741Y-64606382D01*
X115505374Y-64511314D01*
X115487405Y-64428435D01*
X115471569Y-64365070D01*
X115459600Y-64328542D01*
X115456810Y-64323644D01*
X115432072Y-64315573D01*
X115376790Y-64309013D01*
X115297389Y-64303967D01*
X115200296Y-64300441D01*
X115091938Y-64298439D01*
X114978740Y-64297964D01*
X114867128Y-64299023D01*
X114763529Y-64301618D01*
X114674368Y-64305754D01*
X114606072Y-64311437D01*
X114565066Y-64318669D01*
X114556674Y-64323029D01*
X114548208Y-64347302D01*
X114534435Y-64402574D01*
X114516550Y-64483338D01*
X114495748Y-64584088D01*
X114473223Y-64699317D01*
X114461418Y-64762098D01*
X114439151Y-64881213D01*
X114418979Y-64987435D01*
X114401915Y-65075573D01*
X114388969Y-65140434D01*
X114381155Y-65176826D01*
X114379422Y-65182816D01*
X114359890Y-65192939D01*
X114312843Y-65214338D01*
X114245003Y-65244161D01*
X114163091Y-65279555D01*
X114073828Y-65317668D01*
X113983935Y-65355647D01*
X113900135Y-65390640D01*
X113829147Y-65419794D01*
X113777694Y-65440257D01*
X113752497Y-65449177D01*
X113751396Y-65449343D01*
X113731519Y-65439231D01*
X113685777Y-65410883D01*
X113618717Y-65367277D01*
X113534884Y-65311394D01*
X113438826Y-65246213D01*
X113383650Y-65208321D01*
X113282481Y-65139275D01*
X113190630Y-65077950D01*
X113112744Y-65027337D01*
X113053469Y-64990429D01*
X113017451Y-64970218D01*
X113009377Y-64967299D01*
X112990584Y-64979847D01*
X112950457Y-65014537D01*
X112893493Y-65066937D01*
X112824185Y-65132616D01*
X112747031Y-65207144D01*
X112666525Y-65286087D01*
X112587163Y-65365017D01*
X112513440Y-65439500D01*
X112449852Y-65505106D01*
X112400894Y-65557404D01*
X112371061Y-65591961D01*
X112363942Y-65603522D01*
X112373953Y-65622346D01*
X112402078Y-65667369D01*
X112445454Y-65734213D01*
X112501218Y-65818501D01*
X112566506Y-65915856D01*
X112616246Y-65989293D01*
X112868551Y-66360333D01*
X112613555Y-66978905D01*
X112168931Y-67062725D01*
X111724307Y-67146546D01*
X111724307Y-68071994D01*
X112168931Y-68155814D01*
D12*
G04 #@! TO.C,J1*
X118390000Y-93680000D02*
X118390000Y-97370000D01*
X119090000Y-93680000D02*
X118390000Y-93680000D01*
X119090000Y-82260000D02*
X119090000Y-93680000D01*
X118390000Y-82260000D02*
X119090000Y-82260000D01*
X118390000Y-63030000D02*
X118390000Y-82260000D01*
X118390000Y-50430000D02*
X118390000Y-54910000D01*
X120190000Y-54910000D02*
X120190000Y-63030000D01*
X120190000Y-63030000D02*
X118390000Y-63030000D01*
X118390000Y-54910000D02*
X120190000Y-54910000D01*
X120190000Y-50430000D02*
X118390000Y-50430000D01*
X120190000Y-42310000D02*
X120190000Y-50430000D01*
X118390000Y-42310000D02*
X120190000Y-42310000D01*
X94770000Y-35310000D02*
X91330000Y-35310000D01*
X111890000Y-34110000D02*
X111890000Y-35310000D01*
X94770000Y-34110000D02*
X111890000Y-34110000D01*
X94770000Y-35310000D02*
X94770000Y-34110000D01*
X89230000Y-93330000D02*
X89230000Y-42410000D01*
X89230000Y-93330000D02*
X91830000Y-93330000D01*
X91830000Y-93330000D02*
X91830000Y-90730000D01*
X91830000Y-90730000D02*
X94430000Y-90730000D01*
X93100000Y-93330000D02*
X94430000Y-93330000D01*
X94430000Y-93330000D02*
X94430000Y-92000000D01*
X94430000Y-90730000D02*
X94430000Y-42410000D01*
X89230000Y-42410000D02*
X94430000Y-42410000D01*
X111890000Y-35310000D02*
X115330000Y-35310000D01*
X118390000Y-38370000D02*
X118390000Y-42310000D01*
X91330000Y-100430000D02*
X115330000Y-100430000D01*
X88270000Y-38370000D02*
X88270000Y-97370000D01*
X115330000Y-35310000D02*
G75*
G02*
X118390000Y-38370000I0J-3060000D01*
G01*
X88270000Y-38370000D02*
G75*
G02*
X91330000Y-35310000I3060000J0D01*
G01*
X91330000Y-100430000D02*
G75*
G02*
X88270000Y-97370000I0J3060000D01*
G01*
X118390000Y-97370000D02*
G75*
G02*
X115330000Y-100430000I-3060000J0D01*
G01*
G04 #@! TD*
M02*
